<mxfile host="app.diagrams.net" modified="2024-03-31T09:31:38.907Z" agent="Mozilla/5.0 (Windows NT 10.0; Win64; x64) AppleWebKit/537.36 (KHTML, like Gecko) Chrome/121.0.0.0 Safari/537.36 OPR/107.0.0.0" etag="-iKRiJli484mxyGpU1jg" version="24.2.1" type="google" pages="5">
  <diagram id="iMP7eGMnP7ThzsANxpaX" name="Страница — 1">
    <mxGraphModel dx="1449" dy="778" grid="1" gridSize="10" guides="1" tooltips="1" connect="1" arrows="1" fold="1" page="1" pageScale="1" pageWidth="827" pageHeight="1169" math="0" shadow="0">
      <root>
        <mxCell id="0" />
        <mxCell id="1" parent="0" />
        <mxCell id="F5F_wVg1bgjG5EeD6L4_-1" value="Пользователь" style="shape=umlActor;verticalLabelPosition=bottom;verticalAlign=top;html=1;outlineConnect=0;" vertex="1" parent="1">
          <mxGeometry x="735" y="605" width="30" height="60" as="geometry" />
        </mxCell>
        <mxCell id="F5F_wVg1bgjG5EeD6L4_-2" value="Войти в аккаунт" style="ellipse;whiteSpace=wrap;html=1;" vertex="1" parent="1">
          <mxGeometry x="515" y="585" width="90" height="60" as="geometry" />
        </mxCell>
        <mxCell id="F5F_wVg1bgjG5EeD6L4_-3" value="Заполнить информацию о себе" style="ellipse;whiteSpace=wrap;html=1;" vertex="1" parent="1">
          <mxGeometry x="461" y="785" width="90" height="60" as="geometry" />
        </mxCell>
        <mxCell id="F5F_wVg1bgjG5EeD6L4_-4" value="Создать аккаунт" style="ellipse;whiteSpace=wrap;html=1;" vertex="1" parent="1">
          <mxGeometry x="565" y="705" width="90" height="60" as="geometry" />
        </mxCell>
        <mxCell id="F5F_wVg1bgjG5EeD6L4_-5" value="Прикрепить необходимые документы" style="ellipse;whiteSpace=wrap;html=1;" vertex="1" parent="1">
          <mxGeometry x="431" y="705" width="90" height="60" as="geometry" />
        </mxCell>
        <mxCell id="F5F_wVg1bgjG5EeD6L4_-6" value="" style="html=1;verticalAlign=bottom;labelBackgroundColor=none;endArrow=block;endFill=1;dashed=1;rounded=0;exitX=0;exitY=1;exitDx=0;exitDy=0;entryX=1;entryY=0;entryDx=0;entryDy=0;" edge="1" parent="1" source="F5F_wVg1bgjG5EeD6L4_-4" target="F5F_wVg1bgjG5EeD6L4_-3">
          <mxGeometry width="160" relative="1" as="geometry">
            <mxPoint x="574.1801948466023" y="756.2132034355984" as="sourcePoint" />
            <mxPoint x="1041" y="785" as="targetPoint" />
          </mxGeometry>
        </mxCell>
        <mxCell id="F5F_wVg1bgjG5EeD6L4_-7" value="" style="html=1;verticalAlign=bottom;labelBackgroundColor=none;endArrow=block;endFill=1;dashed=1;rounded=0;exitX=0;exitY=0.5;exitDx=0;exitDy=0;entryX=1;entryY=0.5;entryDx=0;entryDy=0;" edge="1" parent="1" source="F5F_wVg1bgjG5EeD6L4_-4" target="F5F_wVg1bgjG5EeD6L4_-5">
          <mxGeometry width="160" relative="1" as="geometry">
            <mxPoint x="560.9999999999977" y="735" as="sourcePoint" />
            <mxPoint x="1041" y="785" as="targetPoint" />
          </mxGeometry>
        </mxCell>
        <mxCell id="F5F_wVg1bgjG5EeD6L4_-8" value="Ввести промокод" style="ellipse;whiteSpace=wrap;html=1;" vertex="1" parent="1">
          <mxGeometry x="981" y="560" width="90" height="60" as="geometry" />
        </mxCell>
        <mxCell id="F5F_wVg1bgjG5EeD6L4_-9" value="Получить бонусные средства" style="ellipse;whiteSpace=wrap;html=1;" vertex="1" parent="1">
          <mxGeometry x="871" y="490" width="90" height="60" as="geometry" />
        </mxCell>
        <mxCell id="F5F_wVg1bgjG5EeD6L4_-10" value="Сделать ставку" style="ellipse;whiteSpace=wrap;html=1;" vertex="1" parent="1">
          <mxGeometry x="811" y="715" width="90" height="60" as="geometry" />
        </mxCell>
        <mxCell id="F5F_wVg1bgjG5EeD6L4_-11" value="Внести денежные средства на сайт" style="ellipse;whiteSpace=wrap;html=1;" vertex="1" parent="1">
          <mxGeometry x="841" y="585" width="90" height="60" as="geometry" />
        </mxCell>
        <mxCell id="F5F_wVg1bgjG5EeD6L4_-12" value="Выбрать футбольный матч" style="ellipse;whiteSpace=wrap;html=1;" vertex="1" parent="1">
          <mxGeometry x="942" y="657.5" width="90" height="60" as="geometry" />
        </mxCell>
        <mxCell id="F5F_wVg1bgjG5EeD6L4_-13" value="Выбрать команду" style="ellipse;whiteSpace=wrap;html=1;" vertex="1" parent="1">
          <mxGeometry x="951" y="792.5" width="90" height="60" as="geometry" />
        </mxCell>
        <mxCell id="F5F_wVg1bgjG5EeD6L4_-14" value="Выбрать сумму ставки" style="ellipse;whiteSpace=wrap;html=1;" vertex="1" parent="1">
          <mxGeometry x="765" y="835" width="90" height="60" as="geometry" />
        </mxCell>
        <mxCell id="F5F_wVg1bgjG5EeD6L4_-15" value="" style="endArrow=none;html=1;rounded=0;curved=1;entryX=0.5;entryY=0.5;entryDx=0;entryDy=0;entryPerimeter=0;exitX=0;exitY=0;exitDx=0;exitDy=0;" edge="1" parent="1" source="F5F_wVg1bgjG5EeD6L4_-10" target="F5F_wVg1bgjG5EeD6L4_-1">
          <mxGeometry width="50" height="50" relative="1" as="geometry">
            <mxPoint x="835" y="805" as="sourcePoint" />
            <mxPoint x="885" y="755" as="targetPoint" />
          </mxGeometry>
        </mxCell>
        <mxCell id="F5F_wVg1bgjG5EeD6L4_-16" value="" style="endArrow=none;html=1;rounded=0;curved=1;entryX=0.5;entryY=0.5;entryDx=0;entryDy=0;entryPerimeter=0;exitX=0;exitY=0.5;exitDx=0;exitDy=0;" edge="1" parent="1" source="F5F_wVg1bgjG5EeD6L4_-11" target="F5F_wVg1bgjG5EeD6L4_-1">
          <mxGeometry width="50" height="50" relative="1" as="geometry">
            <mxPoint x="835" y="805" as="sourcePoint" />
            <mxPoint x="885" y="755" as="targetPoint" />
          </mxGeometry>
        </mxCell>
        <mxCell id="F5F_wVg1bgjG5EeD6L4_-17" value="" style="html=1;verticalAlign=bottom;labelBackgroundColor=none;endArrow=block;endFill=1;dashed=1;rounded=0;curved=1;exitX=0;exitY=0.5;exitDx=0;exitDy=0;entryX=1;entryY=0.5;entryDx=0;entryDy=0;" edge="1" parent="1" source="F5F_wVg1bgjG5EeD6L4_-8" target="F5F_wVg1bgjG5EeD6L4_-11">
          <mxGeometry width="160" relative="1" as="geometry">
            <mxPoint x="1105" y="624.5" as="sourcePoint" />
            <mxPoint x="945" y="624.5" as="targetPoint" />
          </mxGeometry>
        </mxCell>
        <mxCell id="F5F_wVg1bgjG5EeD6L4_-18" value="&quot;extend&quot;" style="edgeLabel;html=1;align=center;verticalAlign=middle;resizable=0;points=[];" connectable="0" vertex="1" parent="F5F_wVg1bgjG5EeD6L4_-17">
          <mxGeometry x="-0.2736" relative="1" as="geometry">
            <mxPoint as="offset" />
          </mxGeometry>
        </mxCell>
        <mxCell id="F5F_wVg1bgjG5EeD6L4_-19" value="" style="html=1;verticalAlign=bottom;labelBackgroundColor=none;endArrow=block;endFill=1;dashed=1;rounded=0;curved=1;exitX=1;exitY=0;exitDx=0;exitDy=0;entryX=0;entryY=0.5;entryDx=0;entryDy=0;" edge="1" parent="1" source="F5F_wVg1bgjG5EeD6L4_-10" target="F5F_wVg1bgjG5EeD6L4_-12">
          <mxGeometry width="160" relative="1" as="geometry">
            <mxPoint x="1075" y="675" as="sourcePoint" />
            <mxPoint x="995" y="765" as="targetPoint" />
          </mxGeometry>
        </mxCell>
        <mxCell id="F5F_wVg1bgjG5EeD6L4_-20" value="&quot;include&quot;" style="edgeLabel;html=1;align=center;verticalAlign=middle;resizable=0;points=[];" connectable="0" vertex="1" parent="F5F_wVg1bgjG5EeD6L4_-19">
          <mxGeometry x="-0.3054" relative="1" as="geometry">
            <mxPoint as="offset" />
          </mxGeometry>
        </mxCell>
        <mxCell id="F5F_wVg1bgjG5EeD6L4_-21" value="" style="html=1;verticalAlign=bottom;labelBackgroundColor=none;endArrow=block;endFill=1;dashed=1;rounded=0;curved=1;exitX=1;exitY=1;exitDx=0;exitDy=0;entryX=0;entryY=0;entryDx=0;entryDy=0;" edge="1" parent="1" source="F5F_wVg1bgjG5EeD6L4_-10" target="F5F_wVg1bgjG5EeD6L4_-13">
          <mxGeometry width="160" relative="1" as="geometry">
            <mxPoint x="835" y="765" as="sourcePoint" />
            <mxPoint x="995" y="765" as="targetPoint" />
          </mxGeometry>
        </mxCell>
        <mxCell id="F5F_wVg1bgjG5EeD6L4_-22" value="&quot;include&quot;" style="edgeLabel;html=1;align=center;verticalAlign=middle;resizable=0;points=[];" connectable="0" vertex="1" parent="F5F_wVg1bgjG5EeD6L4_-21">
          <mxGeometry x="-0.3309" y="-1" relative="1" as="geometry">
            <mxPoint as="offset" />
          </mxGeometry>
        </mxCell>
        <mxCell id="F5F_wVg1bgjG5EeD6L4_-23" value="" style="html=1;verticalAlign=bottom;labelBackgroundColor=none;endArrow=block;endFill=1;dashed=1;rounded=0;curved=1;exitX=0;exitY=1;exitDx=0;exitDy=0;entryX=0.5;entryY=0;entryDx=0;entryDy=0;" edge="1" parent="1" source="F5F_wVg1bgjG5EeD6L4_-10" target="F5F_wVg1bgjG5EeD6L4_-14">
          <mxGeometry width="160" relative="1" as="geometry">
            <mxPoint x="835" y="765" as="sourcePoint" />
            <mxPoint x="995" y="765" as="targetPoint" />
          </mxGeometry>
        </mxCell>
        <mxCell id="F5F_wVg1bgjG5EeD6L4_-24" value="&quot;include&quot;" style="edgeLabel;html=1;align=center;verticalAlign=middle;resizable=0;points=[];" connectable="0" vertex="1" parent="F5F_wVg1bgjG5EeD6L4_-23">
          <mxGeometry x="0.4396" y="2" relative="1" as="geometry">
            <mxPoint x="3" y="-7" as="offset" />
          </mxGeometry>
        </mxCell>
        <mxCell id="F5F_wVg1bgjG5EeD6L4_-25" value="Выбрать значение/победителя" style="ellipse;whiteSpace=wrap;html=1;" vertex="1" parent="1">
          <mxGeometry x="875" y="835" width="90" height="60" as="geometry" />
        </mxCell>
        <mxCell id="F5F_wVg1bgjG5EeD6L4_-26" value="" style="html=1;verticalAlign=bottom;labelBackgroundColor=none;endArrow=block;endFill=1;dashed=1;rounded=0;curved=1;exitX=0.5;exitY=1;exitDx=0;exitDy=0;entryX=0;entryY=0;entryDx=0;entryDy=0;" edge="1" parent="1" source="F5F_wVg1bgjG5EeD6L4_-10" target="F5F_wVg1bgjG5EeD6L4_-25">
          <mxGeometry width="160" relative="1" as="geometry">
            <mxPoint x="835" y="755" as="sourcePoint" />
            <mxPoint x="995" y="755" as="targetPoint" />
          </mxGeometry>
        </mxCell>
        <mxCell id="F5F_wVg1bgjG5EeD6L4_-27" value="&quot;include&quot;" style="edgeLabel;html=1;align=center;verticalAlign=middle;resizable=0;points=[];" connectable="0" vertex="1" parent="F5F_wVg1bgjG5EeD6L4_-26">
          <mxGeometry x="0.1095" y="-1" relative="1" as="geometry">
            <mxPoint as="offset" />
          </mxGeometry>
        </mxCell>
        <mxCell id="F5F_wVg1bgjG5EeD6L4_-28" value="Закрыть ставку раньше" style="ellipse;whiteSpace=wrap;html=1;" vertex="1" parent="1">
          <mxGeometry x="705" y="765" width="90" height="60" as="geometry" />
        </mxCell>
        <mxCell id="F5F_wVg1bgjG5EeD6L4_-29" value="Вывести денежные средства с сайта" style="ellipse;whiteSpace=wrap;html=1;" vertex="1" parent="1">
          <mxGeometry x="591" y="810" width="90" height="60" as="geometry" />
        </mxCell>
        <mxCell id="F5F_wVg1bgjG5EeD6L4_-30" value="" style="endArrow=none;html=1;rounded=0;curved=1;entryX=0.5;entryY=0.5;entryDx=0;entryDy=0;entryPerimeter=0;exitX=0.5;exitY=0;exitDx=0;exitDy=0;" edge="1" parent="1" source="F5F_wVg1bgjG5EeD6L4_-28" target="F5F_wVg1bgjG5EeD6L4_-1">
          <mxGeometry width="50" height="50" relative="1" as="geometry">
            <mxPoint x="725" y="765" as="sourcePoint" />
            <mxPoint x="775" y="715" as="targetPoint" />
          </mxGeometry>
        </mxCell>
        <mxCell id="F5F_wVg1bgjG5EeD6L4_-31" value="" style="endArrow=none;html=1;rounded=0;curved=1;entryX=0.5;entryY=0;entryDx=0;entryDy=0;exitX=0.5;exitY=0.5;exitDx=0;exitDy=0;exitPerimeter=0;" edge="1" parent="1" source="F5F_wVg1bgjG5EeD6L4_-1" target="F5F_wVg1bgjG5EeD6L4_-29">
          <mxGeometry width="50" height="50" relative="1" as="geometry">
            <mxPoint x="725" y="765" as="sourcePoint" />
            <mxPoint x="745" y="645" as="targetPoint" />
          </mxGeometry>
        </mxCell>
        <mxCell id="F5F_wVg1bgjG5EeD6L4_-32" value="Добавить матч в каталог" style="ellipse;whiteSpace=wrap;html=1;" vertex="1" parent="1">
          <mxGeometry x="801.5" y="1067.5" width="90" height="60" as="geometry" />
        </mxCell>
        <mxCell id="F5F_wVg1bgjG5EeD6L4_-33" value="Добавить информацию о командах" style="ellipse;whiteSpace=wrap;html=1;" vertex="1" parent="1">
          <mxGeometry x="801.5" y="950" width="90" height="60" as="geometry" />
        </mxCell>
        <mxCell id="F5F_wVg1bgjG5EeD6L4_-34" value="Добавить время матча" style="ellipse;whiteSpace=wrap;html=1;" vertex="1" parent="1">
          <mxGeometry x="911.5" y="980" width="90" height="60" as="geometry" />
        </mxCell>
        <mxCell id="F5F_wVg1bgjG5EeD6L4_-35" value="Добавить виды ставок" style="ellipse;whiteSpace=wrap;html=1;" vertex="1" parent="1">
          <mxGeometry x="965" y="1060" width="90" height="60" as="geometry" />
        </mxCell>
        <mxCell id="F5F_wVg1bgjG5EeD6L4_-36" value="Расчитать коэффициенты" style="ellipse;whiteSpace=wrap;html=1;" vertex="1" parent="1">
          <mxGeometry x="931" y="1140" width="90" height="60" as="geometry" />
        </mxCell>
        <mxCell id="F5F_wVg1bgjG5EeD6L4_-37" value="Добавить коэффициенты" style="ellipse;whiteSpace=wrap;html=1;" vertex="1" parent="1">
          <mxGeometry x="1035" y="1210" width="90" height="60" as="geometry" />
        </mxCell>
        <mxCell id="F5F_wVg1bgjG5EeD6L4_-38" value="Расчитать сумму выплат при досрочном закрытии ставок" style="ellipse;whiteSpace=wrap;html=1;" vertex="1" parent="1">
          <mxGeometry x="681.5" y="1160" width="137" height="70" as="geometry" />
        </mxCell>
        <mxCell id="F5F_wVg1bgjG5EeD6L4_-39" value="Опубликовать важную информацию на главной странице сайта" style="ellipse;whiteSpace=wrap;html=1;" vertex="1" parent="1">
          <mxGeometry x="451" y="1070" width="140" height="70" as="geometry" />
        </mxCell>
        <mxCell id="F5F_wVg1bgjG5EeD6L4_-40" value="" style="endArrow=none;html=1;rounded=0;curved=1;entryX=0.5;entryY=0.5;entryDx=0;entryDy=0;entryPerimeter=0;exitX=1;exitY=0.5;exitDx=0;exitDy=0;" edge="1" parent="1" source="F5F_wVg1bgjG5EeD6L4_-39" target="F5F_wVg1bgjG5EeD6L4_-73">
          <mxGeometry width="50" height="50" relative="1" as="geometry">
            <mxPoint x="731" y="1170" as="sourcePoint" />
            <mxPoint x="781" y="1120" as="targetPoint" />
          </mxGeometry>
        </mxCell>
        <mxCell id="F5F_wVg1bgjG5EeD6L4_-41" value="" style="endArrow=none;html=1;rounded=0;curved=1;entryX=0.5;entryY=0.5;entryDx=0;entryDy=0;entryPerimeter=0;exitX=0.5;exitY=0;exitDx=0;exitDy=0;" edge="1" parent="1" source="F5F_wVg1bgjG5EeD6L4_-38" target="F5F_wVg1bgjG5EeD6L4_-73">
          <mxGeometry width="50" height="50" relative="1" as="geometry">
            <mxPoint x="555" y="1070" as="sourcePoint" />
            <mxPoint x="719" y="1070" as="targetPoint" />
          </mxGeometry>
        </mxCell>
        <mxCell id="F5F_wVg1bgjG5EeD6L4_-42" value="" style="endArrow=none;html=1;rounded=0;curved=1;entryX=0.5;entryY=0.5;entryDx=0;entryDy=0;entryPerimeter=0;exitX=0;exitY=0.5;exitDx=0;exitDy=0;" edge="1" parent="1" source="F5F_wVg1bgjG5EeD6L4_-32" target="F5F_wVg1bgjG5EeD6L4_-73">
          <mxGeometry width="50" height="50" relative="1" as="geometry">
            <mxPoint x="672.5" y="1190" as="sourcePoint" />
            <mxPoint x="719" y="1070" as="targetPoint" />
          </mxGeometry>
        </mxCell>
        <mxCell id="F5F_wVg1bgjG5EeD6L4_-43" value="" style="html=1;verticalAlign=bottom;labelBackgroundColor=none;endArrow=block;endFill=1;dashed=1;rounded=0;curved=1;exitX=0.5;exitY=0;exitDx=0;exitDy=0;entryX=0.5;entryY=1;entryDx=0;entryDy=0;" edge="1" parent="1" source="F5F_wVg1bgjG5EeD6L4_-32" target="F5F_wVg1bgjG5EeD6L4_-33">
          <mxGeometry width="160" relative="1" as="geometry">
            <mxPoint x="671" y="1140" as="sourcePoint" />
            <mxPoint x="831" y="1140" as="targetPoint" />
          </mxGeometry>
        </mxCell>
        <mxCell id="F5F_wVg1bgjG5EeD6L4_-44" value="&quot;include&quot;" style="edgeLabel;html=1;align=center;verticalAlign=middle;resizable=0;points=[];" connectable="0" vertex="1" parent="F5F_wVg1bgjG5EeD6L4_-43">
          <mxGeometry x="-0.1753" relative="1" as="geometry">
            <mxPoint as="offset" />
          </mxGeometry>
        </mxCell>
        <mxCell id="F5F_wVg1bgjG5EeD6L4_-45" value="" style="html=1;verticalAlign=bottom;labelBackgroundColor=none;endArrow=block;endFill=1;dashed=1;rounded=0;curved=1;exitX=1;exitY=0;exitDx=0;exitDy=0;entryX=0;entryY=1;entryDx=0;entryDy=0;" edge="1" parent="1" source="F5F_wVg1bgjG5EeD6L4_-32" target="F5F_wVg1bgjG5EeD6L4_-34">
          <mxGeometry width="160" relative="1" as="geometry">
            <mxPoint x="907.8198051533946" y="1088.7867965644034" as="sourcePoint" />
            <mxPoint x="964.1801948466054" y="1031.2132034355961" as="targetPoint" />
          </mxGeometry>
        </mxCell>
        <mxCell id="F5F_wVg1bgjG5EeD6L4_-46" value="&quot;include&quot;" style="edgeLabel;html=1;align=center;verticalAlign=middle;resizable=0;points=[];" connectable="0" vertex="1" parent="F5F_wVg1bgjG5EeD6L4_-45">
          <mxGeometry x="-0.1392" y="2" relative="1" as="geometry">
            <mxPoint as="offset" />
          </mxGeometry>
        </mxCell>
        <mxCell id="F5F_wVg1bgjG5EeD6L4_-47" value="" style="html=1;verticalAlign=bottom;labelBackgroundColor=none;endArrow=block;endFill=1;dashed=1;rounded=0;curved=1;exitX=1;exitY=0.5;exitDx=0;exitDy=0;entryX=0;entryY=0.5;entryDx=0;entryDy=0;" edge="1" parent="1" source="F5F_wVg1bgjG5EeD6L4_-32" target="F5F_wVg1bgjG5EeD6L4_-35">
          <mxGeometry width="160" relative="1" as="geometry">
            <mxPoint x="921" y="1110" as="sourcePoint" />
            <mxPoint x="1011" y="1100" as="targetPoint" />
          </mxGeometry>
        </mxCell>
        <mxCell id="F5F_wVg1bgjG5EeD6L4_-48" value="&quot;include&quot;" style="edgeLabel;html=1;align=center;verticalAlign=middle;resizable=0;points=[];" connectable="0" vertex="1" parent="F5F_wVg1bgjG5EeD6L4_-47">
          <mxGeometry x="-0.2105" y="2" relative="1" as="geometry">
            <mxPoint as="offset" />
          </mxGeometry>
        </mxCell>
        <mxCell id="F5F_wVg1bgjG5EeD6L4_-49" value="" style="html=1;verticalAlign=bottom;labelBackgroundColor=none;endArrow=block;endFill=1;dashed=1;rounded=0;curved=1;exitX=1;exitY=1;exitDx=0;exitDy=0;entryX=0;entryY=0;entryDx=0;entryDy=0;" edge="1" parent="1" source="F5F_wVg1bgjG5EeD6L4_-32" target="F5F_wVg1bgjG5EeD6L4_-36">
          <mxGeometry width="160" relative="1" as="geometry">
            <mxPoint x="907.8198051533946" y="1131.2132034355964" as="sourcePoint" />
            <mxPoint x="988.1801948466054" y="1168.7867965644036" as="targetPoint" />
          </mxGeometry>
        </mxCell>
        <mxCell id="F5F_wVg1bgjG5EeD6L4_-50" value="&quot;include&quot;" style="edgeLabel;html=1;align=center;verticalAlign=middle;resizable=0;points=[];" connectable="0" vertex="1" parent="F5F_wVg1bgjG5EeD6L4_-49">
          <mxGeometry x="-0.2108" y="1" relative="1" as="geometry">
            <mxPoint as="offset" />
          </mxGeometry>
        </mxCell>
        <mxCell id="F5F_wVg1bgjG5EeD6L4_-51" value="" style="html=1;verticalAlign=bottom;labelBackgroundColor=none;endArrow=block;endFill=1;dashed=1;rounded=0;curved=1;exitX=1;exitY=1;exitDx=0;exitDy=0;entryX=0;entryY=0;entryDx=0;entryDy=0;" edge="1" parent="1" source="F5F_wVg1bgjG5EeD6L4_-36" target="F5F_wVg1bgjG5EeD6L4_-37">
          <mxGeometry width="160" relative="1" as="geometry">
            <mxPoint x="876" y="1140" as="sourcePoint" />
            <mxPoint x="910" y="1210" as="targetPoint" />
          </mxGeometry>
        </mxCell>
        <mxCell id="F5F_wVg1bgjG5EeD6L4_-52" value="&quot;include&quot;" style="edgeLabel;html=1;align=center;verticalAlign=middle;resizable=0;points=[];" connectable="0" vertex="1" parent="F5F_wVg1bgjG5EeD6L4_-51">
          <mxGeometry x="-0.2409" y="-1" relative="1" as="geometry">
            <mxPoint as="offset" />
          </mxGeometry>
        </mxCell>
        <mxCell id="F5F_wVg1bgjG5EeD6L4_-53" value="Настроить трансляцию матча" style="ellipse;whiteSpace=wrap;html=1;" vertex="1" parent="1">
          <mxGeometry x="831" y="1170" width="90" height="60" as="geometry" />
        </mxCell>
        <mxCell id="F5F_wVg1bgjG5EeD6L4_-54" value="" style="html=1;verticalAlign=bottom;labelBackgroundColor=none;endArrow=block;endFill=1;dashed=1;rounded=0;curved=1;exitX=0.5;exitY=1;exitDx=0;exitDy=0;entryX=0.5;entryY=0;entryDx=0;entryDy=0;" edge="1" parent="1" source="F5F_wVg1bgjG5EeD6L4_-32" target="F5F_wVg1bgjG5EeD6L4_-53">
          <mxGeometry width="160" relative="1" as="geometry">
            <mxPoint x="876" y="1140" as="sourcePoint" />
            <mxPoint x="920" y="1220" as="targetPoint" />
          </mxGeometry>
        </mxCell>
        <mxCell id="F5F_wVg1bgjG5EeD6L4_-55" value="&quot;include&quot;" style="edgeLabel;html=1;align=center;verticalAlign=middle;resizable=0;points=[];" connectable="0" vertex="1" parent="F5F_wVg1bgjG5EeD6L4_-54">
          <mxGeometry x="-0.2419" y="-1" relative="1" as="geometry">
            <mxPoint as="offset" />
          </mxGeometry>
        </mxCell>
        <mxCell id="F5F_wVg1bgjG5EeD6L4_-56" value="Настроить транскрибацию" style="ellipse;whiteSpace=wrap;html=1;" vertex="1" parent="1">
          <mxGeometry x="831" y="1270" width="90" height="60" as="geometry" />
        </mxCell>
        <mxCell id="F5F_wVg1bgjG5EeD6L4_-57" value="" style="html=1;verticalAlign=bottom;labelBackgroundColor=none;endArrow=block;endFill=1;dashed=1;rounded=0;curved=1;exitX=0.5;exitY=0;exitDx=0;exitDy=0;entryX=0.5;entryY=1;entryDx=0;entryDy=0;" edge="1" parent="1" source="F5F_wVg1bgjG5EeD6L4_-56" target="F5F_wVg1bgjG5EeD6L4_-53">
          <mxGeometry width="160" relative="1" as="geometry">
            <mxPoint x="831" y="1140" as="sourcePoint" />
            <mxPoint x="671" y="1140" as="targetPoint" />
          </mxGeometry>
        </mxCell>
        <mxCell id="F5F_wVg1bgjG5EeD6L4_-58" value="&quot;extend&quot;" style="edgeLabel;html=1;align=center;verticalAlign=middle;resizable=0;points=[];" connectable="0" vertex="1" parent="F5F_wVg1bgjG5EeD6L4_-57">
          <mxGeometry x="-0.3167" relative="1" as="geometry">
            <mxPoint x="-1" y="-9" as="offset" />
          </mxGeometry>
        </mxCell>
        <mxCell id="F5F_wVg1bgjG5EeD6L4_-59" value="Одобрить перевод средств для всех сыгранных ставок" style="ellipse;whiteSpace=wrap;html=1;" vertex="1" parent="1">
          <mxGeometry x="521" y="1160" width="130" height="70" as="geometry" />
        </mxCell>
        <mxCell id="F5F_wVg1bgjG5EeD6L4_-60" value="" style="endArrow=none;html=1;rounded=0;curved=1;entryX=0.5;entryY=0.5;entryDx=0;entryDy=0;entryPerimeter=0;exitX=1;exitY=0;exitDx=0;exitDy=0;" edge="1" parent="1" source="F5F_wVg1bgjG5EeD6L4_-59" target="F5F_wVg1bgjG5EeD6L4_-73">
          <mxGeometry width="50" height="50" relative="1" as="geometry">
            <mxPoint x="821" y="1090" as="sourcePoint" />
            <mxPoint x="871" y="1040" as="targetPoint" />
          </mxGeometry>
        </mxCell>
        <mxCell id="F5F_wVg1bgjG5EeD6L4_-61" value="Ввести логин" style="ellipse;whiteSpace=wrap;html=1;" vertex="1" parent="1">
          <mxGeometry x="381" y="620" width="90" height="60" as="geometry" />
        </mxCell>
        <mxCell id="F5F_wVg1bgjG5EeD6L4_-62" value="Ввести пароль" style="ellipse;whiteSpace=wrap;html=1;" vertex="1" parent="1">
          <mxGeometry x="381" y="525" width="90" height="60" as="geometry" />
        </mxCell>
        <mxCell id="F5F_wVg1bgjG5EeD6L4_-63" value="Ввостановить аккаунт" style="ellipse;whiteSpace=wrap;html=1;" vertex="1" parent="1">
          <mxGeometry x="604" y="510" width="90" height="60" as="geometry" />
        </mxCell>
        <mxCell id="F5F_wVg1bgjG5EeD6L4_-64" value="" style="html=1;verticalAlign=bottom;labelBackgroundColor=none;endArrow=block;endFill=1;dashed=1;rounded=0;fontSize=10;curved=1;exitX=0;exitY=0.5;exitDx=0;exitDy=0;entryX=1;entryY=0.5;entryDx=0;entryDy=0;" edge="1" parent="1" source="F5F_wVg1bgjG5EeD6L4_-2" target="F5F_wVg1bgjG5EeD6L4_-61">
          <mxGeometry width="160" relative="1" as="geometry">
            <mxPoint x="751" y="610" as="sourcePoint" />
            <mxPoint x="591" y="610" as="targetPoint" />
          </mxGeometry>
        </mxCell>
        <mxCell id="F5F_wVg1bgjG5EeD6L4_-65" value="&quot;include&quot;" style="edgeLabel;html=1;align=center;verticalAlign=middle;resizable=0;points=[];" connectable="0" vertex="1" parent="F5F_wVg1bgjG5EeD6L4_-64">
          <mxGeometry x="-0.3123" y="-1" relative="1" as="geometry">
            <mxPoint y="11" as="offset" />
          </mxGeometry>
        </mxCell>
        <mxCell id="F5F_wVg1bgjG5EeD6L4_-66" value="" style="html=1;verticalAlign=bottom;labelBackgroundColor=none;endArrow=block;endFill=1;dashed=1;rounded=0;fontSize=10;curved=1;exitX=0;exitY=0.5;exitDx=0;exitDy=0;entryX=1;entryY=1;entryDx=0;entryDy=0;" edge="1" parent="1" source="F5F_wVg1bgjG5EeD6L4_-2" target="F5F_wVg1bgjG5EeD6L4_-62">
          <mxGeometry width="160" relative="1" as="geometry">
            <mxPoint x="524.9999999999977" y="625" as="sourcePoint" />
            <mxPoint x="491.0000000000023" y="650" as="targetPoint" />
          </mxGeometry>
        </mxCell>
        <mxCell id="F5F_wVg1bgjG5EeD6L4_-67" value="&quot;include&quot;" style="edgeLabel;html=1;align=center;verticalAlign=middle;resizable=0;points=[];" connectable="0" vertex="1" parent="F5F_wVg1bgjG5EeD6L4_-66">
          <mxGeometry x="-0.3116" y="1" relative="1" as="geometry">
            <mxPoint y="-12" as="offset" />
          </mxGeometry>
        </mxCell>
        <mxCell id="F5F_wVg1bgjG5EeD6L4_-68" value="&quot;include&quot;" style="text;html=1;strokeColor=none;fillColor=none;align=center;verticalAlign=middle;whiteSpace=wrap;rounded=0;fontSize=12;" vertex="1" parent="1">
          <mxGeometry x="520" y="717.5" width="51" height="15" as="geometry" />
        </mxCell>
        <mxCell id="F5F_wVg1bgjG5EeD6L4_-69" value="&quot;include&quot;" style="text;html=1;strokeColor=none;fillColor=none;align=center;verticalAlign=middle;whiteSpace=wrap;rounded=0;fontSize=12;" vertex="1" parent="1">
          <mxGeometry x="554" y="785" width="51" height="15" as="geometry" />
        </mxCell>
        <mxCell id="F5F_wVg1bgjG5EeD6L4_-70" style="edgeStyle=none;rounded=0;orthogonalLoop=1;jettySize=auto;html=1;exitX=0.25;exitY=1;exitDx=0;exitDy=0;fontSize=12;" edge="1" parent="1" source="F5F_wVg1bgjG5EeD6L4_-69" target="F5F_wVg1bgjG5EeD6L4_-69">
          <mxGeometry relative="1" as="geometry" />
        </mxCell>
        <mxCell id="F5F_wVg1bgjG5EeD6L4_-71" value="Разослать промокоды пользователям" style="ellipse;whiteSpace=wrap;html=1;" vertex="1" parent="1">
          <mxGeometry x="534.5" y="970" width="90" height="60" as="geometry" />
        </mxCell>
        <mxCell id="F5F_wVg1bgjG5EeD6L4_-72" value="" style="endArrow=none;html=1;rounded=0;curved=1;entryX=1;entryY=1;entryDx=0;entryDy=0;exitX=0.5;exitY=0.5;exitDx=0;exitDy=0;exitPerimeter=0;" edge="1" parent="1" source="F5F_wVg1bgjG5EeD6L4_-73" target="F5F_wVg1bgjG5EeD6L4_-71">
          <mxGeometry width="50" height="50" relative="1" as="geometry">
            <mxPoint x="812" y="1108" as="sourcePoint" />
            <mxPoint x="719" y="1070" as="targetPoint" />
          </mxGeometry>
        </mxCell>
        <mxCell id="F5F_wVg1bgjG5EeD6L4_-73" value="Администратор сайта" style="shape=umlActor;verticalLabelPosition=bottom;verticalAlign=top;html=1;outlineConnect=0;" vertex="1" parent="1">
          <mxGeometry x="694" y="1030" width="30" height="60" as="geometry" />
        </mxCell>
        <mxCell id="F5F_wVg1bgjG5EeD6L4_-74" value="Выбрать тип ставки" style="ellipse;whiteSpace=wrap;html=1;" vertex="1" parent="1">
          <mxGeometry x="981" y="717.5" width="90" height="60" as="geometry" />
        </mxCell>
        <mxCell id="F5F_wVg1bgjG5EeD6L4_-75" value="" style="html=1;verticalAlign=bottom;labelBackgroundColor=none;endArrow=block;endFill=1;dashed=1;rounded=0;curved=1;exitX=1;exitY=0.5;exitDx=0;exitDy=0;entryX=0;entryY=0.5;entryDx=0;entryDy=0;" edge="1" parent="1" source="F5F_wVg1bgjG5EeD6L4_-10" target="F5F_wVg1bgjG5EeD6L4_-74">
          <mxGeometry width="160" relative="1" as="geometry">
            <mxPoint x="898" y="776" as="sourcePoint" />
            <mxPoint x="974" y="811" as="targetPoint" />
          </mxGeometry>
        </mxCell>
        <mxCell id="F5F_wVg1bgjG5EeD6L4_-76" value="&quot;include&quot;" style="edgeLabel;html=1;align=center;verticalAlign=middle;resizable=0;points=[];" connectable="0" vertex="1" parent="F5F_wVg1bgjG5EeD6L4_-75">
          <mxGeometry x="-0.3309" y="-1" relative="1" as="geometry">
            <mxPoint as="offset" />
          </mxGeometry>
        </mxCell>
        <mxCell id="F5F_wVg1bgjG5EeD6L4_-77" value="" style="html=1;verticalAlign=bottom;labelBackgroundColor=none;endArrow=block;endFill=1;dashed=1;rounded=0;curved=1;exitX=1;exitY=1;exitDx=0;exitDy=0;entryX=0;entryY=0;entryDx=0;entryDy=0;" edge="1" parent="1" source="F5F_wVg1bgjG5EeD6L4_-9" target="F5F_wVg1bgjG5EeD6L4_-8">
          <mxGeometry width="160" relative="1" as="geometry">
            <mxPoint x="898" y="734" as="sourcePoint" />
            <mxPoint x="952" y="698" as="targetPoint" />
          </mxGeometry>
        </mxCell>
        <mxCell id="F5F_wVg1bgjG5EeD6L4_-78" value="&quot;include&quot;" style="edgeLabel;html=1;align=center;verticalAlign=middle;resizable=0;points=[];" connectable="0" vertex="1" parent="F5F_wVg1bgjG5EeD6L4_-77">
          <mxGeometry x="-0.3054" relative="1" as="geometry">
            <mxPoint as="offset" />
          </mxGeometry>
        </mxCell>
        <mxCell id="F5F_wVg1bgjG5EeD6L4_-79" value="" style="endArrow=none;html=1;rounded=0;curved=1;entryX=1;entryY=0.5;entryDx=0;entryDy=0;exitX=0.5;exitY=0.5;exitDx=0;exitDy=0;exitPerimeter=0;" edge="1" parent="1" source="F5F_wVg1bgjG5EeD6L4_-1" target="F5F_wVg1bgjG5EeD6L4_-2">
          <mxGeometry width="50" height="50" relative="1" as="geometry">
            <mxPoint x="851" y="625" as="sourcePoint" />
            <mxPoint x="760" y="645" as="targetPoint" />
          </mxGeometry>
        </mxCell>
        <mxCell id="F5F_wVg1bgjG5EeD6L4_-80" value="" style="endArrow=none;html=1;rounded=0;curved=1;entryX=1;entryY=1;entryDx=0;entryDy=0;exitX=0.5;exitY=0.5;exitDx=0;exitDy=0;exitPerimeter=0;" edge="1" parent="1" source="F5F_wVg1bgjG5EeD6L4_-1" target="F5F_wVg1bgjG5EeD6L4_-63">
          <mxGeometry width="50" height="50" relative="1" as="geometry">
            <mxPoint x="760" y="645" as="sourcePoint" />
            <mxPoint x="615" y="625" as="targetPoint" />
          </mxGeometry>
        </mxCell>
        <mxCell id="F5F_wVg1bgjG5EeD6L4_-81" value="" style="endArrow=none;html=1;rounded=0;curved=1;entryX=0.5;entryY=0.5;entryDx=0;entryDy=0;entryPerimeter=0;exitX=1;exitY=0;exitDx=0;exitDy=0;" edge="1" parent="1" source="F5F_wVg1bgjG5EeD6L4_-4" target="F5F_wVg1bgjG5EeD6L4_-1">
          <mxGeometry width="50" height="50" relative="1" as="geometry">
            <mxPoint x="760" y="775" as="sourcePoint" />
            <mxPoint x="760" y="645" as="targetPoint" />
          </mxGeometry>
        </mxCell>
        <mxCell id="F5F_wVg1bgjG5EeD6L4_-82" value="Создать реферальную ссылку" style="ellipse;whiteSpace=wrap;html=1;" vertex="1" parent="1">
          <mxGeometry x="765" y="510" width="90" height="60" as="geometry" />
        </mxCell>
        <mxCell id="F5F_wVg1bgjG5EeD6L4_-83" value="" style="endArrow=none;html=1;rounded=0;curved=1;entryX=0.5;entryY=0.5;entryDx=0;entryDy=0;entryPerimeter=0;exitX=0;exitY=1;exitDx=0;exitDy=0;" edge="1" parent="1" source="F5F_wVg1bgjG5EeD6L4_-82" target="F5F_wVg1bgjG5EeD6L4_-1">
          <mxGeometry width="50" height="50" relative="1" as="geometry">
            <mxPoint x="851" y="625" as="sourcePoint" />
            <mxPoint x="760" y="645" as="targetPoint" />
          </mxGeometry>
        </mxCell>
      </root>
    </mxGraphModel>
  </diagram>
  <diagram name="Страница — 2" id="_qT7U-_Cj1w7ZBtQ2h4C">
    <mxGraphModel dx="1836" dy="985" grid="1" gridSize="10" guides="1" tooltips="1" connect="1" arrows="1" fold="1" page="1" pageScale="1" pageWidth="827" pageHeight="1169" math="0" shadow="0">
      <root>
        <mxCell id="0" />
        <mxCell id="1" parent="0" />
        <mxCell id="MRk2tVBlwkL3qwOUbJSp-1" value="Database" style="swimlane;fontStyle=1;align=center;verticalAlign=top;childLayout=stackLayout;horizontal=1;startSize=26;horizontalStack=0;resizeParent=1;resizeParentMax=0;resizeLast=0;collapsible=1;marginBottom=0;" parent="1" vertex="1">
          <mxGeometry x="570" y="80" width="340" height="160" as="geometry" />
        </mxCell>
        <mxCell id="MRk2tVBlwkL3qwOUbJSp-2" value="+database ID: int" style="text;strokeColor=none;fillColor=none;align=left;verticalAlign=top;spacingLeft=4;spacingRight=4;overflow=hidden;rotatable=0;points=[[0,0.5],[1,0.5]];portConstraint=eastwest;" parent="MRk2tVBlwkL3qwOUbJSp-1" vertex="1">
          <mxGeometry y="26" width="340" height="26" as="geometry" />
        </mxCell>
        <mxCell id="MRk2tVBlwkL3qwOUbJSp-3" value="" style="line;strokeWidth=1;fillColor=none;align=left;verticalAlign=middle;spacingTop=-1;spacingLeft=3;spacingRight=3;rotatable=0;labelPosition=right;points=[];portConstraint=eastwest;" parent="MRk2tVBlwkL3qwOUbJSp-1" vertex="1">
          <mxGeometry y="52" width="340" height="8" as="geometry" />
        </mxCell>
        <mxCell id="MRk2tVBlwkL3qwOUbJSp-4" value="+getClientInformationStorage(): String&#xa;+getClientContactInformationStorage(): String&#xa;+getClientPersonalInformationStorage(): String&#xa;+getMatchCatalogStorage(): String&#xa;+getMatchHistoryStorage(): String&#xa;+getAllPlayedAndLostBetsStorage(): String&#xa;" style="text;strokeColor=none;fillColor=none;align=left;verticalAlign=top;spacingLeft=4;spacingRight=4;overflow=hidden;rotatable=0;points=[[0,0.5],[1,0.5]];portConstraint=eastwest;" parent="MRk2tVBlwkL3qwOUbJSp-1" vertex="1">
          <mxGeometry y="60" width="340" height="100" as="geometry" />
        </mxCell>
        <mxCell id="MRk2tVBlwkL3qwOUbJSp-5" value="Create account" style="swimlane;fontStyle=0;childLayout=stackLayout;horizontal=1;startSize=26;fillColor=none;horizontalStack=0;resizeParent=1;resizeParentMax=0;resizeLast=0;collapsible=1;marginBottom=0;" parent="1" vertex="1">
          <mxGeometry x="260" y="740" width="240" height="80" as="geometry" />
        </mxCell>
        <mxCell id="MRk2tVBlwkL3qwOUbJSp-6" value="+enterPersonalInformation(): String&#xa;+enterContactInformation(): String&#xa;" style="text;strokeColor=#000000;fillColor=none;align=left;verticalAlign=top;spacingLeft=4;spacingRight=4;overflow=hidden;rotatable=0;points=[[0,0.5],[1,0.5]];portConstraint=eastwest;" parent="MRk2tVBlwkL3qwOUbJSp-5" vertex="1">
          <mxGeometry y="26" width="240" height="54" as="geometry" />
        </mxCell>
        <mxCell id="MRk2tVBlwkL3qwOUbJSp-7" value="Make bet" style="swimlane;fontStyle=0;childLayout=stackLayout;horizontal=1;startSize=26;fillColor=none;horizontalStack=0;resizeParent=1;resizeParentMax=0;resizeLast=0;collapsible=1;marginBottom=0;" parent="1" vertex="1">
          <mxGeometry x="820" y="676" width="210" height="110" as="geometry" />
        </mxCell>
        <mxCell id="MRk2tVBlwkL3qwOUbJSp-8" value="+selectMatch(): String&#xa;+selectTime(): String&#xa;+selectBetTypes(): String&#xa;+calculateOdds(): int&#xa;+startMatchStreaming(): String" style="text;strokeColor=#000000;fillColor=none;align=left;verticalAlign=top;spacingLeft=4;spacingRight=4;overflow=hidden;rotatable=0;points=[[0,0.5],[1,0.5]];portConstraint=eastwest;shadow=0;" parent="MRk2tVBlwkL3qwOUbJSp-7" vertex="1">
          <mxGeometry y="26" width="210" height="84" as="geometry" />
        </mxCell>
        <mxCell id="MRk2tVBlwkL3qwOUbJSp-9" value="Log in" style="swimlane;fontStyle=0;childLayout=stackLayout;horizontal=1;startSize=26;fillColor=none;horizontalStack=0;resizeParent=1;resizeParentMax=0;resizeLast=0;collapsible=1;marginBottom=0;" parent="1" vertex="1">
          <mxGeometry x="250" y="596" width="210" height="80" as="geometry" />
        </mxCell>
        <mxCell id="MRk2tVBlwkL3qwOUbJSp-10" value="+enterPassword(): String&#xa;+enterUsername(): String&#xa;+recoverAccount(): String&#xa;" style="text;strokeColor=#000000;fillColor=none;align=left;verticalAlign=top;spacingLeft=4;spacingRight=4;overflow=hidden;rotatable=0;points=[[0,0.5],[1,0.5]];portConstraint=eastwest;" parent="MRk2tVBlwkL3qwOUbJSp-9" vertex="1">
          <mxGeometry y="26" width="210" height="54" as="geometry" />
        </mxCell>
        <mxCell id="MRk2tVBlwkL3qwOUbJSp-11" value="Catalog" style="swimlane;fontStyle=0;childLayout=stackLayout;horizontal=1;startSize=26;fillColor=none;horizontalStack=0;resizeParent=1;resizeParentMax=0;resizeLast=0;collapsible=1;marginBottom=0;" parent="1" vertex="1">
          <mxGeometry x="590" y="600" width="160" height="130" as="geometry" />
        </mxCell>
        <mxCell id="MRk2tVBlwkL3qwOUbJSp-12" value="+matches: String&#xa;+streaming: String&#xa;+bettingOdds: int&#xa;" style="text;strokeColor=#000000;fillColor=none;align=left;verticalAlign=top;spacingLeft=4;spacingRight=4;overflow=hidden;rotatable=0;points=[[0,0.5],[1,0.5]];portConstraint=eastwest;" parent="MRk2tVBlwkL3qwOUbJSp-11" vertex="1">
          <mxGeometry y="26" width="160" height="54" as="geometry" />
        </mxCell>
        <mxCell id="MRk2tVBlwkL3qwOUbJSp-13" value="+modifyCatalog(): String&#xa;+addNewMatchToCatalog(): String" style="text;strokeColor=none;fillColor=none;align=left;verticalAlign=top;spacingLeft=4;spacingRight=4;overflow=hidden;rotatable=0;points=[[0,0.5],[1,0.5]];portConstraint=eastwest;" parent="MRk2tVBlwkL3qwOUbJSp-11" vertex="1">
          <mxGeometry y="80" width="160" height="50" as="geometry" />
        </mxCell>
        <mxCell id="MRk2tVBlwkL3qwOUbJSp-14" value="Match" style="swimlane;fontStyle=0;childLayout=stackLayout;horizontal=1;startSize=26;fillColor=none;horizontalStack=0;resizeParent=1;resizeParentMax=0;resizeLast=0;collapsible=1;marginBottom=0;" parent="1" vertex="1">
          <mxGeometry x="590" y="780" width="160" height="130" as="geometry" />
        </mxCell>
        <mxCell id="MRk2tVBlwkL3qwOUbJSp-15" value="+teamComposition: String&#xa;+description: String&#xa;+gameTime: int&#xa;+predictions: int" style="text;strokeColor=#000000;fillColor=none;align=left;verticalAlign=top;spacingLeft=4;spacingRight=4;overflow=hidden;rotatable=0;points=[[0,0.5],[1,0.5]];portConstraint=eastwest;" parent="MRk2tVBlwkL3qwOUbJSp-14" vertex="1">
          <mxGeometry y="26" width="160" height="74" as="geometry" />
        </mxCell>
        <mxCell id="MRk2tVBlwkL3qwOUbJSp-16" value="+updateCatalog(): String" style="text;strokeColor=none;fillColor=none;align=left;verticalAlign=top;spacingLeft=4;spacingRight=4;overflow=hidden;rotatable=0;points=[[0,0.5],[1,0.5]];portConstraint=eastwest;" parent="MRk2tVBlwkL3qwOUbJSp-14" vertex="1">
          <mxGeometry y="100" width="160" height="30" as="geometry" />
        </mxCell>
        <mxCell id="MRk2tVBlwkL3qwOUbJSp-17" value="Deposit" style="swimlane;fontStyle=0;childLayout=stackLayout;horizontal=1;startSize=26;fillColor=none;horizontalStack=0;resizeParent=1;resizeParentMax=0;resizeLast=0;collapsible=1;marginBottom=0;" parent="1" vertex="1">
          <mxGeometry x="880" y="830" width="180" height="70" as="geometry" />
        </mxCell>
        <mxCell id="MRk2tVBlwkL3qwOUbJSp-18" value="+depositMoney(): int&#xa;+enterPromoCode(): int&#xa;" style="text;strokeColor=#000000;fillColor=none;align=left;verticalAlign=top;spacingLeft=4;spacingRight=4;overflow=hidden;rotatable=0;points=[[0,0.5],[1,0.5]];portConstraint=eastwest;shadow=0;" parent="MRk2tVBlwkL3qwOUbJSp-17" vertex="1">
          <mxGeometry y="26" width="180" height="44" as="geometry" />
        </mxCell>
        <mxCell id="MRk2tVBlwkL3qwOUbJSp-19" value="User" style="swimlane;fontStyle=1;align=center;verticalAlign=top;childLayout=stackLayout;horizontal=1;startSize=26;horizontalStack=0;resizeParent=1;resizeParentMax=0;resizeLast=0;collapsible=1;marginBottom=0;" parent="1" vertex="1">
          <mxGeometry x="320" y="300" width="240" height="250" as="geometry" />
        </mxCell>
        <mxCell id="MRk2tVBlwkL3qwOUbJSp-20" value="+fullName: String&#xa;+passportData: int&#xa;+contactData: int&#xa;+email: String&#xa;+loginAndPassword: String&#xa;+dateOfBirth: int" style="text;strokeColor=none;fillColor=none;align=left;verticalAlign=top;spacingLeft=4;spacingRight=4;overflow=hidden;rotatable=0;points=[[0,0.5],[1,0.5]];portConstraint=eastwest;" parent="MRk2tVBlwkL3qwOUbJSp-19" vertex="1">
          <mxGeometry y="26" width="240" height="94" as="geometry" />
        </mxCell>
        <mxCell id="MRk2tVBlwkL3qwOUbJSp-21" value="" style="line;strokeWidth=1;fillColor=none;align=left;verticalAlign=middle;spacingTop=-1;spacingLeft=3;spacingRight=3;rotatable=0;labelPosition=right;points=[];portConstraint=eastwest;" parent="MRk2tVBlwkL3qwOUbJSp-19" vertex="1">
          <mxGeometry y="120" width="240" height="8" as="geometry" />
        </mxCell>
        <mxCell id="MRk2tVBlwkL3qwOUbJSp-22" value="+signInAccount(): String&#xa;+recoverAccount(): String&#xa;+createAccount(): String&#xa;+depositFunds(): int&#xa;+placeBet(): int&#xa;+closeBetEarly(): int&#xa;+createReferralLink(): String&#xa;+withdrawFunds(): int" style="text;strokeColor=none;fillColor=none;align=left;verticalAlign=top;spacingLeft=4;spacingRight=4;overflow=hidden;rotatable=0;points=[[0,0.5],[1,0.5]];portConstraint=eastwest;" parent="MRk2tVBlwkL3qwOUbJSp-19" vertex="1">
          <mxGeometry y="128" width="240" height="122" as="geometry" />
        </mxCell>
        <mxCell id="MRk2tVBlwkL3qwOUbJSp-23" value="Admin" style="swimlane;fontStyle=1;align=center;verticalAlign=top;childLayout=stackLayout;horizontal=1;startSize=26;horizontalStack=0;resizeParent=1;resizeParentMax=0;resizeLast=0;collapsible=1;marginBottom=0;" parent="1" vertex="1">
          <mxGeometry x="740" y="335" width="210" height="150" as="geometry" />
        </mxCell>
        <mxCell id="MRk2tVBlwkL3qwOUbJSp-24" value="+adminID: int&#xa;+changeCode: int" style="text;strokeColor=none;fillColor=none;align=left;verticalAlign=top;spacingLeft=4;spacingRight=4;overflow=hidden;rotatable=0;points=[[0,0.5],[1,0.5]];portConstraint=eastwest;" parent="MRk2tVBlwkL3qwOUbJSp-23" vertex="1">
          <mxGeometry y="26" width="210" height="34" as="geometry" />
        </mxCell>
        <mxCell id="MRk2tVBlwkL3qwOUbJSp-25" value="" style="line;strokeWidth=1;fillColor=none;align=left;verticalAlign=middle;spacingTop=-1;spacingLeft=3;spacingRight=3;rotatable=0;labelPosition=right;points=[];portConstraint=eastwest;" parent="MRk2tVBlwkL3qwOUbJSp-23" vertex="1">
          <mxGeometry y="60" width="210" height="8" as="geometry" />
        </mxCell>
        <mxCell id="MRk2tVBlwkL3qwOUbJSp-26" value="+addMatchToCatalog(): String&#xa;+calculatePayoutAmountForEarlyBetClosure(): int&#xa;+approveTransferOfFundsForAllPlayedBets(): String&#xa;+publishImportantNews(): String&#xa;+distributePromoCodesToUsers(): String" style="text;strokeColor=none;fillColor=none;align=left;verticalAlign=top;spacingLeft=4;spacingRight=4;overflow=hidden;rotatable=0;points=[[0,0.5],[1,0.5]];portConstraint=eastwest;" parent="MRk2tVBlwkL3qwOUbJSp-23" vertex="1">
          <mxGeometry y="68" width="210" height="82" as="geometry" />
        </mxCell>
        <mxCell id="MRk2tVBlwkL3qwOUbJSp-27" value="Add match to catalog" style="swimlane;fontStyle=0;childLayout=stackLayout;horizontal=1;startSize=26;fillColor=none;horizontalStack=0;resizeParent=1;resizeParentMax=0;resizeLast=0;collapsible=1;marginBottom=0;" parent="1" vertex="1">
          <mxGeometry x="590" y="950" width="160" height="76" as="geometry" />
        </mxCell>
        <mxCell id="MRk2tVBlwkL3qwOUbJSp-28" value="+modifyCatalog(): String&#xa;+addNewMatchToCatalog(): String" style="text;strokeColor=none;fillColor=none;align=left;verticalAlign=top;spacingLeft=4;spacingRight=4;overflow=hidden;rotatable=0;points=[[0,0.5],[1,0.5]];portConstraint=eastwest;" parent="MRk2tVBlwkL3qwOUbJSp-27" vertex="1">
          <mxGeometry y="26" width="160" height="50" as="geometry" />
        </mxCell>
        <mxCell id="MRk2tVBlwkL3qwOUbJSp-29" value="Money" style="swimlane;fontStyle=0;childLayout=stackLayout;horizontal=1;startSize=26;fillColor=none;horizontalStack=0;resizeParent=1;resizeParentMax=0;resizeLast=0;collapsible=1;marginBottom=0;" parent="1" vertex="1">
          <mxGeometry x="1150" y="850" width="160" height="50" as="geometry" />
        </mxCell>
        <mxCell id="MRk2tVBlwkL3qwOUbJSp-30" value="+moneyFunds: int; " style="text;strokeColor=#000000;fillColor=none;align=left;verticalAlign=top;spacingLeft=4;spacingRight=4;overflow=hidden;rotatable=0;points=[[0,0.5],[1,0.5]];portConstraint=eastwest;shadow=0;" parent="MRk2tVBlwkL3qwOUbJSp-29" vertex="1">
          <mxGeometry y="26" width="160" height="24" as="geometry" />
        </mxCell>
        <mxCell id="MRk2tVBlwkL3qwOUbJSp-31" value="Cash out" style="swimlane;fontStyle=0;childLayout=stackLayout;horizontal=1;startSize=26;fillColor=none;horizontalStack=0;resizeParent=1;resizeParentMax=0;resizeLast=0;collapsible=1;marginBottom=0;" parent="1" vertex="1">
          <mxGeometry x="880" y="950" width="240" height="70" as="geometry" />
        </mxCell>
        <mxCell id="MRk2tVBlwkL3qwOUbJSp-32" value="+closeBetEarly(): String&#xa;+withdrawMoneyFromSite(): String&#xa;" style="text;strokeColor=#000000;fillColor=none;align=left;verticalAlign=top;spacingLeft=4;spacingRight=4;overflow=hidden;rotatable=0;points=[[0,0.5],[1,0.5]];portConstraint=eastwest;shadow=0;" parent="MRk2tVBlwkL3qwOUbJSp-31" vertex="1">
          <mxGeometry y="26" width="240" height="44" as="geometry" />
        </mxCell>
        <mxCell id="MRk2tVBlwkL3qwOUbJSp-33" value="" style="endArrow=block;dashed=1;endFill=0;endSize=12;html=1;rounded=0;exitX=0;exitY=0.5;exitDx=0;exitDy=0;entryX=0.25;entryY=0;entryDx=0;entryDy=0;edgeStyle=orthogonalEdgeStyle;" parent="1" source="MRk2tVBlwkL3qwOUbJSp-20" target="MRk2tVBlwkL3qwOUbJSp-9" edge="1">
          <mxGeometry width="160" relative="1" as="geometry">
            <mxPoint x="780" y="590" as="sourcePoint" />
            <mxPoint x="960" y="813.9999999999998" as="targetPoint" />
            <Array as="points">
              <mxPoint x="303" y="373" />
              <mxPoint x="303" y="596" />
            </Array>
          </mxGeometry>
        </mxCell>
        <mxCell id="MRk2tVBlwkL3qwOUbJSp-34" value="" style="endArrow=block;dashed=1;endFill=0;endSize=12;html=1;rounded=0;exitX=-0.009;exitY=0.242;exitDx=0;exitDy=0;edgeStyle=orthogonalEdgeStyle;exitPerimeter=0;" parent="1" source="MRk2tVBlwkL3qwOUbJSp-20" edge="1">
          <mxGeometry width="160" relative="1" as="geometry">
            <mxPoint x="330" y="383" as="sourcePoint" />
            <mxPoint x="260" y="750" as="targetPoint" />
            <Array as="points">
              <mxPoint x="240" y="349" />
              <mxPoint x="240" y="750" />
            </Array>
          </mxGeometry>
        </mxCell>
        <mxCell id="MRk2tVBlwkL3qwOUbJSp-35" value="" style="endArrow=block;dashed=1;endFill=0;endSize=12;html=1;rounded=0;exitX=1.008;exitY=0.747;exitDx=0;exitDy=0;entryX=0.25;entryY=0;entryDx=0;entryDy=0;edgeStyle=orthogonalEdgeStyle;exitPerimeter=0;" parent="1" source="MRk2tVBlwkL3qwOUbJSp-20" target="MRk2tVBlwkL3qwOUbJSp-7" edge="1">
          <mxGeometry width="160" relative="1" as="geometry">
            <mxPoint x="1237.7900000000002" y="385.74800000000005" as="sourcePoint" />
            <mxPoint x="1139.95" y="810.0000000000002" as="targetPoint" />
            <Array as="points">
              <mxPoint x="670" y="396" />
              <mxPoint x="670" y="540" />
              <mxPoint x="873" y="540" />
            </Array>
          </mxGeometry>
        </mxCell>
        <mxCell id="MRk2tVBlwkL3qwOUbJSp-36" value="" style="endArrow=block;dashed=1;endFill=0;endSize=12;html=1;rounded=0;exitX=1.003;exitY=0.115;exitDx=0;exitDy=0;entryX=1;entryY=0.5;entryDx=0;entryDy=0;edgeStyle=orthogonalEdgeStyle;exitPerimeter=0;" parent="1" source="MRk2tVBlwkL3qwOUbJSp-26" target="MRk2tVBlwkL3qwOUbJSp-18" edge="1">
          <mxGeometry width="160" relative="1" as="geometry">
            <mxPoint x="1100" y="429" as="sourcePoint" />
            <mxPoint x="1070" y="888" as="targetPoint" />
            <Array as="points">
              <mxPoint x="1130" y="395" />
              <mxPoint x="1130" y="878" />
            </Array>
          </mxGeometry>
        </mxCell>
        <mxCell id="MRk2tVBlwkL3qwOUbJSp-37" value="" style="endArrow=diamondThin;endFill=1;endSize=24;html=1;rounded=0;exitX=0;exitY=0.5;exitDx=0;exitDy=0;edgeStyle=orthogonalEdgeStyle;entryX=1.017;entryY=0.913;entryDx=0;entryDy=0;entryPerimeter=0;" parent="1" source="MRk2tVBlwkL3qwOUbJSp-30" target="MRk2tVBlwkL3qwOUbJSp-18" edge="1">
          <mxGeometry width="160" relative="1" as="geometry">
            <mxPoint x="820" y="960.9999999999995" as="sourcePoint" />
            <mxPoint x="770" y="820" as="targetPoint" />
            <Array as="points">
              <mxPoint x="1150" y="896" />
            </Array>
          </mxGeometry>
        </mxCell>
        <mxCell id="MRk2tVBlwkL3qwOUbJSp-38" value="" style="endArrow=diamondThin;endFill=1;endSize=24;html=1;rounded=0;exitX=0.5;exitY=0;exitDx=0;exitDy=0;edgeStyle=orthogonalEdgeStyle;entryX=0.51;entryY=1.106;entryDx=0;entryDy=0;entryPerimeter=0;" parent="1" source="MRk2tVBlwkL3qwOUbJSp-14" target="MRk2tVBlwkL3qwOUbJSp-13" edge="1">
          <mxGeometry width="160" relative="1" as="geometry">
            <mxPoint x="576.94" y="830" as="sourcePoint" />
            <mxPoint x="490.00000000000045" y="838.1719999999998" as="targetPoint" />
            <Array as="points">
              <mxPoint x="672" y="780" />
            </Array>
          </mxGeometry>
        </mxCell>
        <mxCell id="MRk2tVBlwkL3qwOUbJSp-39" value="" style="endArrow=diamondThin;endFill=1;endSize=24;html=1;rounded=0;exitX=0;exitY=0.5;exitDx=0;exitDy=0;edgeStyle=orthogonalEdgeStyle;entryX=-0.001;entryY=0.306;entryDx=0;entryDy=0;entryPerimeter=0;" parent="1" source="MRk2tVBlwkL3qwOUbJSp-13" target="MRk2tVBlwkL3qwOUbJSp-28" edge="1">
          <mxGeometry width="160" relative="1" as="geometry">
            <mxPoint x="680" y="790" as="sourcePoint" />
            <mxPoint x="681.6000000000001" y="745.3000000000002" as="targetPoint" />
            <Array as="points">
              <mxPoint x="540" y="705" />
              <mxPoint x="540" y="991" />
            </Array>
          </mxGeometry>
        </mxCell>
        <mxCell id="MRk2tVBlwkL3qwOUbJSp-40" value="Extends" style="endArrow=block;endSize=16;endFill=0;html=1;rounded=0;entryX=1;entryY=0.5;entryDx=0;entryDy=0;exitX=0;exitY=0.5;exitDx=0;exitDy=0;" parent="1" source="MRk2tVBlwkL3qwOUbJSp-24" target="MRk2tVBlwkL3qwOUbJSp-20" edge="1">
          <mxGeometry width="160" relative="1" as="geometry">
            <mxPoint x="590" y="550" as="sourcePoint" />
            <mxPoint x="750" y="550" as="targetPoint" />
          </mxGeometry>
        </mxCell>
        <mxCell id="MRk2tVBlwkL3qwOUbJSp-41" value="" style="endArrow=classic;html=1;rounded=0;entryX=0.75;entryY=0;entryDx=0;entryDy=0;edgeStyle=orthogonalEdgeStyle;exitX=0;exitY=0.5;exitDx=0;exitDy=0;" parent="1" source="MRk2tVBlwkL3qwOUbJSp-26" target="MRk2tVBlwkL3qwOUbJSp-11" edge="1">
          <mxGeometry width="50" height="50" relative="1" as="geometry">
            <mxPoint x="670" y="1001.52" as="sourcePoint" />
            <mxPoint x="742.02" y="720" as="targetPoint" />
            <Array as="points">
              <mxPoint x="710" y="424" />
            </Array>
          </mxGeometry>
        </mxCell>
        <mxCell id="MRk2tVBlwkL3qwOUbJSp-42" value="" style="endArrow=classic;html=1;rounded=0;entryX=0.25;entryY=0;entryDx=0;entryDy=0;edgeStyle=orthogonalEdgeStyle;exitX=1;exitY=0.5;exitDx=0;exitDy=0;" parent="1" source="MRk2tVBlwkL3qwOUbJSp-22" target="MRk2tVBlwkL3qwOUbJSp-11" edge="1">
          <mxGeometry width="50" height="50" relative="1" as="geometry">
            <mxPoint x="730" y="931.52" as="sourcePoint" />
            <mxPoint x="802.02" y="650" as="targetPoint" />
            <Array as="points">
              <mxPoint x="630" y="474" />
            </Array>
          </mxGeometry>
        </mxCell>
        <mxCell id="MRk2tVBlwkL3qwOUbJSp-43" value="Use" style="endArrow=open;endSize=12;dashed=1;html=1;rounded=0;exitX=0;exitY=0.5;exitDx=0;exitDy=0;edgeStyle=orthogonalEdgeStyle;entryX=0.004;entryY=0.878;entryDx=0;entryDy=0;entryPerimeter=0;" parent="1" source="MRk2tVBlwkL3qwOUbJSp-4" target="MRk2tVBlwkL3qwOUbJSp-6" edge="1">
          <mxGeometry width="160" relative="1" as="geometry">
            <mxPoint x="710" y="270" as="sourcePoint" />
            <mxPoint x="210" y="830" as="targetPoint" />
            <Array as="points">
              <mxPoint x="220" y="190" />
              <mxPoint x="220" y="796" />
            </Array>
          </mxGeometry>
        </mxCell>
        <mxCell id="MRk2tVBlwkL3qwOUbJSp-44" value="Use" style="endArrow=open;endSize=12;dashed=1;html=1;rounded=0;exitX=0;exitY=0.5;exitDx=0;exitDy=0;edgeStyle=orthogonalEdgeStyle;" parent="1" source="MRk2tVBlwkL3qwOUbJSp-2" edge="1">
          <mxGeometry width="160" relative="1" as="geometry">
            <mxPoint x="200" y="630" as="sourcePoint" />
            <mxPoint x="270" y="597" as="targetPoint" />
            <Array as="points">
              <mxPoint x="570" y="150" />
              <mxPoint x="270" y="150" />
              <mxPoint x="270" y="597" />
            </Array>
          </mxGeometry>
        </mxCell>
        <mxCell id="MRk2tVBlwkL3qwOUbJSp-45" value="Use" style="endArrow=open;endSize=12;dashed=1;html=1;rounded=0;exitX=1;exitY=0.5;exitDx=0;exitDy=0;edgeStyle=orthogonalEdgeStyle;entryX=0.867;entryY=-0.007;entryDx=0;entryDy=0;entryPerimeter=0;" parent="1" source="MRk2tVBlwkL3qwOUbJSp-4" target="MRk2tVBlwkL3qwOUbJSp-7" edge="1">
          <mxGeometry x="-0.5312" width="160" relative="1" as="geometry">
            <mxPoint x="580" y="129" as="sourcePoint" />
            <mxPoint x="1080" y="484" as="targetPoint" />
            <Array as="points">
              <mxPoint x="1002" y="190" />
            </Array>
            <mxPoint y="1" as="offset" />
          </mxGeometry>
        </mxCell>
        <mxCell id="MRk2tVBlwkL3qwOUbJSp-46" value="Use" style="endArrow=open;endSize=12;dashed=1;html=1;rounded=0;exitX=1;exitY=0.5;exitDx=0;exitDy=0;edgeStyle=orthogonalEdgeStyle;entryX=1;entryY=0.5;entryDx=0;entryDy=0;" parent="1" source="MRk2tVBlwkL3qwOUbJSp-2" target="MRk2tVBlwkL3qwOUbJSp-32" edge="1">
          <mxGeometry width="160" relative="1" as="geometry">
            <mxPoint x="920" y="200" as="sourcePoint" />
            <mxPoint x="1012.0699999999997" y="714.2300000000002" as="targetPoint" />
            <Array as="points">
              <mxPoint x="1320" y="119" />
              <mxPoint x="1320" y="998" />
            </Array>
          </mxGeometry>
        </mxCell>
        <mxCell id="MRk2tVBlwkL3qwOUbJSp-47" value="" style="endArrow=diamondThin;endFill=1;endSize=24;html=1;rounded=0;edgeStyle=orthogonalEdgeStyle;entryX=1.013;entryY=0.028;entryDx=0;entryDy=0;entryPerimeter=0;" parent="1" source="MRk2tVBlwkL3qwOUbJSp-30" target="MRk2tVBlwkL3qwOUbJSp-32" edge="1">
          <mxGeometry width="160" relative="1" as="geometry">
            <mxPoint x="1160" y="898" as="sourcePoint" />
            <mxPoint x="1073.06" y="906.172" as="targetPoint" />
            <Array as="points">
              <mxPoint x="1209" y="977" />
            </Array>
          </mxGeometry>
        </mxCell>
      </root>
    </mxGraphModel>
  </diagram>
  <diagram name="Страница — 3" id="P9rQsp2Fj25iKYYU1oxt">
    <mxGraphModel grid="1" page="1" gridSize="10" guides="1" tooltips="1" connect="1" arrows="1" fold="1" pageScale="1" pageWidth="827" pageHeight="1169" math="0" shadow="0">
      <root>
        <mxCell id="0" />
        <mxCell id="1" parent="0" />
        <mxCell id="cQFcMFf0gcPbOVjoIgM5-1" value="" style="endArrow=none;dashed=1;html=1;rounded=0;entryX=0.5;entryY=0.5;entryDx=0;entryDy=0;entryPerimeter=0;" edge="1" parent="1">
          <mxGeometry width="50" height="50" relative="1" as="geometry">
            <mxPoint x="1481.8799999999999" y="1895" as="sourcePoint" />
            <mxPoint x="1488.1299999999999" y="135" as="targetPoint" />
          </mxGeometry>
        </mxCell>
        <mxCell id="cQFcMFf0gcPbOVjoIgM5-2" value="" style="endArrow=none;dashed=1;html=1;rounded=0;entryX=0.5;entryY=0.5;entryDx=0;entryDy=0;entryPerimeter=0;" edge="1" parent="1">
          <mxGeometry width="50" height="50" relative="1" as="geometry">
            <mxPoint x="1226.87" y="1895" as="sourcePoint" />
            <mxPoint x="1233.12" y="135" as="targetPoint" />
          </mxGeometry>
        </mxCell>
        <mxCell id="cQFcMFf0gcPbOVjoIgM5-3" value="" style="endArrow=none;dashed=1;html=1;rounded=0;entryX=0.5;entryY=0.5;entryDx=0;entryDy=0;entryPerimeter=0;" edge="1" parent="1">
          <mxGeometry width="50" height="50" relative="1" as="geometry">
            <mxPoint x="1071.8700000000001" y="1895" as="sourcePoint" />
            <mxPoint x="1078.1200000000001" y="135" as="targetPoint" />
          </mxGeometry>
        </mxCell>
        <mxCell id="cQFcMFf0gcPbOVjoIgM5-4" value="" style="endArrow=none;dashed=1;html=1;rounded=0;entryX=0.5;entryY=0.5;entryDx=0;entryDy=0;entryPerimeter=0;" edge="1" parent="1">
          <mxGeometry width="50" height="50" relative="1" as="geometry">
            <mxPoint x="861.8799999999999" y="1895" as="sourcePoint" />
            <mxPoint x="868.1299999999999" y="135" as="targetPoint" />
          </mxGeometry>
        </mxCell>
        <mxCell id="cQFcMFf0gcPbOVjoIgM5-5" value="" style="endArrow=none;dashed=1;html=1;rounded=0;entryX=0.5;entryY=0.5;entryDx=0;entryDy=0;entryPerimeter=0;" edge="1" parent="1">
          <mxGeometry width="50" height="50" relative="1" as="geometry">
            <mxPoint x="636.8700000000001" y="1880" as="sourcePoint" />
            <mxPoint x="643.1200000000001" y="120" as="targetPoint" />
          </mxGeometry>
        </mxCell>
        <mxCell id="cQFcMFf0gcPbOVjoIgM5-6" value="" style="endArrow=none;dashed=1;html=1;rounded=0;entryX=0.5;entryY=0.5;entryDx=0;entryDy=0;entryPerimeter=0;" edge="1" parent="1">
          <mxGeometry width="50" height="50" relative="1" as="geometry">
            <mxPoint x="456.8799999999999" y="1890" as="sourcePoint" />
            <mxPoint x="463.1299999999999" y="130" as="targetPoint" />
          </mxGeometry>
        </mxCell>
        <mxCell id="cQFcMFf0gcPbOVjoIgM5-7" value="" style="endArrow=none;dashed=1;html=1;rounded=0;entryX=0.5;entryY=0.5;entryDx=0;entryDy=0;entryPerimeter=0;" edge="1" parent="1">
          <mxGeometry width="50" height="50" relative="1" as="geometry">
            <mxPoint x="276.87" y="1890" as="sourcePoint" />
            <mxPoint x="283.12" y="130" as="targetPoint" />
          </mxGeometry>
        </mxCell>
        <mxCell id="cQFcMFf0gcPbOVjoIgM5-8" value="" style="endArrow=none;dashed=1;html=1;rounded=0;entryX=0.5;entryY=0.5;entryDx=0;entryDy=0;entryPerimeter=0;" edge="1" parent="1">
          <mxGeometry width="50" height="50" relative="1" as="geometry">
            <mxPoint x="96" y="1870" as="sourcePoint" />
            <mxPoint x="102.25" y="110" as="targetPoint" />
          </mxGeometry>
        </mxCell>
        <mxCell id="cQFcMFf0gcPbOVjoIgM5-9" value="Пользователь" style="shape=umlActor;verticalLabelPosition=bottom;verticalAlign=top;html=1;outlineConnect=0;" vertex="1" parent="1">
          <mxGeometry x="80" y="60" width="30" height="60" as="geometry" />
        </mxCell>
        <mxCell id="cQFcMFf0gcPbOVjoIgM5-10" value="Админ&lt;br&gt;сайта" style="ellipse;shape=umlControl;whiteSpace=wrap;html=1;" vertex="1" parent="1">
          <mxGeometry x="1450" y="60" width="70" height="80" as="geometry" />
        </mxCell>
        <mxCell id="cQFcMFf0gcPbOVjoIgM5-11" value="Каталог матчей" style="ellipse;shape=umlEntity;whiteSpace=wrap;html=1;" vertex="1" parent="1">
          <mxGeometry x="1040" y="65" width="70" height="70" as="geometry" />
        </mxCell>
        <mxCell id="cQFcMFf0gcPbOVjoIgM5-12" value="Форма регистрации&lt;br&gt;нового пользователя" style="shape=umlBoundary;whiteSpace=wrap;html=1;" vertex="1" parent="1">
          <mxGeometry x="422.5" y="70" width="75" height="60" as="geometry" />
        </mxCell>
        <mxCell id="cQFcMFf0gcPbOVjoIgM5-13" value="&lt;span style=&quot;text-align: center&quot;&gt;Ввести логин&lt;/span&gt;" style="text;whiteSpace=wrap;html=1;" vertex="1" parent="1">
          <mxGeometry x="115" y="490" width="110" height="20" as="geometry" />
        </mxCell>
        <mxCell id="cQFcMFf0gcPbOVjoIgM5-14" value="&lt;span&gt;Создание аккаунта&lt;/span&gt;" style="text;html=1;align=center;verticalAlign=middle;resizable=0;points=[];autosize=1;strokeColor=none;fillColor=none;" vertex="1" parent="1">
          <mxGeometry x="110" y="380" width="120" height="20" as="geometry" />
        </mxCell>
        <mxCell id="cQFcMFf0gcPbOVjoIgM5-15" value="Переход на сайт" style="text;html=1;align=center;verticalAlign=middle;resizable=0;points=[];autosize=1;strokeColor=none;fillColor=none;" vertex="1" parent="1">
          <mxGeometry x="130" y="200" width="110" height="20" as="geometry" />
        </mxCell>
        <mxCell id="cQFcMFf0gcPbOVjoIgM5-16" style="edgeStyle=orthogonalEdgeStyle;rounded=0;orthogonalLoop=1;jettySize=auto;html=1;exitX=1;exitY=0.5;exitDx=0;exitDy=0;entryX=-0.041;entryY=0.335;entryDx=0;entryDy=0;entryPerimeter=0;" edge="1" parent="1" source="cQFcMFf0gcPbOVjoIgM5-17" target="cQFcMFf0gcPbOVjoIgM5-21">
          <mxGeometry relative="1" as="geometry">
            <mxPoint x="260" y="220" as="targetPoint" />
          </mxGeometry>
        </mxCell>
        <mxCell id="cQFcMFf0gcPbOVjoIgM5-17" value="" style="rounded=0;whiteSpace=wrap;html=1;" vertex="1" parent="1">
          <mxGeometry x="90" y="190" width="20" height="60" as="geometry" />
        </mxCell>
        <mxCell id="cQFcMFf0gcPbOVjoIgM5-18" style="edgeStyle=orthogonalEdgeStyle;rounded=0;orthogonalLoop=1;jettySize=auto;html=1;exitX=1;exitY=0.25;exitDx=0;exitDy=0;entryX=-0.207;entryY=0.062;entryDx=0;entryDy=0;entryPerimeter=0;" edge="1" parent="1">
          <mxGeometry relative="1" as="geometry">
            <Array as="points">
              <mxPoint x="110" y="402" />
            </Array>
            <mxPoint x="110" y="410" as="sourcePoint" />
            <mxPoint x="445.8600000000001" y="401.81999999999994" as="targetPoint" />
          </mxGeometry>
        </mxCell>
        <mxCell id="cQFcMFf0gcPbOVjoIgM5-19" style="edgeStyle=orthogonalEdgeStyle;rounded=0;orthogonalLoop=1;jettySize=auto;html=1;exitX=1;exitY=0.75;exitDx=0;exitDy=0;" edge="1" parent="1">
          <mxGeometry relative="1" as="geometry">
            <Array as="points">
              <mxPoint x="370" y="519.71" />
              <mxPoint x="370" y="519.71" />
            </Array>
            <mxPoint x="110" y="519.7099999999998" as="sourcePoint" />
            <mxPoint x="620" y="519.9999999999998" as="targetPoint" />
          </mxGeometry>
        </mxCell>
        <mxCell id="cQFcMFf0gcPbOVjoIgM5-20" value="" style="rounded=0;whiteSpace=wrap;html=1;" vertex="1" parent="1">
          <mxGeometry x="90" y="290" width="20" height="140" as="geometry" />
        </mxCell>
        <mxCell id="cQFcMFf0gcPbOVjoIgM5-21" value="" style="rounded=0;whiteSpace=wrap;html=1;" vertex="1" parent="1">
          <mxGeometry x="270" y="190" width="20" height="90" as="geometry" />
        </mxCell>
        <mxCell id="cQFcMFf0gcPbOVjoIgM5-22" style="edgeStyle=orthogonalEdgeStyle;rounded=0;orthogonalLoop=1;jettySize=auto;html=1;exitX=1.08;exitY=0.081;exitDx=0;exitDy=0;exitPerimeter=0;" edge="1" parent="1">
          <mxGeometry relative="1" as="geometry">
            <mxPoint x="471.5999999999999" y="408.90999999999985" as="sourcePoint" />
            <mxPoint x="472" y="439.9999999999998" as="targetPoint" />
            <Array as="points">
              <mxPoint x="520" y="409" />
              <mxPoint x="520" y="440" />
            </Array>
          </mxGeometry>
        </mxCell>
        <mxCell id="cQFcMFf0gcPbOVjoIgM5-23" value="Проверка &lt;br&gt;пользователя" style="text;html=1;align=center;verticalAlign=middle;resizable=0;points=[];autosize=1;strokeColor=none;fillColor=none;" vertex="1" parent="1">
          <mxGeometry x="470" y="380" width="90" height="30" as="geometry" />
        </mxCell>
        <mxCell id="cQFcMFf0gcPbOVjoIgM5-24" style="edgeStyle=orthogonalEdgeStyle;rounded=0;orthogonalLoop=1;jettySize=auto;html=1;exitX=1.08;exitY=0.694;exitDx=0;exitDy=0;exitPerimeter=0;entryX=1;entryY=0.474;entryDx=0;entryDy=0;entryPerimeter=0;" edge="1" parent="1" target="cQFcMFf0gcPbOVjoIgM5-36">
          <mxGeometry relative="1" as="geometry">
            <Array as="points">
              <mxPoint x="720" y="576" />
              <mxPoint x="720" y="590" />
            </Array>
            <mxPoint x="651.5999999999999" y="576.3399999999999" as="sourcePoint" />
            <mxPoint x="660" y="590" as="targetPoint" />
          </mxGeometry>
        </mxCell>
        <mxCell id="cQFcMFf0gcPbOVjoIgM5-25" value="Проверка&lt;br&gt;логина и пароля" style="text;html=1;align=center;verticalAlign=middle;resizable=0;points=[];autosize=1;strokeColor=none;fillColor=none;" vertex="1" parent="1">
          <mxGeometry x="650" y="535" width="110" height="30" as="geometry" />
        </mxCell>
        <mxCell id="cQFcMFf0gcPbOVjoIgM5-26" value="" style="rounded=0;whiteSpace=wrap;html=1;" vertex="1" parent="1">
          <mxGeometry x="450" y="300" width="20" height="150" as="geometry" />
        </mxCell>
        <mxCell id="cQFcMFf0gcPbOVjoIgM5-27" style="edgeStyle=orthogonalEdgeStyle;rounded=0;orthogonalLoop=1;jettySize=auto;html=1;exitX=1;exitY=0.25;exitDx=0;exitDy=0;entryX=-0.207;entryY=0.062;entryDx=0;entryDy=0;entryPerimeter=0;" edge="1" parent="1">
          <mxGeometry relative="1" as="geometry">
            <Array as="points">
              <mxPoint x="110" y="317" />
            </Array>
            <mxPoint x="110" y="315" as="sourcePoint" />
            <mxPoint x="445.8600000000001" y="316.81999999999994" as="targetPoint" />
          </mxGeometry>
        </mxCell>
        <mxCell id="cQFcMFf0gcPbOVjoIgM5-28" value="Прикрепить необходимые документы" style="text;whiteSpace=wrap;html=1;" vertex="1" parent="1">
          <mxGeometry x="115" y="290" width="240" height="30" as="geometry" />
        </mxCell>
        <mxCell id="cQFcMFf0gcPbOVjoIgM5-29" style="edgeStyle=orthogonalEdgeStyle;rounded=0;orthogonalLoop=1;jettySize=auto;html=1;exitX=1;exitY=0.25;exitDx=0;exitDy=0;entryX=-0.207;entryY=0.062;entryDx=0;entryDy=0;entryPerimeter=0;" edge="1" parent="1">
          <mxGeometry relative="1" as="geometry">
            <Array as="points">
              <mxPoint x="110" y="357" />
            </Array>
            <mxPoint x="110" y="355" as="sourcePoint" />
            <mxPoint x="445.8600000000001" y="356.81999999999994" as="targetPoint" />
          </mxGeometry>
        </mxCell>
        <mxCell id="cQFcMFf0gcPbOVjoIgM5-30" value="&lt;span style=&quot;color: rgb(0, 0, 0); font-family: helvetica; font-size: 12px; font-style: normal; font-weight: 400; letter-spacing: normal; text-align: center; text-indent: 0px; text-transform: none; word-spacing: 0px; background-color: rgb(248, 249, 250); display: inline; float: none;&quot;&gt;Заполнить информацию о себе&lt;/span&gt;" style="text;whiteSpace=wrap;html=1;" vertex="1" parent="1">
          <mxGeometry x="115" y="335" width="200" height="30" as="geometry" />
        </mxCell>
        <mxCell id="cQFcMFf0gcPbOVjoIgM5-31" value="" style="rounded=0;whiteSpace=wrap;html=1;" vertex="1" parent="1">
          <mxGeometry x="90" y="490" width="20" height="190" as="geometry" />
        </mxCell>
        <mxCell id="cQFcMFf0gcPbOVjoIgM5-32" style="edgeStyle=orthogonalEdgeStyle;rounded=0;orthogonalLoop=1;jettySize=auto;html=1;exitX=1;exitY=0.75;exitDx=0;exitDy=0;" edge="1" parent="1">
          <mxGeometry relative="1" as="geometry">
            <Array as="points">
              <mxPoint x="371.02" y="570" />
              <mxPoint x="371.02" y="570" />
            </Array>
            <mxPoint x="111.0200000000001" y="569.9999999999998" as="sourcePoint" />
            <mxPoint x="620" y="569.9999999999998" as="targetPoint" />
          </mxGeometry>
        </mxCell>
        <mxCell id="cQFcMFf0gcPbOVjoIgM5-33" value="&lt;span style=&quot;color: rgb(0, 0, 0); font-family: helvetica; font-size: 12px; font-style: normal; font-weight: 400; letter-spacing: normal; text-align: center; text-indent: 0px; text-transform: none; word-spacing: 0px; background-color: rgb(248, 249, 250); display: inline; float: none;&quot;&gt;Ввести пароль&lt;/span&gt;" style="text;whiteSpace=wrap;html=1;" vertex="1" parent="1">
          <mxGeometry x="115" y="545" width="110" height="30" as="geometry" />
        </mxCell>
        <mxCell id="cQFcMFf0gcPbOVjoIgM5-34" style="edgeStyle=orthogonalEdgeStyle;rounded=0;orthogonalLoop=1;jettySize=auto;html=1;exitX=1;exitY=0.75;exitDx=0;exitDy=0;" edge="1" parent="1">
          <mxGeometry relative="1" as="geometry">
            <Array as="points">
              <mxPoint x="370" y="620" />
              <mxPoint x="370" y="620" />
            </Array>
            <mxPoint x="109.99999999999989" y="619.9999999999998" as="sourcePoint" />
            <mxPoint x="620" y="619.9999999999998" as="targetPoint" />
          </mxGeometry>
        </mxCell>
        <mxCell id="cQFcMFf0gcPbOVjoIgM5-35" value="&lt;span style=&quot;color: rgb(0, 0, 0); font-family: helvetica; font-size: 12px; font-style: normal; font-weight: 400; letter-spacing: normal; text-align: center; text-indent: 0px; text-transform: none; word-spacing: 0px; background-color: rgb(248, 249, 250); display: inline; float: none;&quot;&gt;Востановить аккаунт&lt;/span&gt;" style="text;whiteSpace=wrap;html=1;" vertex="1" parent="1">
          <mxGeometry x="115" y="590" width="140" height="30" as="geometry" />
        </mxCell>
        <mxCell id="cQFcMFf0gcPbOVjoIgM5-36" value="" style="rounded=0;whiteSpace=wrap;html=1;" vertex="1" parent="1">
          <mxGeometry x="630" y="500" width="20" height="190" as="geometry" />
        </mxCell>
        <mxCell id="cQFcMFf0gcPbOVjoIgM5-37" style="edgeStyle=orthogonalEdgeStyle;rounded=0;orthogonalLoop=1;jettySize=auto;html=1;exitX=1;exitY=0.75;exitDx=0;exitDy=0;" edge="1" parent="1">
          <mxGeometry relative="1" as="geometry">
            <Array as="points">
              <mxPoint x="620" y="665" />
            </Array>
            <mxPoint x="109.99999999999989" y="664.9999999999998" as="sourcePoint" />
            <mxPoint x="620" y="664.9999999999998" as="targetPoint" />
          </mxGeometry>
        </mxCell>
        <mxCell id="cQFcMFf0gcPbOVjoIgM5-38" value="&lt;span style=&quot;color: rgb(0, 0, 0); font-family: helvetica; font-size: 12px; font-style: normal; font-weight: 400; letter-spacing: normal; text-align: center; text-indent: 0px; text-transform: none; word-spacing: 0px; background-color: rgb(248, 249, 250); display: inline; float: none;&quot;&gt;Войти в аккаунт&lt;/span&gt;" style="text;whiteSpace=wrap;html=1;" vertex="1" parent="1">
          <mxGeometry x="115" y="635" width="110" height="30" as="geometry" />
        </mxCell>
        <mxCell id="cQFcMFf0gcPbOVjoIgM5-39" value="Сайт" style="rounded=0;whiteSpace=wrap;html=1;" vertex="1" parent="1">
          <mxGeometry x="220" y="70" width="120" height="60" as="geometry" />
        </mxCell>
        <mxCell id="cQFcMFf0gcPbOVjoIgM5-40" value="Форма входа в аккаунт пользователя" style="shape=umlBoundary;whiteSpace=wrap;html=1;" vertex="1" parent="1">
          <mxGeometry x="602.5" y="70" width="75" height="60" as="geometry" />
        </mxCell>
        <mxCell id="cQFcMFf0gcPbOVjoIgM5-41" value="Ставка" style="ellipse;shape=umlEntity;whiteSpace=wrap;html=1;" vertex="1" parent="1">
          <mxGeometry x="1195" y="65" width="70" height="70" as="geometry" />
        </mxCell>
        <mxCell id="cQFcMFf0gcPbOVjoIgM5-42" value="Счет" style="ellipse;shape=umlEntity;whiteSpace=wrap;html=1;" vertex="1" parent="1">
          <mxGeometry x="830" y="65" width="70" height="70" as="geometry" />
        </mxCell>
        <mxCell id="cQFcMFf0gcPbOVjoIgM5-43" value="&lt;span style=&quot;color: rgb(0, 0, 0); font-family: helvetica; font-size: 12px; font-style: normal; font-weight: 400; letter-spacing: normal; text-align: center; text-indent: 0px; text-transform: none; word-spacing: 0px; background-color: rgb(248, 249, 250); display: inline; float: none;&quot;&gt;Внести деньги с карты&lt;/span&gt;" style="text;whiteSpace=wrap;html=1;" vertex="1" parent="1">
          <mxGeometry x="160" y="750" width="150" height="30" as="geometry" />
        </mxCell>
        <mxCell id="cQFcMFf0gcPbOVjoIgM5-44" value="&lt;span style=&quot;color: rgb(0, 0, 0); font-family: helvetica; font-size: 12px; font-style: normal; font-weight: 400; letter-spacing: normal; text-align: center; text-indent: 0px; text-transform: none; word-spacing: 0px; background-color: rgb(248, 249, 250); display: inline; float: none;&quot;&gt;Ввести промокод&lt;/span&gt;" style="text;whiteSpace=wrap;html=1;" vertex="1" parent="1">
          <mxGeometry x="160" y="800" width="120" height="30" as="geometry" />
        </mxCell>
        <mxCell id="cQFcMFf0gcPbOVjoIgM5-45" value="&lt;span style=&quot;color: rgb(0, 0, 0); font-family: helvetica; font-size: 12px; font-style: normal; font-weight: 400; letter-spacing: normal; text-align: center; text-indent: 0px; text-transform: none; word-spacing: 0px; background-color: rgb(248, 249, 250); display: inline; float: none;&quot;&gt;Получить бонусные средства&lt;/span&gt;" style="text;whiteSpace=wrap;html=1;" vertex="1" parent="1">
          <mxGeometry x="160" y="860" width="190" height="30" as="geometry" />
        </mxCell>
        <mxCell id="cQFcMFf0gcPbOVjoIgM5-46" value="&lt;span style=&quot;color: rgb(0, 0, 0); font-family: helvetica; font-size: 12px; font-style: normal; font-weight: 400; letter-spacing: normal; text-align: center; text-indent: 0px; text-transform: none; word-spacing: 0px; background-color: rgb(248, 249, 250); display: inline; float: none;&quot;&gt;Внести денежные средства на сайт&lt;/span&gt;" style="text;whiteSpace=wrap;html=1;" vertex="1" parent="1">
          <mxGeometry x="160" y="920" width="220" height="30" as="geometry" />
        </mxCell>
        <mxCell id="cQFcMFf0gcPbOVjoIgM5-47" value="&lt;span style=&quot;color: rgb(0, 0, 0); font-family: helvetica; font-size: 12px; font-style: normal; font-weight: 400; letter-spacing: normal; text-align: center; text-indent: 0px; text-transform: none; word-spacing: 0px; background-color: rgb(248, 249, 250); display: inline; float: none;&quot;&gt;Сделать ставку&lt;/span&gt;" style="text;whiteSpace=wrap;html=1;" vertex="1" parent="1">
          <mxGeometry x="160" y="1090" width="110" height="30" as="geometry" />
        </mxCell>
        <mxCell id="cQFcMFf0gcPbOVjoIgM5-48" value="&lt;span style=&quot;color: rgb(0, 0, 0); font-family: helvetica; font-size: 12px; font-style: normal; font-weight: 400; letter-spacing: normal; text-align: center; text-indent: 0px; text-transform: none; word-spacing: 0px; background-color: rgb(248, 249, 250); display: inline; float: none;&quot;&gt;Выбрать футбольный матч&lt;/span&gt;" style="text;whiteSpace=wrap;html=1;" vertex="1" parent="1">
          <mxGeometry x="160" y="1150" width="180" height="30" as="geometry" />
        </mxCell>
        <mxCell id="cQFcMFf0gcPbOVjoIgM5-49" value="&lt;span style=&quot;color: rgb(0, 0, 0); font-family: helvetica; font-size: 12px; font-style: normal; font-weight: 400; letter-spacing: normal; text-align: center; text-indent: 0px; text-transform: none; word-spacing: 0px; background-color: rgb(248, 249, 250); display: inline; float: none;&quot;&gt;Выбрать тип ставки&lt;/span&gt;" style="text;whiteSpace=wrap;html=1;" vertex="1" parent="1">
          <mxGeometry x="160" y="1210" width="140" height="30" as="geometry" />
        </mxCell>
        <mxCell id="cQFcMFf0gcPbOVjoIgM5-50" value="&lt;span style=&quot;color: rgb(0, 0, 0); font-family: helvetica; font-size: 12px; font-style: normal; font-weight: 400; letter-spacing: normal; text-align: center; text-indent: 0px; text-transform: none; word-spacing: 0px; background-color: rgb(248, 249, 250); display: inline; float: none;&quot;&gt;Выбрать команду&lt;/span&gt;" style="text;whiteSpace=wrap;html=1;" vertex="1" parent="1">
          <mxGeometry x="160" y="1270" width="120" height="30" as="geometry" />
        </mxCell>
        <mxCell id="cQFcMFf0gcPbOVjoIgM5-51" value="Выбрать сумму ставки" style="text;whiteSpace=wrap;html=1;" vertex="1" parent="1">
          <mxGeometry x="160" y="1330" width="150" height="30" as="geometry" />
        </mxCell>
        <mxCell id="cQFcMFf0gcPbOVjoIgM5-52" value="&lt;span style=&quot;color: rgb(0, 0, 0); font-family: helvetica; font-size: 12px; font-style: normal; font-weight: 400; letter-spacing: normal; text-align: center; text-indent: 0px; text-transform: none; word-spacing: 0px; background-color: rgb(248, 249, 250); display: inline; float: none;&quot;&gt;Закрыть ставку раньше&lt;/span&gt;" style="text;whiteSpace=wrap;html=1;" vertex="1" parent="1">
          <mxGeometry x="160" y="1560" width="160" height="30" as="geometry" />
        </mxCell>
        <mxCell id="cQFcMFf0gcPbOVjoIgM5-53" value="&lt;span style=&quot;color: rgb(0, 0, 0); font-family: helvetica; font-size: 12px; font-style: normal; font-weight: 400; letter-spacing: normal; text-align: center; text-indent: 0px; text-transform: none; word-spacing: 0px; background-color: rgb(248, 249, 250); display: inline; float: none;&quot;&gt;Вывести денежные средства с сайта&lt;/span&gt;" style="text;whiteSpace=wrap;html=1;" vertex="1" parent="1">
          <mxGeometry x="160" y="1754" width="230" height="30" as="geometry" />
        </mxCell>
        <mxCell id="cQFcMFf0gcPbOVjoIgM5-54" value="&lt;span style=&quot;color: rgb(0 , 0 , 0) ; font-family: &amp;#34;helvetica&amp;#34; ; font-size: 12px ; font-style: normal ; font-weight: 400 ; letter-spacing: normal ; text-align: center ; text-indent: 0px ; text-transform: none ; word-spacing: 0px ; background-color: rgb(248 , 249 , 250) ; display: inline ; float: none&quot;&gt;Дождаться пока ставка сыграет&lt;/span&gt;" style="text;whiteSpace=wrap;html=1;" vertex="1" parent="1">
          <mxGeometry x="160" y="1610" width="200" height="30" as="geometry" />
        </mxCell>
        <mxCell id="cQFcMFf0gcPbOVjoIgM5-55" value="" style="rounded=0;whiteSpace=wrap;html=1;" vertex="1" parent="1">
          <mxGeometry x="90" y="730" width="20" height="280" as="geometry" />
        </mxCell>
        <mxCell id="cQFcMFf0gcPbOVjoIgM5-56" value="" style="rounded=0;whiteSpace=wrap;html=1;" vertex="1" parent="1">
          <mxGeometry x="90" y="1070" width="20" height="380" as="geometry" />
        </mxCell>
        <mxCell id="cQFcMFf0gcPbOVjoIgM5-57" value="" style="rounded=0;whiteSpace=wrap;html=1;" vertex="1" parent="1">
          <mxGeometry x="90" y="1530" width="20" height="280" as="geometry" />
        </mxCell>
        <mxCell id="cQFcMFf0gcPbOVjoIgM5-58" value="" style="rounded=0;whiteSpace=wrap;html=1;" vertex="1" parent="1">
          <mxGeometry x="855" y="710" width="20" height="280" as="geometry" />
        </mxCell>
        <mxCell id="cQFcMFf0gcPbOVjoIgM5-59" value="" style="rounded=0;whiteSpace=wrap;html=1;" vertex="1" parent="1">
          <mxGeometry x="1065" y="1070" width="20" height="380" as="geometry" />
        </mxCell>
        <mxCell id="cQFcMFf0gcPbOVjoIgM5-60" style="edgeStyle=orthogonalEdgeStyle;rounded=0;orthogonalLoop=1;jettySize=auto;html=1;exitX=1;exitY=0.5;exitDx=0;exitDy=0;entryX=0;entryY=0.5;entryDx=0;entryDy=0;" edge="1" parent="1" source="cQFcMFf0gcPbOVjoIgM5-61" target="cQFcMFf0gcPbOVjoIgM5-75">
          <mxGeometry relative="1" as="geometry" />
        </mxCell>
        <mxCell id="cQFcMFf0gcPbOVjoIgM5-61" value="" style="rounded=0;whiteSpace=wrap;html=1;" vertex="1" parent="1">
          <mxGeometry x="1220" y="1540" width="20" height="140" as="geometry" />
        </mxCell>
        <mxCell id="cQFcMFf0gcPbOVjoIgM5-62" value="" style="rounded=0;whiteSpace=wrap;html=1;" vertex="1" parent="1">
          <mxGeometry x="855" y="1720" width="20" height="120" as="geometry" />
        </mxCell>
        <mxCell id="cQFcMFf0gcPbOVjoIgM5-63" style="edgeStyle=orthogonalEdgeStyle;rounded=0;orthogonalLoop=1;jettySize=auto;html=1;exitX=1;exitY=0.75;exitDx=0;exitDy=0;" edge="1" parent="1">
          <mxGeometry relative="1" as="geometry">
            <Array as="points">
              <mxPoint x="620" y="780" />
            </Array>
            <mxPoint x="109.99999999999989" y="779.9999999999998" as="sourcePoint" />
            <mxPoint x="850" y="780" as="targetPoint" />
          </mxGeometry>
        </mxCell>
        <mxCell id="cQFcMFf0gcPbOVjoIgM5-64" style="edgeStyle=orthogonalEdgeStyle;rounded=0;orthogonalLoop=1;jettySize=auto;html=1;exitX=1;exitY=0.75;exitDx=0;exitDy=0;" edge="1" parent="1">
          <mxGeometry relative="1" as="geometry">
            <Array as="points">
              <mxPoint x="620" y="830" />
            </Array>
            <mxPoint x="110" y="829.9999999999998" as="sourcePoint" />
            <mxPoint x="850" y="829.9999999999998" as="targetPoint" />
          </mxGeometry>
        </mxCell>
        <mxCell id="cQFcMFf0gcPbOVjoIgM5-65" style="edgeStyle=orthogonalEdgeStyle;rounded=0;orthogonalLoop=1;jettySize=auto;html=1;exitX=1;exitY=0.75;exitDx=0;exitDy=0;" edge="1" parent="1">
          <mxGeometry relative="1" as="geometry">
            <Array as="points">
              <mxPoint x="620" y="890" />
            </Array>
            <mxPoint x="110" y="890" as="sourcePoint" />
            <mxPoint x="850" y="890" as="targetPoint" />
          </mxGeometry>
        </mxCell>
        <mxCell id="cQFcMFf0gcPbOVjoIgM5-66" style="edgeStyle=orthogonalEdgeStyle;rounded=0;orthogonalLoop=1;jettySize=auto;html=1;exitX=1;exitY=0.75;exitDx=0;exitDy=0;" edge="1" parent="1">
          <mxGeometry relative="1" as="geometry">
            <Array as="points">
              <mxPoint x="620" y="950" />
            </Array>
            <mxPoint x="110" y="950" as="sourcePoint" />
            <mxPoint x="850" y="950" as="targetPoint" />
          </mxGeometry>
        </mxCell>
        <mxCell id="cQFcMFf0gcPbOVjoIgM5-67" style="edgeStyle=orthogonalEdgeStyle;rounded=0;orthogonalLoop=1;jettySize=auto;html=1;exitX=1;exitY=0.75;exitDx=0;exitDy=0;" edge="1" parent="1">
          <mxGeometry relative="1" as="geometry">
            <Array as="points">
              <mxPoint x="620" y="1118.46" />
            </Array>
            <mxPoint x="110" y="1118.46" as="sourcePoint" />
            <mxPoint x="1050" y="1118" as="targetPoint" />
          </mxGeometry>
        </mxCell>
        <mxCell id="cQFcMFf0gcPbOVjoIgM5-68" style="edgeStyle=orthogonalEdgeStyle;rounded=0;orthogonalLoop=1;jettySize=auto;html=1;exitX=1;exitY=0.75;exitDx=0;exitDy=0;" edge="1" parent="1">
          <mxGeometry relative="1" as="geometry">
            <Array as="points">
              <mxPoint x="620" y="1180.46" />
            </Array>
            <mxPoint x="110" y="1180.46" as="sourcePoint" />
            <mxPoint x="1050" y="1180" as="targetPoint" />
          </mxGeometry>
        </mxCell>
        <mxCell id="cQFcMFf0gcPbOVjoIgM5-69" style="edgeStyle=orthogonalEdgeStyle;rounded=0;orthogonalLoop=1;jettySize=auto;html=1;exitX=1;exitY=0.75;exitDx=0;exitDy=0;" edge="1" parent="1">
          <mxGeometry relative="1" as="geometry">
            <Array as="points">
              <mxPoint x="620" y="1240.46" />
            </Array>
            <mxPoint x="110" y="1240.46" as="sourcePoint" />
            <mxPoint x="1050" y="1240" as="targetPoint" />
          </mxGeometry>
        </mxCell>
        <mxCell id="cQFcMFf0gcPbOVjoIgM5-70" style="edgeStyle=orthogonalEdgeStyle;rounded=0;orthogonalLoop=1;jettySize=auto;html=1;exitX=1;exitY=0.75;exitDx=0;exitDy=0;" edge="1" parent="1">
          <mxGeometry relative="1" as="geometry">
            <Array as="points">
              <mxPoint x="620" y="1300.46" />
            </Array>
            <mxPoint x="110" y="1300.46" as="sourcePoint" />
            <mxPoint x="1050" y="1300" as="targetPoint" />
          </mxGeometry>
        </mxCell>
        <mxCell id="cQFcMFf0gcPbOVjoIgM5-71" style="edgeStyle=orthogonalEdgeStyle;rounded=0;orthogonalLoop=1;jettySize=auto;html=1;exitX=1;exitY=0.75;exitDx=0;exitDy=0;" edge="1" parent="1">
          <mxGeometry relative="1" as="geometry">
            <Array as="points">
              <mxPoint x="620" y="1360.46" />
            </Array>
            <mxPoint x="110" y="1360.46" as="sourcePoint" />
            <mxPoint x="1050" y="1360" as="targetPoint" />
          </mxGeometry>
        </mxCell>
        <mxCell id="cQFcMFf0gcPbOVjoIgM5-72" style="edgeStyle=orthogonalEdgeStyle;rounded=0;orthogonalLoop=1;jettySize=auto;html=1;exitX=1;exitY=0.75;exitDx=0;exitDy=0;" edge="1" parent="1">
          <mxGeometry relative="1" as="geometry">
            <Array as="points">
              <mxPoint x="620" y="1790.46" />
            </Array>
            <mxPoint x="110" y="1790.46" as="sourcePoint" />
            <mxPoint x="850" y="1790" as="targetPoint" />
          </mxGeometry>
        </mxCell>
        <mxCell id="cQFcMFf0gcPbOVjoIgM5-73" style="edgeStyle=orthogonalEdgeStyle;rounded=0;orthogonalLoop=1;jettySize=auto;html=1;exitX=1;exitY=0.75;exitDx=0;exitDy=0;" edge="1" parent="1">
          <mxGeometry relative="1" as="geometry">
            <Array as="points">
              <mxPoint x="620" y="1590.46" />
            </Array>
            <mxPoint x="110" y="1590.46" as="sourcePoint" />
            <mxPoint x="1210" y="1590" as="targetPoint" />
          </mxGeometry>
        </mxCell>
        <mxCell id="cQFcMFf0gcPbOVjoIgM5-74" style="edgeStyle=orthogonalEdgeStyle;rounded=0;orthogonalLoop=1;jettySize=auto;html=1;exitX=1;exitY=0.75;exitDx=0;exitDy=0;" edge="1" parent="1">
          <mxGeometry relative="1" as="geometry">
            <Array as="points">
              <mxPoint x="620" y="1640.46" />
            </Array>
            <mxPoint x="110" y="1640.46" as="sourcePoint" />
            <mxPoint x="1210" y="1640" as="targetPoint" />
          </mxGeometry>
        </mxCell>
        <mxCell id="cQFcMFf0gcPbOVjoIgM5-75" value="" style="rounded=0;whiteSpace=wrap;html=1;" vertex="1" parent="1">
          <mxGeometry x="1475" y="1540" width="20" height="140" as="geometry" />
        </mxCell>
        <mxCell id="cQFcMFf0gcPbOVjoIgM5-76" value="&lt;span style=&quot;color: rgb(0 , 0 , 0) ; font-family: &amp;#34;helvetica&amp;#34; ; font-size: 12px ; font-style: normal ; font-weight: 400 ; letter-spacing: normal ; text-align: center ; text-indent: 0px ; text-transform: none ; word-spacing: 0px ; background-color: rgb(248 , 249 , 250) ; display: inline ; float: none&quot;&gt;Рассчитать сумму выплат &lt;br&gt;при досрочном закрытии ставок&lt;/span&gt;" style="text;whiteSpace=wrap;html=1;" vertex="1" parent="1">
          <mxGeometry x="1250" y="1570" width="350" height="30" as="geometry" />
        </mxCell>
      </root>
    </mxGraphModel>
  </diagram>
  <diagram name="Страница — 4" id="WYtNNwUnm3R2JMoVI38a">
    <mxGraphModel dx="1620" dy="-300" grid="1" gridSize="10" guides="1" tooltips="1" connect="1" arrows="1" fold="1" page="1" pageScale="1" pageWidth="827" pageHeight="1169" math="0" shadow="0">
      <root>
        <mxCell id="0" />
        <mxCell id="1" parent="0" />
        <mxCell id="JiWvneqy1JWapnVhhvZF-1" style="edgeStyle=orthogonalEdgeStyle;rounded=0;orthogonalLoop=1;jettySize=auto;html=1;exitX=0.8;exitY=0;exitDx=0;exitDy=0;exitPerimeter=0;" edge="1" parent="1" source="JiWvneqy1JWapnVhhvZF-11" target="JiWvneqy1JWapnVhhvZF-11">
          <mxGeometry relative="1" as="geometry">
            <Array as="points">
              <mxPoint x="262.5" y="2480" />
              <mxPoint x="192.5" y="2480" />
              <mxPoint x="192.5" y="2580" />
              <mxPoint x="239.5" y="2580" />
            </Array>
          </mxGeometry>
        </mxCell>
        <mxCell id="JiWvneqy1JWapnVhhvZF-2" style="rounded=0;orthogonalLoop=1;jettySize=auto;html=1;exitX=0.5;exitY=0.5;exitDx=0;exitDy=0;exitPerimeter=0;entryX=1.043;entryY=0.565;entryDx=0;entryDy=0;entryPerimeter=0;endArrow=none;endFill=0;" edge="1" parent="1" source="JiWvneqy1JWapnVhhvZF-8" target="JiWvneqy1JWapnVhhvZF-15">
          <mxGeometry relative="1" as="geometry" />
        </mxCell>
        <mxCell id="JiWvneqy1JWapnVhhvZF-3" style="edgeStyle=none;rounded=0;orthogonalLoop=1;jettySize=auto;html=1;exitX=0.5;exitY=0.5;exitDx=0;exitDy=0;exitPerimeter=0;entryX=0.5;entryY=1;entryDx=0;entryDy=0;endArrow=none;endFill=0;" edge="1" parent="1" source="JiWvneqy1JWapnVhhvZF-8" target="JiWvneqy1JWapnVhhvZF-18">
          <mxGeometry relative="1" as="geometry" />
        </mxCell>
        <mxCell id="JiWvneqy1JWapnVhhvZF-4" style="edgeStyle=none;rounded=0;orthogonalLoop=1;jettySize=auto;html=1;exitX=0.5;exitY=0.5;exitDx=0;exitDy=0;exitPerimeter=0;entryX=0.274;entryY=0.978;entryDx=0;entryDy=0;entryPerimeter=0;endArrow=none;endFill=0;" edge="1" parent="1" source="JiWvneqy1JWapnVhhvZF-8" target="JiWvneqy1JWapnVhhvZF-10">
          <mxGeometry relative="1" as="geometry" />
        </mxCell>
        <mxCell id="JiWvneqy1JWapnVhhvZF-5" style="edgeStyle=none;rounded=0;orthogonalLoop=1;jettySize=auto;html=1;exitX=0.5;exitY=0.5;exitDx=0;exitDy=0;exitPerimeter=0;entryX=0.5;entryY=0;entryDx=0;entryDy=0;endArrow=none;endFill=0;" edge="1" parent="1" source="JiWvneqy1JWapnVhhvZF-8" target="JiWvneqy1JWapnVhhvZF-14">
          <mxGeometry relative="1" as="geometry" />
        </mxCell>
        <mxCell id="JiWvneqy1JWapnVhhvZF-6" style="edgeStyle=none;rounded=0;orthogonalLoop=1;jettySize=auto;html=1;exitX=0.5;exitY=0.5;exitDx=0;exitDy=0;exitPerimeter=0;entryX=0;entryY=0.5;entryDx=0;entryDy=0;endArrow=none;endFill=0;" edge="1" parent="1" source="JiWvneqy1JWapnVhhvZF-8" target="JiWvneqy1JWapnVhhvZF-17">
          <mxGeometry relative="1" as="geometry" />
        </mxCell>
        <mxCell id="JiWvneqy1JWapnVhhvZF-7" style="edgeStyle=none;rounded=0;orthogonalLoop=1;jettySize=auto;html=1;exitX=0.5;exitY=0.5;exitDx=0;exitDy=0;exitPerimeter=0;endArrow=none;endFill=0;" edge="1" parent="1" source="JiWvneqy1JWapnVhhvZF-8" target="JiWvneqy1JWapnVhhvZF-11">
          <mxGeometry relative="1" as="geometry" />
        </mxCell>
        <mxCell id="JiWvneqy1JWapnVhhvZF-8" value="Пользователь" style="shape=umlActor;verticalLabelPosition=bottom;verticalAlign=top;html=1;outlineConnect=0;" vertex="1" parent="1">
          <mxGeometry x="577.5" y="2380" width="30" height="60" as="geometry" />
        </mxCell>
        <mxCell id="JiWvneqy1JWapnVhhvZF-9" value="Админ&lt;br&gt;сайта" style="ellipse;shape=umlControl;whiteSpace=wrap;html=1;" vertex="1" parent="1">
          <mxGeometry x="982.5" y="2470" width="70" height="80" as="geometry" />
        </mxCell>
        <mxCell id="JiWvneqy1JWapnVhhvZF-10" value="Каталог матчей" style="ellipse;shape=umlEntity;whiteSpace=wrap;html=1;" vertex="1" parent="1">
          <mxGeometry x="692.5" y="2150" width="70" height="70" as="geometry" />
        </mxCell>
        <mxCell id="JiWvneqy1JWapnVhhvZF-11" value="Форма регистрации&lt;br&gt;нового пользователя" style="shape=umlBoundary;whiteSpace=wrap;html=1;" vertex="1" parent="1">
          <mxGeometry x="202.5" y="2500" width="75" height="60" as="geometry" />
        </mxCell>
        <mxCell id="JiWvneqy1JWapnVhhvZF-12" style="edgeStyle=none;rounded=0;orthogonalLoop=1;jettySize=auto;html=1;exitX=0;exitY=0.5;exitDx=0;exitDy=0;endArrow=none;endFill=0;" edge="1" parent="1" source="JiWvneqy1JWapnVhhvZF-14" target="JiWvneqy1JWapnVhhvZF-11">
          <mxGeometry relative="1" as="geometry" />
        </mxCell>
        <mxCell id="JiWvneqy1JWapnVhhvZF-13" style="edgeStyle=none;rounded=0;orthogonalLoop=1;jettySize=auto;html=1;exitX=0.851;exitY=0.107;exitDx=0;exitDy=0;entryX=0.314;entryY=0.865;entryDx=0;entryDy=0;entryPerimeter=0;endArrow=none;endFill=0;exitPerimeter=0;" edge="1" parent="1" source="JiWvneqy1JWapnVhhvZF-11" target="JiWvneqy1JWapnVhhvZF-15">
          <mxGeometry relative="1" as="geometry" />
        </mxCell>
        <mxCell id="JiWvneqy1JWapnVhhvZF-14" value="Сайт" style="rounded=0;whiteSpace=wrap;html=1;" vertex="1" parent="1">
          <mxGeometry x="532.5" y="2560" width="120" height="60" as="geometry" />
        </mxCell>
        <mxCell id="JiWvneqy1JWapnVhhvZF-15" value="Форма входа в аккаунт пользователя" style="shape=umlBoundary;whiteSpace=wrap;html=1;" vertex="1" parent="1">
          <mxGeometry x="272.5" y="2280" width="75" height="60" as="geometry" />
        </mxCell>
        <mxCell id="JiWvneqy1JWapnVhhvZF-16" style="edgeStyle=none;rounded=0;orthogonalLoop=1;jettySize=auto;html=1;exitX=1;exitY=0.5;exitDx=0;exitDy=0;endArrow=none;endFill=0;" edge="1" parent="1" source="JiWvneqy1JWapnVhhvZF-17" target="JiWvneqy1JWapnVhhvZF-9">
          <mxGeometry relative="1" as="geometry" />
        </mxCell>
        <mxCell id="JiWvneqy1JWapnVhhvZF-17" value="Ставка" style="ellipse;shape=umlEntity;whiteSpace=wrap;html=1;" vertex="1" parent="1">
          <mxGeometry x="837.5" y="2385" width="70" height="70" as="geometry" />
        </mxCell>
        <mxCell id="JiWvneqy1JWapnVhhvZF-18" value="Счет" style="ellipse;shape=umlEntity;whiteSpace=wrap;html=1;" vertex="1" parent="1">
          <mxGeometry x="412.5" y="2020" width="70" height="70" as="geometry" />
        </mxCell>
        <mxCell id="JiWvneqy1JWapnVhhvZF-19" value="&lt;span style=&quot;text-align: center&quot;&gt;9:Ввести логин&lt;/span&gt;&lt;span style=&quot;text-align: center&quot;&gt;()&lt;/span&gt;" style="text;whiteSpace=wrap;html=1;" vertex="1" parent="1">
          <mxGeometry x="342.5" y="2340" width="110" height="20" as="geometry" />
        </mxCell>
        <mxCell id="JiWvneqy1JWapnVhhvZF-20" value="&lt;span style=&quot;color: rgb(0 , 0 , 0) ; font-family: &amp;#34;helvetica&amp;#34; ; font-size: 12px ; font-style: normal ; font-weight: 400 ; letter-spacing: normal ; text-align: center ; text-indent: 0px ; text-transform: none ; word-spacing: 0px ; background-color: rgb(248 , 249 , 250) ; display: inline ; float: none&quot;&gt;10:Ввести пароль&lt;/span&gt;&lt;span style=&quot;text-align: center&quot;&gt;()&lt;/span&gt;" style="text;whiteSpace=wrap;html=1;" vertex="1" parent="1">
          <mxGeometry x="342.5" y="2355" width="110" height="30" as="geometry" />
        </mxCell>
        <mxCell id="JiWvneqy1JWapnVhhvZF-21" value="&lt;span style=&quot;color: rgb(0 , 0 , 0) ; font-family: &amp;#34;helvetica&amp;#34; ; font-size: 12px ; font-style: normal ; font-weight: 400 ; letter-spacing: normal ; text-align: center ; text-indent: 0px ; text-transform: none ; word-spacing: 0px ; background-color: rgb(248 , 249 , 250) ; display: inline ; float: none&quot;&gt;12:Восстановить аккаунт&lt;/span&gt;&lt;span style=&quot;text-align: center&quot;&gt;()&lt;/span&gt;" style="text;whiteSpace=wrap;html=1;" vertex="1" parent="1">
          <mxGeometry x="342.5" y="2368.79" width="150" height="30" as="geometry" />
        </mxCell>
        <mxCell id="JiWvneqy1JWapnVhhvZF-22" value="&lt;span style=&quot;color: rgb(0 , 0 , 0) ; font-family: &amp;#34;helvetica&amp;#34; ; font-size: 12px ; font-style: normal ; font-weight: 400 ; letter-spacing: normal ; text-align: center ; text-indent: 0px ; text-transform: none ; word-spacing: 0px ; background-color: rgb(248 , 249 , 250) ; display: inline ; float: none&quot;&gt;13:Войти в аккаунт&lt;/span&gt;&lt;span style=&quot;text-align: center&quot;&gt;()&lt;/span&gt;" style="text;whiteSpace=wrap;html=1;" vertex="1" parent="1">
          <mxGeometry x="342.5" y="2385" width="130" height="30" as="geometry" />
        </mxCell>
        <mxCell id="JiWvneqy1JWapnVhhvZF-23" value="3:Прикрепить необходимые документы&lt;span&gt;()&lt;/span&gt;" style="text;whiteSpace=wrap;html=1;align=left;" vertex="1" parent="1">
          <mxGeometry x="347.5" y="2470" width="240" height="30" as="geometry" />
        </mxCell>
        <mxCell id="JiWvneqy1JWapnVhhvZF-24" value="&lt;span style=&quot;color: rgb(0 , 0 , 0) ; font-family: &amp;#34;helvetica&amp;#34; ; font-size: 12px ; font-style: normal ; font-weight: 400 ; letter-spacing: normal ; text-indent: 0px ; text-transform: none ; word-spacing: 0px ; background-color: rgb(248 , 249 , 250) ; display: inline ; float: none&quot;&gt;4:Заполнить информацию о себе&lt;/span&gt;&lt;span&gt;()&lt;/span&gt;" style="text;whiteSpace=wrap;html=1;align=left;" vertex="1" parent="1">
          <mxGeometry x="347.5" y="2485" width="200" height="30" as="geometry" />
        </mxCell>
        <mxCell id="JiWvneqy1JWapnVhhvZF-25" value="&lt;span&gt;6:Создание аккаунта&lt;/span&gt;()" style="text;html=1;align=left;verticalAlign=middle;resizable=0;points=[];autosize=1;strokeColor=none;fillColor=none;" vertex="1" parent="1">
          <mxGeometry x="347.5" y="2500" width="140" height="20" as="geometry" />
        </mxCell>
        <mxCell id="JiWvneqy1JWapnVhhvZF-26" value="7:Проверка &lt;br&gt;пользователя()" style="text;html=1;align=center;verticalAlign=middle;resizable=0;points=[];autosize=1;strokeColor=none;fillColor=none;" vertex="1" parent="1">
          <mxGeometry x="97.5" y="2510" width="100" height="30" as="geometry" />
        </mxCell>
        <mxCell id="JiWvneqy1JWapnVhhvZF-27" value="11:Проверка&lt;br&gt;логина и пароля()" style="text;html=1;align=center;verticalAlign=middle;resizable=0;points=[];autosize=1;strokeColor=none;fillColor=none;" vertex="1" parent="1">
          <mxGeometry x="152.5" y="2295" width="110" height="30" as="geometry" />
        </mxCell>
        <mxCell id="JiWvneqy1JWapnVhhvZF-28" value="&lt;span style=&quot;color: rgb(0 , 0 , 0) ; font-family: &amp;#34;helvetica&amp;#34; ; font-size: 12px ; font-style: normal ; font-weight: 400 ; letter-spacing: normal ; text-align: center ; text-indent: 0px ; text-transform: none ; word-spacing: 0px ; background-color: rgb(248 , 249 , 250) ; display: inline ; float: none&quot;&gt;14:Внести деньги с карты&lt;/span&gt;&lt;span style=&quot;text-align: center&quot;&gt;()&lt;/span&gt;" style="text;whiteSpace=wrap;html=1;" vertex="1" parent="1">
          <mxGeometry x="323" y="2120" width="159.5" height="30" as="geometry" />
        </mxCell>
        <mxCell id="JiWvneqy1JWapnVhhvZF-29" value="&lt;span style=&quot;color: rgb(0 , 0 , 0) ; font-family: &amp;#34;helvetica&amp;#34; ; font-size: 12px ; font-style: normal ; font-weight: 400 ; letter-spacing: normal ; text-align: center ; text-indent: 0px ; text-transform: none ; word-spacing: 0px ; background-color: rgb(248 , 249 , 250) ; display: inline ; float: none&quot;&gt;15:Ввести промокод&lt;/span&gt;&lt;span style=&quot;text-align: center&quot;&gt;()&lt;/span&gt;" style="text;whiteSpace=wrap;html=1;" vertex="1" parent="1">
          <mxGeometry x="323" y="2140" width="129.5" height="30" as="geometry" />
        </mxCell>
        <mxCell id="JiWvneqy1JWapnVhhvZF-30" value="&lt;span style=&quot;color: rgb(0 , 0 , 0) ; font-family: &amp;#34;helvetica&amp;#34; ; font-size: 12px ; font-style: normal ; font-weight: 400 ; letter-spacing: normal ; text-align: center ; text-indent: 0px ; text-transform: none ; word-spacing: 0px ; background-color: rgb(248 , 249 , 250) ; display: inline ; float: none&quot;&gt;16:Получить бонусные средства&lt;/span&gt;&lt;span style=&quot;text-align: center&quot;&gt;()&lt;/span&gt;" style="text;whiteSpace=wrap;html=1;" vertex="1" parent="1">
          <mxGeometry x="323" y="2160" width="199.5" height="30" as="geometry" />
        </mxCell>
        <mxCell id="JiWvneqy1JWapnVhhvZF-31" value="&lt;span style=&quot;color: rgb(0 , 0 , 0) ; font-family: &amp;#34;helvetica&amp;#34; ; font-size: 12px ; font-style: normal ; font-weight: 400 ; letter-spacing: normal ; text-align: center ; text-indent: 0px ; text-transform: none ; word-spacing: 0px ; background-color: rgb(248 , 249 , 250) ; display: inline ; float: none&quot;&gt;17:Внести денежные средства на сайт&lt;/span&gt;&lt;span style=&quot;text-align: center&quot;&gt;()&lt;/span&gt;" style="text;whiteSpace=wrap;html=1;" vertex="1" parent="1">
          <mxGeometry x="323" y="2180" width="229.5" height="30" as="geometry" />
        </mxCell>
        <mxCell id="JiWvneqy1JWapnVhhvZF-32" value="&lt;span style=&quot;color: rgb(0 , 0 , 0) ; font-family: &amp;#34;helvetica&amp;#34; ; font-size: 12px ; font-style: normal ; font-weight: 400 ; letter-spacing: normal ; text-align: center ; text-indent: 0px ; text-transform: none ; word-spacing: 0px ; background-color: rgb(248 , 249 , 250) ; display: inline ; float: none&quot;&gt;22:Сделать ставку&lt;/span&gt;&lt;span style=&quot;text-align: center&quot;&gt;()&lt;/span&gt;" style="text;whiteSpace=wrap;html=1;" vertex="1" parent="1">
          <mxGeometry x="702.5" y="2310" width="120" height="30" as="geometry" />
        </mxCell>
        <mxCell id="JiWvneqy1JWapnVhhvZF-33" value="&lt;span style=&quot;color: rgb(0 , 0 , 0) ; font-family: &amp;#34;helvetica&amp;#34; ; font-size: 12px ; font-style: normal ; font-weight: 400 ; letter-spacing: normal ; text-align: center ; text-indent: 0px ; text-transform: none ; word-spacing: 0px ; background-color: rgb(248 , 249 , 250) ; display: inline ; float: none&quot;&gt;18:Выбрать футбольный матч&lt;/span&gt;&lt;span style=&quot;text-align: center&quot;&gt;()&lt;/span&gt;" style="text;whiteSpace=wrap;html=1;" vertex="1" parent="1">
          <mxGeometry x="702.5" y="2235" width="180" height="30" as="geometry" />
        </mxCell>
        <mxCell id="JiWvneqy1JWapnVhhvZF-34" value="&lt;span style=&quot;color: rgb(0 , 0 , 0) ; font-family: &amp;#34;helvetica&amp;#34; ; font-size: 12px ; font-style: normal ; font-weight: 400 ; letter-spacing: normal ; text-align: center ; text-indent: 0px ; text-transform: none ; word-spacing: 0px ; background-color: rgb(248 , 249 , 250) ; display: inline ; float: none&quot;&gt;19:Выбрать тип ставки&lt;/span&gt;&lt;span style=&quot;text-align: center&quot;&gt;()&lt;/span&gt;" style="text;whiteSpace=wrap;html=1;" vertex="1" parent="1">
          <mxGeometry x="702.5" y="2255" width="140" height="30" as="geometry" />
        </mxCell>
        <mxCell id="JiWvneqy1JWapnVhhvZF-35" value="&lt;span style=&quot;color: rgb(0 , 0 , 0) ; font-family: &amp;#34;helvetica&amp;#34; ; font-size: 12px ; font-style: normal ; font-weight: 400 ; letter-spacing: normal ; text-align: center ; text-indent: 0px ; text-transform: none ; word-spacing: 0px ; background-color: rgb(248 , 249 , 250) ; display: inline ; float: none&quot;&gt;20:Выбрать команду&lt;/span&gt;&lt;span style=&quot;text-align: center&quot;&gt;()&lt;/span&gt;" style="text;whiteSpace=wrap;html=1;" vertex="1" parent="1">
          <mxGeometry x="702.5" y="2275" width="130" height="30" as="geometry" />
        </mxCell>
        <mxCell id="JiWvneqy1JWapnVhhvZF-36" value="21:Выбрать сумму ставки&lt;span style=&quot;text-align: center&quot;&gt;()&lt;/span&gt;" style="text;whiteSpace=wrap;html=1;" vertex="1" parent="1">
          <mxGeometry x="702.5" y="2295" width="160" height="30" as="geometry" />
        </mxCell>
        <mxCell id="JiWvneqy1JWapnVhhvZF-37" value="&lt;span style=&quot;color: rgb(0 , 0 , 0) ; font-family: &amp;#34;helvetica&amp;#34; ; font-size: 12px ; font-style: normal ; font-weight: 400 ; letter-spacing: normal ; text-align: center ; text-indent: 0px ; text-transform: none ; word-spacing: 0px ; background-color: rgb(248 , 249 , 250) ; display: inline ; float: none&quot;&gt;23.1:Закрыть ставку раньше&lt;/span&gt;&lt;span style=&quot;text-align: center&quot;&gt;()&lt;/span&gt;" style="text;whiteSpace=wrap;html=1;" vertex="1" parent="1">
          <mxGeometry x="652.5" y="2420" width="170" height="30" as="geometry" />
        </mxCell>
        <mxCell id="JiWvneqy1JWapnVhhvZF-38" value="&lt;span style=&quot;color: rgb(0 , 0 , 0) ; font-family: &amp;#34;helvetica&amp;#34; ; font-size: 12px ; font-style: normal ; font-weight: 400 ; letter-spacing: normal ; text-align: center ; text-indent: 0px ; text-transform: none ; word-spacing: 0px ; background-color: rgb(248 , 249 , 250) ; display: inline ; float: none&quot;&gt;23.2:Дождаться пока ставка сыграет&lt;/span&gt;&lt;span style=&quot;text-align: center&quot;&gt;()&lt;/span&gt;" style="text;whiteSpace=wrap;html=1;" vertex="1" parent="1">
          <mxGeometry x="652.5" y="2440" width="200" height="30" as="geometry" />
        </mxCell>
        <mxCell id="JiWvneqy1JWapnVhhvZF-39" value="&lt;span style=&quot;color: rgb(0 , 0 , 0) ; font-family: &amp;#34;helvetica&amp;#34; ; font-size: 12px ; font-style: normal ; font-weight: 400 ; letter-spacing: normal ; text-align: center ; text-indent: 0px ; text-transform: none ; word-spacing: 0px ; background-color: rgb(248 , 249 , 250) ; display: inline ; float: none&quot;&gt;24:Рассчитать сумму выплат &lt;br&gt;при досрочном закрытии ставок&lt;/span&gt;&lt;span style=&quot;text-align: center&quot;&gt;()&lt;/span&gt;" style="text;whiteSpace=wrap;html=1;" vertex="1" parent="1">
          <mxGeometry x="982.5" y="2420" width="200" height="30" as="geometry" />
        </mxCell>
        <mxCell id="JiWvneqy1JWapnVhhvZF-40" style="edgeStyle=orthogonalEdgeStyle;rounded=0;orthogonalLoop=1;jettySize=auto;html=1;exitX=0.8;exitY=0;exitDx=0;exitDy=0;exitPerimeter=0;" edge="1" parent="1">
          <mxGeometry relative="1" as="geometry">
            <mxPoint x="332.5" y="2280" as="sourcePoint" />
            <mxPoint x="309.5526315789473" y="2340" as="targetPoint" />
            <Array as="points">
              <mxPoint x="332.5" y="2260" />
              <mxPoint x="262.5" y="2260" />
              <mxPoint x="262.5" y="2360" />
              <mxPoint x="309.5" y="2360" />
            </Array>
          </mxGeometry>
        </mxCell>
        <mxCell id="JiWvneqy1JWapnVhhvZF-41" value="1:Переход на сайт()" style="text;html=1;align=center;verticalAlign=middle;resizable=0;points=[];autosize=1;strokeColor=none;fillColor=none;" vertex="1" parent="1">
          <mxGeometry x="582.5" y="2530" width="130" height="20" as="geometry" />
        </mxCell>
        <mxCell id="JiWvneqy1JWapnVhhvZF-42" value="2:Открыть форму &lt;br&gt;регистрации нового пользователя()" style="text;html=1;align=center;verticalAlign=middle;resizable=0;points=[];autosize=1;strokeColor=none;fillColor=none;" vertex="1" parent="1">
          <mxGeometry x="302.5" y="2590" width="210" height="30" as="geometry" />
        </mxCell>
        <mxCell id="JiWvneqy1JWapnVhhvZF-43" value="8:открыть форму входа&lt;br&gt;в аккаунт()" style="text;html=1;align=center;verticalAlign=middle;resizable=0;points=[];autosize=1;strokeColor=none;fillColor=none;" vertex="1" parent="1">
          <mxGeometry x="112.5" y="2390" width="150" height="30" as="geometry" />
        </mxCell>
      </root>
    </mxGraphModel>
  </diagram>
  <diagram name="Страница — 5" id="vZyx6QBsd5YtVYSEZj5W">
    <mxGraphModel dx="4448" dy="2225" grid="1" gridSize="10" guides="1" tooltips="1" connect="1" arrows="1" fold="1" page="1" pageScale="1" pageWidth="827" pageHeight="1169" math="0" shadow="0">
      <root>
        <mxCell id="0" />
        <mxCell id="1" parent="0" />
        <mxCell id="P_S8tWhegUSo4uzERF2O-120" style="edgeStyle=orthogonalEdgeStyle;rounded=0;orthogonalLoop=1;jettySize=auto;html=1;entryX=0.472;entryY=1.032;entryDx=0;entryDy=0;entryPerimeter=0;curved=1;exitX=0.143;exitY=0;exitDx=0;exitDy=0;exitPerimeter=0;" parent="1" source="P_S8tWhegUSo4uzERF2O-121" target="P_S8tWhegUSo4uzERF2O-127" edge="1">
          <mxGeometry relative="1" as="geometry" />
        </mxCell>
        <mxCell id="P_S8tWhegUSo4uzERF2O-121" value="" style="rounded=1;whiteSpace=wrap;html=1;fillColor=none;" parent="1" vertex="1">
          <mxGeometry x="-17.149999999999977" y="-80" width="1425" height="695" as="geometry" />
        </mxCell>
        <mxCell id="P_S8tWhegUSo4uzERF2O-122" value="" style="rounded=1;whiteSpace=wrap;html=1;fillColor=none;strokeColor=#000000;" parent="1" vertex="1">
          <mxGeometry x="393.08" y="-610.9" width="2436.92" height="310.9" as="geometry" />
        </mxCell>
        <mxCell id="P_S8tWhegUSo4uzERF2O-123" style="edgeStyle=orthogonalEdgeStyle;rounded=0;orthogonalLoop=1;jettySize=auto;html=1;exitX=0.25;exitY=0;exitDx=0;exitDy=0;entryX=0.5;entryY=1;entryDx=0;entryDy=0;entryPerimeter=0;curved=1;" parent="1" source="P_S8tWhegUSo4uzERF2O-127" target="P_S8tWhegUSo4uzERF2O-193" edge="1">
          <mxGeometry relative="1" as="geometry" />
        </mxCell>
        <mxCell id="P_S8tWhegUSo4uzERF2O-124" style="edgeStyle=orthogonalEdgeStyle;rounded=0;orthogonalLoop=1;jettySize=auto;html=1;exitX=0;exitY=0.25;exitDx=0;exitDy=0;entryX=1;entryY=0.23;entryDx=0;entryDy=0;entryPerimeter=0;curved=1;" parent="1" source="P_S8tWhegUSo4uzERF2O-127" target="P_S8tWhegUSo4uzERF2O-212" edge="1">
          <mxGeometry relative="1" as="geometry" />
        </mxCell>
        <mxCell id="P_S8tWhegUSo4uzERF2O-125" style="edgeStyle=orthogonalEdgeStyle;rounded=0;orthogonalLoop=1;jettySize=auto;html=1;exitX=0.25;exitY=1;exitDx=0;exitDy=0;entryX=0.109;entryY=-0.001;entryDx=0;entryDy=0;entryPerimeter=0;curved=1;" parent="1" source="P_S8tWhegUSo4uzERF2O-127" target="P_S8tWhegUSo4uzERF2O-121" edge="1">
          <mxGeometry relative="1" as="geometry">
            <mxPoint x="140" y="-80" as="targetPoint" />
          </mxGeometry>
        </mxCell>
        <mxCell id="P_S8tWhegUSo4uzERF2O-126" style="edgeStyle=orthogonalEdgeStyle;rounded=0;orthogonalLoop=1;jettySize=auto;html=1;exitX=0.75;exitY=0;exitDx=0;exitDy=0;entryX=0;entryY=0.25;entryDx=0;entryDy=0;curved=1;" parent="1" source="P_S8tWhegUSo4uzERF2O-127" target="P_S8tWhegUSo4uzERF2O-122" edge="1">
          <mxGeometry relative="1" as="geometry" />
        </mxCell>
        <mxCell id="P_S8tWhegUSo4uzERF2O-127" value="Сайт футбольных ставок" style="rounded=1;whiteSpace=wrap;html=1;" parent="1" vertex="1">
          <mxGeometry x="85.07999999999998" y="-370" width="215" height="60" as="geometry" />
        </mxCell>
        <mxCell id="P_S8tWhegUSo4uzERF2O-128" value="" style="endArrow=classic;html=1;rounded=0;exitX=0.5;exitY=1;exitDx=0;exitDy=0;exitPerimeter=0;entryX=0.5;entryY=0;entryDx=0;entryDy=0;edgeStyle=orthogonalEdgeStyle;curved=1;" parent="1" source="P_S8tWhegUSo4uzERF2O-129" target="P_S8tWhegUSo4uzERF2O-127" edge="1">
          <mxGeometry width="50" height="50" relative="1" as="geometry">
            <mxPoint x="-222.42000000000002" y="-450" as="sourcePoint" />
            <mxPoint x="-182.42000000000002" y="-500" as="targetPoint" />
          </mxGeometry>
        </mxCell>
        <mxCell id="P_S8tWhegUSo4uzERF2O-129" value="" style="points=[[0.145,0.145,0],[0.5,0,0],[0.855,0.145,0],[1,0.5,0],[0.855,0.855,0],[0.5,1,0],[0.145,0.855,0],[0,0.5,0]];shape=mxgraph.bpmn.event;html=1;verticalLabelPosition=bottom;labelBackgroundColor=#ffffff;verticalAlign=top;align=center;perimeter=ellipsePerimeter;outlineConnect=0;aspect=fixed;outline=standard;symbol=general;fillColor=#000000;" parent="1" vertex="1">
          <mxGeometry x="167.57999999999998" y="-701.2200000000001" width="50" height="50" as="geometry" />
        </mxCell>
        <mxCell id="P_S8tWhegUSo4uzERF2O-130" value="Перейти на сайт" style="text;html=1;align=center;verticalAlign=middle;resizable=0;points=[];autosize=1;strokeColor=none;fillColor=none;" parent="1" vertex="1">
          <mxGeometry x="129.99999999999997" y="-729.0200000000001" width="110" height="20" as="geometry" />
        </mxCell>
        <mxCell id="P_S8tWhegUSo4uzERF2O-131" value="Форма для регистрации&lt;br&gt;&lt;br&gt;do/заполнить форму" style="rounded=1;whiteSpace=wrap;html=1;" parent="1" vertex="1">
          <mxGeometry x="1042.85" y="55" width="150" height="60" as="geometry" />
        </mxCell>
        <mxCell id="P_S8tWhegUSo4uzERF2O-132" style="rounded=0;orthogonalLoop=1;jettySize=auto;html=1;exitX=0;exitY=0.5;exitDx=0;exitDy=0;entryX=1;entryY=0.5;entryDx=0;entryDy=0;" parent="1" source="P_S8tWhegUSo4uzERF2O-131" target="P_S8tWhegUSo4uzERF2O-134" edge="1">
          <mxGeometry relative="1" as="geometry">
            <mxPoint x="907.85" y="90" as="sourcePoint" />
          </mxGeometry>
        </mxCell>
        <mxCell id="P_S8tWhegUSo4uzERF2O-133" style="edgeStyle=orthogonalEdgeStyle;rounded=0;orthogonalLoop=1;jettySize=auto;html=1;exitX=0;exitY=0.5;exitDx=0;exitDy=0;entryX=1;entryY=0.5;entryDx=0;entryDy=0;" parent="1" source="P_S8tWhegUSo4uzERF2O-134" target="P_S8tWhegUSo4uzERF2O-136" edge="1">
          <mxGeometry relative="1" as="geometry">
            <Array as="points">
              <mxPoint x="697.85" y="90" />
            </Array>
          </mxGeometry>
        </mxCell>
        <mxCell id="P_S8tWhegUSo4uzERF2O-134" value="Ввести инфо о себе&lt;br&gt;entry/ открыть поле ввода&lt;br&gt;do/ ввести информ.&lt;br&gt;exit/ введено успешно" style="rounded=1;whiteSpace=wrap;html=1;" parent="1" vertex="1">
          <mxGeometry x="697.85" y="55" width="170" height="60" as="geometry" />
        </mxCell>
        <mxCell id="P_S8tWhegUSo4uzERF2O-135" style="edgeStyle=orthogonalEdgeStyle;rounded=0;orthogonalLoop=1;jettySize=auto;html=1;exitX=0;exitY=0.5;exitDx=0;exitDy=0;entryX=1;entryY=0.5;entryDx=0;entryDy=0;entryPerimeter=0;" parent="1" source="P_S8tWhegUSo4uzERF2O-136" target="P_S8tWhegUSo4uzERF2O-184" edge="1">
          <mxGeometry relative="1" as="geometry">
            <mxPoint x="312.85" y="90" as="targetPoint" />
          </mxGeometry>
        </mxCell>
        <mxCell id="P_S8tWhegUSo4uzERF2O-136" value="Добавить документы идентификации личности&lt;br&gt;do/ поле прикрепления&lt;br&gt;exit/документы прикреплены" style="rounded=1;whiteSpace=wrap;html=1;" parent="1" vertex="1">
          <mxGeometry x="367.85" y="60" width="195" height="60" as="geometry" />
        </mxCell>
        <mxCell id="P_S8tWhegUSo4uzERF2O-137" style="edgeStyle=orthogonalEdgeStyle;rounded=0;orthogonalLoop=1;jettySize=auto;html=1;exitX=0;exitY=0.75;exitDx=0;exitDy=0;entryX=0.817;entryY=-0.04;entryDx=0;entryDy=0;entryPerimeter=0;curved=1;" parent="1" source="P_S8tWhegUSo4uzERF2O-139" target="P_S8tWhegUSo4uzERF2O-141" edge="1">
          <mxGeometry relative="1" as="geometry">
            <mxPoint x="372.85" y="240" as="targetPoint" />
          </mxGeometry>
        </mxCell>
        <mxCell id="P_S8tWhegUSo4uzERF2O-138" value="" style="edgeStyle=orthogonalEdgeStyle;rounded=0;orthogonalLoop=1;jettySize=auto;html=1;" parent="1" source="P_S8tWhegUSo4uzERF2O-139" target="P_S8tWhegUSo4uzERF2O-186" edge="1">
          <mxGeometry relative="1" as="geometry" />
        </mxCell>
        <mxCell id="P_S8tWhegUSo4uzERF2O-139" value="&lt;span&gt;Проверка пароля и логина&lt;br&gt;&lt;/span&gt;do/ проверяем форму&lt;span&gt;&lt;br&gt;&lt;/span&gt;" style="rounded=1;whiteSpace=wrap;html=1;" parent="1" vertex="1">
          <mxGeometry x="482.85" y="207" width="120" height="60" as="geometry" />
        </mxCell>
        <mxCell id="P_S8tWhegUSo4uzERF2O-140" style="edgeStyle=orthogonalEdgeStyle;rounded=0;orthogonalLoop=1;jettySize=auto;html=1;exitX=1;exitY=0.75;exitDx=0;exitDy=0;entryX=0.5;entryY=1;entryDx=0;entryDy=0;curved=1;" parent="1" source="P_S8tWhegUSo4uzERF2O-141" target="P_S8tWhegUSo4uzERF2O-157" edge="1">
          <mxGeometry relative="1" as="geometry" />
        </mxCell>
        <mxCell id="P_S8tWhegUSo4uzERF2O-141" value="&lt;span&gt;Восстановить аккаунт&lt;br&gt;&lt;/span&gt;do/ вывести ошибку&lt;span&gt;&lt;br&gt;&lt;/span&gt;" style="rounded=1;whiteSpace=wrap;html=1;" parent="1" vertex="1">
          <mxGeometry x="327.85" y="321.89" width="130" height="60" as="geometry" />
        </mxCell>
        <mxCell id="P_S8tWhegUSo4uzERF2O-142" style="edgeStyle=orthogonalEdgeStyle;rounded=0;orthogonalLoop=1;jettySize=auto;html=1;exitX=0;exitY=0.5;exitDx=0;exitDy=0;" parent="1" source="P_S8tWhegUSo4uzERF2O-143" edge="1">
          <mxGeometry relative="1" as="geometry">
            <mxPoint x="602.85" y="240" as="targetPoint" />
            <Array as="points">
              <mxPoint x="742.85" y="240" />
            </Array>
          </mxGeometry>
        </mxCell>
        <mxCell id="P_S8tWhegUSo4uzERF2O-143" value="&lt;span&gt;Ввести пароля&lt;br&gt;do/Показать поле ввода пароля&lt;br&gt;&lt;/span&gt;" style="rounded=1;whiteSpace=wrap;html=1;" parent="1" vertex="1">
          <mxGeometry x="697.85" y="207" width="120" height="60" as="geometry" />
        </mxCell>
        <mxCell id="P_S8tWhegUSo4uzERF2O-144" style="edgeStyle=orthogonalEdgeStyle;rounded=0;orthogonalLoop=1;jettySize=auto;html=1;exitX=0;exitY=0.5;exitDx=0;exitDy=0;entryX=1;entryY=0.5;entryDx=0;entryDy=0;" parent="1" source="P_S8tWhegUSo4uzERF2O-145" target="P_S8tWhegUSo4uzERF2O-143" edge="1">
          <mxGeometry relative="1" as="geometry" />
        </mxCell>
        <mxCell id="P_S8tWhegUSo4uzERF2O-145" value="&lt;span&gt;Ввести логина&lt;br&gt;&lt;/span&gt;do/ Показать поле ввода логина&lt;span&gt;&lt;br&gt;&lt;/span&gt;" style="rounded=1;whiteSpace=wrap;html=1;" parent="1" vertex="1">
          <mxGeometry x="912.85" y="207" width="120" height="60" as="geometry" />
        </mxCell>
        <mxCell id="P_S8tWhegUSo4uzERF2O-146" style="edgeStyle=orthogonalEdgeStyle;rounded=0;orthogonalLoop=1;jettySize=auto;html=1;exitX=1;exitY=0.5;exitDx=0;exitDy=0;entryX=0;entryY=0.5;entryDx=0;entryDy=0;" parent="1" source="P_S8tWhegUSo4uzERF2O-147" target="P_S8tWhegUSo4uzERF2O-164" edge="1">
          <mxGeometry relative="1" as="geometry">
            <mxPoint x="1026" y="-277.56" as="targetPoint" />
            <Array as="points" />
          </mxGeometry>
        </mxCell>
        <mxCell id="P_S8tWhegUSo4uzERF2O-147" value="Добавить время матча&lt;br&gt;&lt;span&gt;do/выбрать время&lt;br&gt;exit/время выбрано&lt;br&gt;&lt;/span&gt;" style="rounded=1;whiteSpace=wrap;html=1;" parent="1" vertex="1">
          <mxGeometry x="979.9199999999998" y="-452.55999999999995" width="174" height="40" as="geometry" />
        </mxCell>
        <mxCell id="P_S8tWhegUSo4uzERF2O-148" style="edgeStyle=orthogonalEdgeStyle;rounded=0;orthogonalLoop=1;jettySize=auto;html=1;exitX=1;exitY=0.5;exitDx=0;exitDy=0;entryX=0;entryY=0.5;entryDx=0;entryDy=0;" parent="1" source="P_S8tWhegUSo4uzERF2O-149" target="P_S8tWhegUSo4uzERF2O-147" edge="1">
          <mxGeometry relative="1" as="geometry">
            <mxPoint x="934.9999999999999" y="-427.55999999999995" as="sourcePoint" />
            <Array as="points">
              <mxPoint x="823.9999999999999" y="-432.55999999999995" />
            </Array>
          </mxGeometry>
        </mxCell>
        <mxCell id="P_S8tWhegUSo4uzERF2O-149" value="Добавить информацию о командах&lt;span&gt;&lt;br&gt;do/добавляем инфо о командах&lt;br&gt;exit/команды добавлены&lt;br&gt;&lt;/span&gt;" style="rounded=1;whiteSpace=wrap;html=1;" parent="1" vertex="1">
          <mxGeometry x="671" y="-457.55999999999995" width="188.92" height="60" as="geometry" />
        </mxCell>
        <mxCell id="P_S8tWhegUSo4uzERF2O-150" style="edgeStyle=orthogonalEdgeStyle;rounded=0;orthogonalLoop=1;jettySize=auto;html=1;exitX=0;exitY=0.5;exitDx=0;exitDy=0;exitPerimeter=0;entryX=1;entryY=0.5;entryDx=0;entryDy=0;" parent="1" source="P_S8tWhegUSo4uzERF2O-151" target="P_S8tWhegUSo4uzERF2O-131" edge="1">
          <mxGeometry relative="1" as="geometry">
            <Array as="points">
              <mxPoint x="1212.85" y="85" />
              <mxPoint x="1212.85" y="85" />
            </Array>
          </mxGeometry>
        </mxCell>
        <mxCell id="P_S8tWhegUSo4uzERF2O-151" value="" style="points=[[0.145,0.145,0],[0.5,0,0],[0.855,0.145,0],[1,0.5,0],[0.855,0.855,0],[0.5,1,0],[0.145,0.855,0],[0,0.5,0]];shape=mxgraph.bpmn.event;html=1;verticalLabelPosition=bottom;labelBackgroundColor=#ffffff;verticalAlign=top;align=center;perimeter=ellipsePerimeter;outlineConnect=0;aspect=fixed;outline=standard;symbol=general;fillColor=#000000;" parent="1" vertex="1">
          <mxGeometry x="1327.93" y="60" width="50" height="50" as="geometry" />
        </mxCell>
        <mxCell id="P_S8tWhegUSo4uzERF2O-152" style="edgeStyle=orthogonalEdgeStyle;rounded=0;orthogonalLoop=1;jettySize=auto;html=1;entryX=0.25;entryY=0;entryDx=0;entryDy=0;exitX=0.75;exitY=0;exitDx=0;exitDy=0;curved=1;" parent="1" source="P_S8tWhegUSo4uzERF2O-136" target="P_S8tWhegUSo4uzERF2O-136" edge="1">
          <mxGeometry relative="1" as="geometry">
            <mxPoint x="502.85" y="60" as="sourcePoint" />
            <Array as="points">
              <mxPoint x="514" y="40" />
              <mxPoint x="417" y="40" />
            </Array>
          </mxGeometry>
        </mxCell>
        <mxCell id="P_S8tWhegUSo4uzERF2O-153" value="Ошибка при входе" style="text;whiteSpace=wrap;html=1;" parent="1" vertex="1">
          <mxGeometry x="361.85" y="285" width="110" height="30" as="geometry" />
        </mxCell>
        <mxCell id="P_S8tWhegUSo4uzERF2O-154" value="Регистрация прошла успешно" style="text;whiteSpace=wrap;html=1;" parent="1" vertex="1">
          <mxGeometry x="185.35000000000002" y="65" width="170" height="30" as="geometry" />
        </mxCell>
        <mxCell id="P_S8tWhegUSo4uzERF2O-155" value="Прикрепите документы &lt;br&gt;[Неверный формат документов]" style="text;whiteSpace=wrap;html=1;" parent="1" vertex="1">
          <mxGeometry x="380.35" y="-5" width="210" height="30" as="geometry" />
        </mxCell>
        <mxCell id="P_S8tWhegUSo4uzERF2O-156" style="rounded=0;orthogonalLoop=1;jettySize=auto;html=1;exitX=0;exitY=0.5;exitDx=0;exitDy=0;entryX=1;entryY=0.5;entryDx=0;entryDy=0;" parent="1" source="P_S8tWhegUSo4uzERF2O-157" target="P_S8tWhegUSo4uzERF2O-145" edge="1">
          <mxGeometry relative="1" as="geometry" />
        </mxCell>
        <mxCell id="P_S8tWhegUSo4uzERF2O-157" value="Форма для входа в аккаунт&lt;br&gt;do/ заполнить форму" style="rounded=1;whiteSpace=wrap;html=1;" parent="1" vertex="1">
          <mxGeometry x="1135.1" y="207" width="150" height="60" as="geometry" />
        </mxCell>
        <mxCell id="P_S8tWhegUSo4uzERF2O-158" style="edgeStyle=orthogonalEdgeStyle;rounded=0;orthogonalLoop=1;jettySize=auto;html=1;exitX=0.25;exitY=1;exitDx=0;exitDy=0;curved=1;" parent="1" source="P_S8tWhegUSo4uzERF2O-139" edge="1">
          <mxGeometry relative="1" as="geometry">
            <Array as="points">
              <mxPoint x="513" y="287" />
              <mxPoint x="953" y="287" />
            </Array>
            <mxPoint x="542.85" y="290" as="sourcePoint" />
            <mxPoint x="952.85" y="267" as="targetPoint" />
          </mxGeometry>
        </mxCell>
        <mxCell id="P_S8tWhegUSo4uzERF2O-159" value="" style="rounded=0;orthogonalLoop=1;jettySize=auto;html=1;" parent="1" source="P_S8tWhegUSo4uzERF2O-160" target="P_S8tWhegUSo4uzERF2O-157" edge="1">
          <mxGeometry relative="1" as="geometry" />
        </mxCell>
        <mxCell id="P_S8tWhegUSo4uzERF2O-160" value="" style="points=[[0.145,0.145,0],[0.5,0,0],[0.855,0.145,0],[1,0.5,0],[0.855,0.855,0],[0.5,1,0],[0.145,0.855,0],[0,0.5,0]];shape=mxgraph.bpmn.event;html=1;verticalLabelPosition=bottom;labelBackgroundColor=#ffffff;verticalAlign=top;align=center;perimeter=ellipsePerimeter;outlineConnect=0;aspect=fixed;outline=standard;symbol=general;fillColor=#000000;" parent="1" vertex="1">
          <mxGeometry x="1342.85" y="212" width="50" height="50" as="geometry" />
        </mxCell>
        <mxCell id="P_S8tWhegUSo4uzERF2O-161" style="edgeStyle=orthogonalEdgeStyle;rounded=0;orthogonalLoop=1;jettySize=auto;html=1;exitX=1;exitY=0.5;exitDx=0;exitDy=0;exitPerimeter=0;entryX=0;entryY=0.5;entryDx=0;entryDy=0;" parent="1" source="P_S8tWhegUSo4uzERF2O-162" target="P_S8tWhegUSo4uzERF2O-149" edge="1">
          <mxGeometry relative="1" as="geometry" />
        </mxCell>
        <mxCell id="P_S8tWhegUSo4uzERF2O-162" value="" style="points=[[0.145,0.145,0],[0.5,0,0],[0.855,0.145,0],[1,0.5,0],[0.855,0.855,0],[0.5,1,0],[0.145,0.855,0],[0,0.5,0]];shape=mxgraph.bpmn.event;html=1;verticalLabelPosition=bottom;labelBackgroundColor=#ffffff;verticalAlign=top;align=center;perimeter=ellipsePerimeter;outlineConnect=0;aspect=fixed;outline=standard;symbol=general;fillColor=#000000;" parent="1" vertex="1">
          <mxGeometry x="430" y="-452.55999999999995" width="50" height="50" as="geometry" />
        </mxCell>
        <mxCell id="P_S8tWhegUSo4uzERF2O-163" style="edgeStyle=orthogonalEdgeStyle;rounded=0;orthogonalLoop=1;jettySize=auto;html=1;exitX=1;exitY=0.5;exitDx=0;exitDy=0;entryX=0;entryY=0.5;entryDx=0;entryDy=0;" parent="1" source="P_S8tWhegUSo4uzERF2O-164" target="P_S8tWhegUSo4uzERF2O-208" edge="1">
          <mxGeometry relative="1" as="geometry">
            <mxPoint x="1653" y="-432.56000000000006" as="targetPoint" />
          </mxGeometry>
        </mxCell>
        <mxCell id="P_S8tWhegUSo4uzERF2O-164" value="Добавить виды ставок&lt;span&gt;&lt;br&gt;&lt;/span&gt;do/открыть форму&lt;br&gt;exit/ все поля заполнены&lt;span&gt;&lt;br&gt;&lt;/span&gt;" style="rounded=1;whiteSpace=wrap;html=1;" parent="1" vertex="1">
          <mxGeometry x="1293" y="-455.3599999999999" width="236.92" height="45.61" as="geometry" />
        </mxCell>
        <mxCell id="P_S8tWhegUSo4uzERF2O-165" value="Добавить команды&lt;br&gt;[Введенные команды уже играют в этот день]" style="text;html=1;align=center;verticalAlign=middle;resizable=0;points=[];autosize=1;strokeColor=none;fillColor=none;" parent="1" vertex="1">
          <mxGeometry x="625.4599999999999" y="-513.3399999999999" width="270" height="30" as="geometry" />
        </mxCell>
        <mxCell id="P_S8tWhegUSo4uzERF2O-166" value="Вводим инфо о себе" style="text;html=1;align=center;verticalAlign=middle;resizable=0;points=[];autosize=1;strokeColor=none;fillColor=none;" parent="1" vertex="1">
          <mxGeometry x="892.85" y="65" width="130" height="20" as="geometry" />
        </mxCell>
        <mxCell id="P_S8tWhegUSo4uzERF2O-167" value="Прикрепляем&amp;nbsp;&lt;br&gt;документы" style="text;html=1;align=center;verticalAlign=middle;resizable=0;points=[];autosize=1;strokeColor=none;fillColor=none;" parent="1" vertex="1">
          <mxGeometry x="582.85" y="65" width="90" height="30" as="geometry" />
        </mxCell>
        <mxCell id="P_S8tWhegUSo4uzERF2O-168" value="Вводим логин(n)" style="text;html=1;align=center;verticalAlign=middle;resizable=0;points=[];autosize=1;strokeColor=none;fillColor=none;" parent="1" vertex="1">
          <mxGeometry x="1025.35" y="212" width="110" height="20" as="geometry" />
        </mxCell>
        <mxCell id="P_S8tWhegUSo4uzERF2O-169" value="Отправляем &lt;br&gt;форму(n)" style="text;html=1;align=center;verticalAlign=middle;resizable=0;points=[];autosize=1;strokeColor=none;fillColor=none;" parent="1" vertex="1">
          <mxGeometry x="610.35" y="205" width="80" height="30" as="geometry" />
        </mxCell>
        <mxCell id="P_S8tWhegUSo4uzERF2O-170" value="Ввод пароля (n) &lt;br&gt;[неверный логин или пароль]" style="text;html=1;align=center;verticalAlign=middle;resizable=0;points=[];autosize=1;strokeColor=none;fillColor=none;" parent="1" vertex="1">
          <mxGeometry x="637.85" y="305" width="180" height="30" as="geometry" />
        </mxCell>
        <mxCell id="P_S8tWhegUSo4uzERF2O-171" value="Восстановление аккаунта" style="text;html=1;align=center;verticalAlign=middle;resizable=0;points=[];autosize=1;strokeColor=none;fillColor=none;" parent="1" vertex="1">
          <mxGeometry x="882.85" y="346.59000000000003" width="160" height="20" as="geometry" />
        </mxCell>
        <mxCell id="P_S8tWhegUSo4uzERF2O-172" value="Добавляем команды" style="text;html=1;align=center;verticalAlign=middle;resizable=0;points=[];autosize=1;strokeColor=none;fillColor=none;" parent="1" vertex="1">
          <mxGeometry x="512.9999999999999" y="-452.55999999999995" width="130" height="20" as="geometry" />
        </mxCell>
        <mxCell id="P_S8tWhegUSo4uzERF2O-173" value="Добавляем виды &lt;br&gt;ставок" style="text;html=1;align=center;verticalAlign=middle;resizable=0;points=[];autosize=1;strokeColor=none;fillColor=none;" parent="1" vertex="1">
          <mxGeometry x="1161.56" y="-463.80999999999995" width="110" height="30" as="geometry" />
        </mxCell>
        <mxCell id="P_S8tWhegUSo4uzERF2O-174" value="" style="endArrow=none;html=1;rounded=0;fontSize=12;curved=1;entryX=1;entryY=0.5;entryDx=0;entryDy=0;exitX=0;exitY=0.5;exitDx=0;exitDy=0;" parent="1" source="P_S8tWhegUSo4uzERF2O-131" target="P_S8tWhegUSo4uzERF2O-131" edge="1">
          <mxGeometry width="50" height="50" relative="1" as="geometry">
            <mxPoint x="1217.85" y="88.94999999999982" as="sourcePoint" />
            <mxPoint x="1317.85" y="88.95000000000005" as="targetPoint" />
          </mxGeometry>
        </mxCell>
        <mxCell id="P_S8tWhegUSo4uzERF2O-175" value="" style="endArrow=none;html=1;rounded=0;fontSize=12;curved=1;entryX=1;entryY=0.25;entryDx=0;entryDy=0;exitX=0;exitY=0.25;exitDx=0;exitDy=0;" parent="1" source="P_S8tWhegUSo4uzERF2O-134" target="P_S8tWhegUSo4uzERF2O-134" edge="1">
          <mxGeometry width="50" height="50" relative="1" as="geometry">
            <mxPoint x="652.85" y="90" as="sourcePoint" />
            <mxPoint x="832.8499999999996" y="90" as="targetPoint" />
          </mxGeometry>
        </mxCell>
        <mxCell id="P_S8tWhegUSo4uzERF2O-176" value="" style="endArrow=none;html=1;rounded=0;fontSize=12;curved=1;exitX=0;exitY=0.5;exitDx=0;exitDy=0;entryX=1;entryY=0.5;entryDx=0;entryDy=0;" parent="1" source="P_S8tWhegUSo4uzERF2O-136" target="P_S8tWhegUSo4uzERF2O-136" edge="1">
          <mxGeometry width="50" height="50" relative="1" as="geometry">
            <mxPoint x="367.85" y="78.94999999999982" as="sourcePoint" />
            <mxPoint x="562.85" y="79" as="targetPoint" />
          </mxGeometry>
        </mxCell>
        <mxCell id="P_S8tWhegUSo4uzERF2O-177" value="" style="endArrow=none;html=1;rounded=0;fontSize=12;curved=1;entryX=0.999;entryY=0.66;entryDx=0;entryDy=0;entryPerimeter=0;" parent="1" target="P_S8tWhegUSo4uzERF2O-157" edge="1">
          <mxGeometry width="50" height="50" relative="1" as="geometry">
            <mxPoint x="1134.6" y="246.1300000000001" as="sourcePoint" />
            <mxPoint x="1280.1" y="246" as="targetPoint" />
          </mxGeometry>
        </mxCell>
        <mxCell id="P_S8tWhegUSo4uzERF2O-178" value="" style="endArrow=none;html=1;rounded=0;fontSize=12;curved=1;" parent="1" edge="1">
          <mxGeometry width="50" height="50" relative="1" as="geometry">
            <mxPoint x="912.85" y="229.69999999999982" as="sourcePoint" />
            <mxPoint x="1032.85" y="229.69999999999982" as="targetPoint" />
          </mxGeometry>
        </mxCell>
        <mxCell id="P_S8tWhegUSo4uzERF2O-179" value="" style="endArrow=none;html=1;rounded=0;fontSize=12;curved=1;" parent="1" edge="1">
          <mxGeometry width="50" height="50" relative="1" as="geometry">
            <mxPoint x="697.35" y="229.69999999999982" as="sourcePoint" />
            <mxPoint x="817.35" y="229.69999999999982" as="targetPoint" />
          </mxGeometry>
        </mxCell>
        <mxCell id="P_S8tWhegUSo4uzERF2O-180" value="" style="endArrow=none;html=1;rounded=0;fontSize=12;curved=1;entryX=1;entryY=0.5;entryDx=0;entryDy=0;exitX=0;exitY=0.5;exitDx=0;exitDy=0;" parent="1" source="P_S8tWhegUSo4uzERF2O-141" target="P_S8tWhegUSo4uzERF2O-141" edge="1">
          <mxGeometry width="50" height="50" relative="1" as="geometry">
            <mxPoint x="923.35" y="366.75" as="sourcePoint" />
            <mxPoint x="1043.35" y="366.75" as="targetPoint" />
          </mxGeometry>
        </mxCell>
        <mxCell id="P_S8tWhegUSo4uzERF2O-181" value="" style="endArrow=none;html=1;rounded=0;fontSize=12;curved=1;entryX=1;entryY=0.5;entryDx=0;entryDy=0;exitX=0;exitY=0.5;exitDx=0;exitDy=0;" parent="1" source="P_S8tWhegUSo4uzERF2O-149" target="P_S8tWhegUSo4uzERF2O-149" edge="1">
          <mxGeometry width="50" height="50" relative="1" as="geometry">
            <mxPoint x="673.4999999999999" y="-417.55999999999995" as="sourcePoint" />
            <mxPoint x="793.4999999999999" y="-417.55999999999995" as="targetPoint" />
          </mxGeometry>
        </mxCell>
        <mxCell id="P_S8tWhegUSo4uzERF2O-182" value="" style="endArrow=none;html=1;rounded=0;fontSize=12;curved=1;exitX=-0.001;exitY=0.395;exitDx=0;exitDy=0;exitPerimeter=0;" parent="1" source="P_S8tWhegUSo4uzERF2O-164" edge="1">
          <mxGeometry width="50" height="50" relative="1" as="geometry">
            <mxPoint x="1292.999999999999" y="-447.9799999999997" as="sourcePoint" />
            <mxPoint x="1529.92" y="-436.9499999999995" as="targetPoint" />
          </mxGeometry>
        </mxCell>
        <mxCell id="P_S8tWhegUSo4uzERF2O-183" value="Зарегистрироваться" style="text;html=1;align=center;verticalAlign=middle;resizable=0;points=[];autosize=1;strokeColor=none;fillColor=none;fontSize=12;" parent="1" vertex="1">
          <mxGeometry x="1197.93" y="5" width="130" height="20" as="geometry" />
        </mxCell>
        <mxCell id="P_S8tWhegUSo4uzERF2O-184" value="" style="points=[[0.145,0.145,0],[0.5,0,0],[0.855,0.145,0],[1,0.5,0],[0.855,0.855,0],[0.5,1,0],[0.145,0.855,0],[0,0.5,0]];shape=mxgraph.bpmn.event;html=1;verticalLabelPosition=bottom;labelBackgroundColor=#ffffff;verticalAlign=top;align=center;perimeter=ellipsePerimeter;outlineConnect=0;aspect=fixed;outline=end;symbol=terminate2;" parent="1" vertex="1">
          <mxGeometry x="120.35000000000002" y="65" width="50" height="50" as="geometry" />
        </mxCell>
        <mxCell id="P_S8tWhegUSo4uzERF2O-185" value="" style="endArrow=none;html=1;rounded=0;fontSize=12;curved=1;" parent="1" edge="1">
          <mxGeometry width="50" height="50" relative="1" as="geometry">
            <mxPoint x="482.85" y="236.65999999999985" as="sourcePoint" />
            <mxPoint x="602.85" y="236.65999999999985" as="targetPoint" />
          </mxGeometry>
        </mxCell>
        <mxCell id="P_S8tWhegUSo4uzERF2O-186" value="" style="points=[[0.145,0.145,0],[0.5,0,0],[0.855,0.145,0],[1,0.5,0],[0.855,0.855,0],[0.5,1,0],[0.145,0.855,0],[0,0.5,0]];shape=mxgraph.bpmn.event;html=1;verticalLabelPosition=bottom;labelBackgroundColor=#ffffff;verticalAlign=top;align=center;perimeter=ellipsePerimeter;outlineConnect=0;aspect=fixed;outline=end;symbol=terminate2;" parent="1" vertex="1">
          <mxGeometry x="327.85" y="212" width="50" height="50" as="geometry" />
        </mxCell>
        <mxCell id="P_S8tWhegUSo4uzERF2O-187" value="Входим в аккаунт" style="text;whiteSpace=wrap;html=1;" parent="1" vertex="1">
          <mxGeometry x="34.06000000000006" y="183.27999999999997" width="100" height="30" as="geometry" />
        </mxCell>
        <mxCell id="P_S8tWhegUSo4uzERF2O-188" value="" style="endArrow=none;dashed=1;html=1;rounded=0;curved=1;exitX=-0.002;exitY=0.316;exitDx=0;exitDy=0;entryX=1;entryY=0.319;entryDx=0;entryDy=0;exitPerimeter=0;entryPerimeter=0;" parent="1" source="P_S8tWhegUSo4uzERF2O-121" target="P_S8tWhegUSo4uzERF2O-121" edge="1">
          <mxGeometry width="50" height="50" relative="1" as="geometry">
            <mxPoint x="152.85000000000002" y="170.00000000000023" as="sourcePoint" />
            <mxPoint x="1371.3200000000002" y="171.81999999999994" as="targetPoint" />
          </mxGeometry>
        </mxCell>
        <mxCell id="P_S8tWhegUSo4uzERF2O-189" value="&lt;b&gt;&lt;font style=&quot;font-size: 24px&quot;&gt;Действия пользователя с аккаунтом и средствами&lt;/font&gt;&lt;/b&gt;" style="text;html=1;strokeColor=none;fillColor=none;align=center;verticalAlign=middle;whiteSpace=wrap;rounded=0;" parent="1" vertex="1">
          <mxGeometry x="250.34000000000003" y="-71.1099999999999" width="820" height="30" as="geometry" />
        </mxCell>
        <mxCell id="P_S8tWhegUSo4uzERF2O-190" value="" style="endArrow=none;html=1;rounded=0;curved=1;exitX=0.005;exitY=0.08;exitDx=0;exitDy=0;exitPerimeter=0;entryX=0.994;entryY=0.075;entryDx=0;entryDy=0;entryPerimeter=0;" parent="1" source="P_S8tWhegUSo4uzERF2O-121" target="P_S8tWhegUSo4uzERF2O-121" edge="1">
          <mxGeometry width="50" height="50" relative="1" as="geometry">
            <mxPoint x="79.53999999999985" y="-35.59999999999968" as="sourcePoint" />
            <mxPoint x="1242.3500000000004" y="-38.329999999999245" as="targetPoint" />
          </mxGeometry>
        </mxCell>
        <mxCell id="P_S8tWhegUSo4uzERF2O-191" value="&lt;b&gt;&lt;font style=&quot;font-size: 24px&quot;&gt;Добавить матч в каталог&lt;/font&gt;&lt;/b&gt;" style="text;html=1;strokeColor=none;fillColor=none;align=center;verticalAlign=middle;whiteSpace=wrap;rounded=0;" parent="1" vertex="1">
          <mxGeometry x="583.0799999999999" y="-597.01" width="820" height="30" as="geometry" />
        </mxCell>
        <mxCell id="P_S8tWhegUSo4uzERF2O-192" value="" style="endArrow=none;html=1;rounded=0;curved=1;exitX=0;exitY=0.137;exitDx=0;exitDy=0;exitPerimeter=0;entryX=1;entryY=0.143;entryDx=0;entryDy=0;entryPerimeter=0;" parent="1" source="P_S8tWhegUSo4uzERF2O-122" target="P_S8tWhegUSo4uzERF2O-122" edge="1">
          <mxGeometry width="50" height="50" relative="1" as="geometry">
            <mxPoint x="413.0799999999991" y="-553.2000000000002" as="sourcePoint" />
            <mxPoint x="1575.8899999999999" y="-555.2999999999996" as="targetPoint" />
          </mxGeometry>
        </mxCell>
        <mxCell id="P_S8tWhegUSo4uzERF2O-193" value="" style="points=[[0.145,0.145,0],[0.5,0,0],[0.855,0.145,0],[1,0.5,0],[0.855,0.855,0],[0.5,1,0],[0.145,0.855,0],[0,0.5,0]];shape=mxgraph.bpmn.event;html=1;verticalLabelPosition=bottom;labelBackgroundColor=#ffffff;verticalAlign=top;align=center;perimeter=ellipsePerimeter;outlineConnect=0;aspect=fixed;outline=end;symbol=terminate2;" parent="1" vertex="1">
          <mxGeometry x="112.99999999999999" y="-550.11" width="50" height="50" as="geometry" />
        </mxCell>
        <mxCell id="P_S8tWhegUSo4uzERF2O-194" style="edgeStyle=orthogonalEdgeStyle;rounded=0;orthogonalLoop=1;jettySize=auto;html=1;exitX=0.75;exitY=0;exitDx=0;exitDy=0;entryX=0.25;entryY=0;entryDx=0;entryDy=0;curved=1;" parent="1" source="P_S8tWhegUSo4uzERF2O-134" target="P_S8tWhegUSo4uzERF2O-134" edge="1">
          <mxGeometry relative="1" as="geometry">
            <Array as="points">
              <mxPoint x="825" y="35" />
              <mxPoint x="740" y="35" />
            </Array>
          </mxGeometry>
        </mxCell>
        <mxCell id="P_S8tWhegUSo4uzERF2O-195" value="Введите личную информацию&lt;br&gt;[несоответствующий формат]" style="text;html=1;align=center;verticalAlign=middle;resizable=0;points=[];autosize=1;strokeColor=none;fillColor=none;" parent="1" vertex="1">
          <mxGeometry x="652.85" y="10" width="180" height="30" as="geometry" />
        </mxCell>
        <mxCell id="P_S8tWhegUSo4uzERF2O-196" value="Добавляем время" style="text;html=1;align=center;verticalAlign=middle;resizable=0;points=[];autosize=1;strokeColor=none;fillColor=none;fontSize=12;" parent="1" vertex="1">
          <mxGeometry x="857.77" y="-451.65999999999997" width="120" height="20" as="geometry" />
        </mxCell>
        <mxCell id="P_S8tWhegUSo4uzERF2O-197" style="edgeStyle=orthogonalEdgeStyle;rounded=0;orthogonalLoop=1;jettySize=auto;html=1;exitX=1;exitY=0.5;exitDx=0;exitDy=0;entryX=0;entryY=0.5;entryDx=0;entryDy=0;" parent="1" target="P_S8tWhegUSo4uzERF2O-200" edge="1">
          <mxGeometry relative="1" as="geometry">
            <mxPoint x="1893" y="-432.5600000000005" as="sourcePoint" />
          </mxGeometry>
        </mxCell>
        <mxCell id="P_S8tWhegUSo4uzERF2O-198" value="Рассчитываем&amp;nbsp;&lt;br&gt;коэффициенты" style="text;html=1;align=center;verticalAlign=middle;resizable=0;points=[];autosize=1;strokeColor=none;fillColor=none;" parent="1" vertex="1">
          <mxGeometry x="1544.92" y="-465.78" width="100" height="30" as="geometry" />
        </mxCell>
        <mxCell id="P_S8tWhegUSo4uzERF2O-199" value="" style="edgeStyle=orthogonalEdgeStyle;rounded=0;orthogonalLoop=1;jettySize=auto;html=1;" parent="1" source="P_S8tWhegUSo4uzERF2O-200" target="P_S8tWhegUSo4uzERF2O-203" edge="1">
          <mxGeometry relative="1" as="geometry" />
        </mxCell>
        <mxCell id="P_S8tWhegUSo4uzERF2O-200" value="Добавить коэффициенты&lt;br&gt;&lt;span&gt;do/вписываем коэффициенты в поля типов ставок&lt;br&gt;exit/ коэф. вписаны&lt;br&gt;&lt;/span&gt;" style="rounded=1;whiteSpace=wrap;html=1;" parent="1" vertex="1">
          <mxGeometry x="1999.92" y="-468.80999999999995" width="166.92" height="72.5" as="geometry" />
        </mxCell>
        <mxCell id="P_S8tWhegUSo4uzERF2O-201" value="Вводим пароль(n)" style="text;html=1;align=center;verticalAlign=middle;resizable=0;points=[];autosize=1;strokeColor=none;fillColor=none;" parent="1" vertex="1">
          <mxGeometry x="807.85" y="200" width="120" height="20" as="geometry" />
        </mxCell>
        <mxCell id="P_S8tWhegUSo4uzERF2O-202" style="edgeStyle=orthogonalEdgeStyle;rounded=0;orthogonalLoop=1;jettySize=auto;html=1;entryX=0;entryY=0.5;entryDx=0;entryDy=0;" parent="1" source="P_S8tWhegUSo4uzERF2O-203" target="P_S8tWhegUSo4uzERF2O-205" edge="1">
          <mxGeometry relative="1" as="geometry" />
        </mxCell>
        <mxCell id="P_S8tWhegUSo4uzERF2O-203" value="Настроить трансляцию матча&lt;span&gt;&lt;br&gt;&lt;/span&gt;" style="rounded=1;whiteSpace=wrap;html=1;" parent="1" vertex="1">
          <mxGeometry x="2259.92" y="-467.87" width="100" height="72.5" as="geometry" />
        </mxCell>
        <mxCell id="P_S8tWhegUSo4uzERF2O-204" style="edgeStyle=orthogonalEdgeStyle;rounded=0;orthogonalLoop=1;jettySize=auto;html=1;entryX=0;entryY=0.5;entryDx=0;entryDy=0;" parent="1" source="P_S8tWhegUSo4uzERF2O-205" target="P_S8tWhegUSo4uzERF2O-207" edge="1">
          <mxGeometry relative="1" as="geometry" />
        </mxCell>
        <mxCell id="P_S8tWhegUSo4uzERF2O-205" value="Настроить транскрибацию&lt;span&gt;&lt;br&gt;&lt;/span&gt;" style="rounded=1;whiteSpace=wrap;html=1;" parent="1" vertex="1">
          <mxGeometry x="2459.92" y="-467.87" width="110" height="72.5" as="geometry" />
        </mxCell>
        <mxCell id="P_S8tWhegUSo4uzERF2O-206" style="edgeStyle=orthogonalEdgeStyle;rounded=0;orthogonalLoop=1;jettySize=auto;html=1;exitX=0.5;exitY=1;exitDx=0;exitDy=0;entryX=0.75;entryY=1;entryDx=0;entryDy=0;curved=1;" parent="1" source="P_S8tWhegUSo4uzERF2O-207" target="P_S8tWhegUSo4uzERF2O-127" edge="1">
          <mxGeometry relative="1" as="geometry">
            <Array as="points">
              <mxPoint x="2720" y="-210" />
              <mxPoint x="246" y="-210" />
            </Array>
          </mxGeometry>
        </mxCell>
        <mxCell id="P_S8tWhegUSo4uzERF2O-207" value="Добавить матч в каталог&lt;span&gt;&lt;br&gt;&lt;/span&gt;" style="rounded=1;whiteSpace=wrap;html=1;" parent="1" vertex="1">
          <mxGeometry x="2664.92" y="-467.87" width="110" height="72.5" as="geometry" />
        </mxCell>
        <mxCell id="P_S8tWhegUSo4uzERF2O-208" value="Рассчитать коэффициенты&lt;span&gt;&lt;br&gt;&lt;/span&gt;do/рассчитать коэф. в программе&lt;br&gt;exit/ коэффициенты успешно расчитаны&lt;span&gt;&lt;br&gt;&lt;/span&gt;" style="rounded=1;whiteSpace=wrap;html=1;" parent="1" vertex="1">
          <mxGeometry x="1660.16" y="-455.3599999999999" width="236.92" height="45.61" as="geometry" />
        </mxCell>
        <mxCell id="P_S8tWhegUSo4uzERF2O-209" value="" style="endArrow=none;html=1;rounded=0;fontSize=12;curved=1;exitX=-0.001;exitY=0.395;exitDx=0;exitDy=0;exitPerimeter=0;entryX=0.997;entryY=0.341;entryDx=0;entryDy=0;entryPerimeter=0;" parent="1" source="P_S8tWhegUSo4uzERF2O-208" target="P_S8tWhegUSo4uzERF2O-208" edge="1">
          <mxGeometry width="50" height="50" relative="1" as="geometry">
            <mxPoint x="1660.1599999999992" y="-445.48999999999967" as="sourcePoint" />
            <mxPoint x="1897.0800000000002" y="-434.4599999999999" as="targetPoint" />
          </mxGeometry>
        </mxCell>
        <mxCell id="P_S8tWhegUSo4uzERF2O-210" value="Добавляем &lt;br&gt;коэффициенты" style="text;html=1;align=center;verticalAlign=middle;resizable=0;points=[];autosize=1;strokeColor=none;fillColor=none;" parent="1" vertex="1">
          <mxGeometry x="1897.0800000000002" y="-472.66999999999996" width="100" height="30" as="geometry" />
        </mxCell>
        <mxCell id="P_S8tWhegUSo4uzERF2O-211" value="" style="endArrow=none;html=1;rounded=0;fontSize=12;curved=1;exitX=0;exitY=0.25;exitDx=0;exitDy=0;entryX=1;entryY=0.25;entryDx=0;entryDy=0;" parent="1" source="P_S8tWhegUSo4uzERF2O-200" target="P_S8tWhegUSo4uzERF2O-200" edge="1">
          <mxGeometry width="50" height="50" relative="1" as="geometry">
            <mxPoint x="1669.9230799999996" y="-427.3440499999998" as="sourcePoint" />
            <mxPoint x="1906.36924" y="-429.8069899999999" as="targetPoint" />
          </mxGeometry>
        </mxCell>
        <mxCell id="P_S8tWhegUSo4uzERF2O-212" value="" style="rounded=1;whiteSpace=wrap;html=1;fillColor=none;" parent="1" vertex="1">
          <mxGeometry x="-1661" y="-567.01" width="1601" height="357.01" as="geometry" />
        </mxCell>
        <mxCell id="P_S8tWhegUSo4uzERF2O-213" value="" style="edgeStyle=orthogonalEdgeStyle;rounded=0;orthogonalLoop=1;jettySize=auto;html=1;" parent="1" source="P_S8tWhegUSo4uzERF2O-214" target="P_S8tWhegUSo4uzERF2O-263" edge="1">
          <mxGeometry relative="1" as="geometry" />
        </mxCell>
        <mxCell id="P_S8tWhegUSo4uzERF2O-214" value="Выбрать сумму ставки&lt;span&gt;&lt;br&gt;entry/показать поле ввода ставки&lt;br&gt;do/ ввести сумму&lt;br&gt;exit/сумма зарегистрирована&lt;br&gt;&lt;/span&gt;" style="rounded=1;whiteSpace=wrap;html=1;" parent="1" vertex="1">
          <mxGeometry x="-360" y="-429.99999999999994" width="191.02" height="60" as="geometry" />
        </mxCell>
        <mxCell id="P_S8tWhegUSo4uzERF2O-215" value="" style="edgeStyle=orthogonalEdgeStyle;rounded=0;orthogonalLoop=1;jettySize=auto;html=1;" parent="1" source="P_S8tWhegUSo4uzERF2O-216" target="P_S8tWhegUSo4uzERF2O-214" edge="1">
          <mxGeometry relative="1" as="geometry" />
        </mxCell>
        <mxCell id="P_S8tWhegUSo4uzERF2O-216" value="Выбрать команду&lt;br&gt;&lt;span&gt;&lt;br&gt;do/Выбрать одну из двух команд&lt;br&gt;exit/команда выбрана&lt;br&gt;&lt;/span&gt;" style="rounded=1;whiteSpace=wrap;html=1;" parent="1" vertex="1">
          <mxGeometry x="-683.4200000000001" y="-430.07" width="260" height="61.89" as="geometry" />
        </mxCell>
        <mxCell id="P_S8tWhegUSo4uzERF2O-217" style="edgeStyle=orthogonalEdgeStyle;rounded=0;orthogonalLoop=1;jettySize=auto;html=1;exitX=1;exitY=0.5;exitDx=0;exitDy=0;entryX=0;entryY=0.5;entryDx=0;entryDy=0;" parent="1" source="P_S8tWhegUSo4uzERF2O-218" target="P_S8tWhegUSo4uzERF2O-216" edge="1">
          <mxGeometry relative="1" as="geometry">
            <mxPoint x="-703.4200000000001" y="-391.01" as="targetPoint" />
          </mxGeometry>
        </mxCell>
        <mxCell id="P_S8tWhegUSo4uzERF2O-218" value="Выбираем тип ставки&lt;br&gt;do/выбираем из предложенного тип ставки&lt;br&gt;&lt;span&gt;exit/тип выбран&lt;br&gt;&lt;/span&gt;" style="rounded=1;whiteSpace=wrap;html=1;" parent="1" vertex="1">
          <mxGeometry x="-1061" y="-429.12" width="197.58" height="60" as="geometry" />
        </mxCell>
        <mxCell id="P_S8tWhegUSo4uzERF2O-219" style="edgeStyle=orthogonalEdgeStyle;curved=1;rounded=0;orthogonalLoop=1;jettySize=auto;html=1;exitX=1;exitY=0.5;exitDx=0;exitDy=0;entryX=0;entryY=0.5;entryDx=0;entryDy=0;" parent="1" source="P_S8tWhegUSo4uzERF2O-220" target="P_S8tWhegUSo4uzERF2O-218" edge="1">
          <mxGeometry relative="1" as="geometry" />
        </mxCell>
        <mxCell id="P_S8tWhegUSo4uzERF2O-220" value="Выбираем футбольный матч&lt;br&gt;&lt;span&gt;&lt;br&gt;do/ Выбираем из предложенного списка мачт&lt;br&gt;exit/ матч выбран&lt;br&gt;&lt;/span&gt;" style="rounded=1;whiteSpace=wrap;html=1;" parent="1" vertex="1">
          <mxGeometry x="-1455" y="-441.67999999999984" width="270" height="85.11" as="geometry" />
        </mxCell>
        <mxCell id="P_S8tWhegUSo4uzERF2O-221" style="edgeStyle=orthogonalEdgeStyle;curved=1;rounded=0;orthogonalLoop=1;jettySize=auto;html=1;exitX=1;exitY=0.5;exitDx=0;exitDy=0;exitPerimeter=0;entryX=0;entryY=0.5;entryDx=0;entryDy=0;" parent="1" source="P_S8tWhegUSo4uzERF2O-222" target="P_S8tWhegUSo4uzERF2O-220" edge="1">
          <mxGeometry relative="1" as="geometry">
            <mxPoint x="-1391.5" y="-399.2152380952382" as="targetPoint" />
          </mxGeometry>
        </mxCell>
        <mxCell id="P_S8tWhegUSo4uzERF2O-222" value="" style="points=[[0.145,0.145,0],[0.5,0,0],[0.855,0.145,0],[1,0.5,0],[0.855,0.855,0],[0.5,1,0],[0.145,0.855,0],[0,0.5,0]];shape=mxgraph.bpmn.event;html=1;verticalLabelPosition=bottom;labelBackgroundColor=#ffffff;verticalAlign=top;align=center;perimeter=ellipsePerimeter;outlineConnect=0;aspect=fixed;outline=standard;symbol=general;fillColor=#000000;" parent="1" vertex="1">
          <mxGeometry x="-1646.5" y="-424.1200000000001" width="50" height="50" as="geometry" />
        </mxCell>
        <mxCell id="P_S8tWhegUSo4uzERF2O-223" value="Выбираем команду" style="text;html=1;align=center;verticalAlign=middle;resizable=0;points=[];autosize=1;strokeColor=none;fillColor=none;" parent="1" vertex="1">
          <mxGeometry x="-846.5" y="-431.0099999999999" width="120" height="20" as="geometry" />
        </mxCell>
        <mxCell id="P_S8tWhegUSo4uzERF2O-224" value="Выбираем футбольный &lt;br&gt;матч" style="text;html=1;align=center;verticalAlign=middle;resizable=0;points=[];autosize=1;strokeColor=none;fillColor=none;" parent="1" vertex="1">
          <mxGeometry x="-1605" y="-429.1199999999999" width="150" height="30" as="geometry" />
        </mxCell>
        <mxCell id="P_S8tWhegUSo4uzERF2O-225" value="Выбираем тип лица" style="text;html=1;align=center;verticalAlign=middle;resizable=0;points=[];autosize=1;strokeColor=none;fillColor=none;" parent="1" vertex="1">
          <mxGeometry x="-1185" y="-416.0100000000001" width="130" height="20" as="geometry" />
        </mxCell>
        <mxCell id="P_S8tWhegUSo4uzERF2O-226" value="&lt;b&gt;&lt;font style=&quot;font-size: 24px&quot;&gt;Сделать ставку&lt;/font&gt;&lt;/b&gt;" style="text;html=1;strokeColor=none;fillColor=none;align=center;verticalAlign=middle;whiteSpace=wrap;rounded=0;" parent="1" vertex="1">
          <mxGeometry x="-1466" y="-567.01" width="820" height="30" as="geometry" />
        </mxCell>
        <mxCell id="P_S8tWhegUSo4uzERF2O-227" value="" style="endArrow=none;html=1;rounded=0;curved=1;exitX=0.001;exitY=0.083;exitDx=0;exitDy=0;exitPerimeter=0;entryX=1;entryY=0.087;entryDx=0;entryDy=0;entryPerimeter=0;" parent="1" source="P_S8tWhegUSo4uzERF2O-212" target="P_S8tWhegUSo4uzERF2O-212" edge="1">
          <mxGeometry width="50" height="50" relative="1" as="geometry">
            <mxPoint x="-971" y="-314.01" as="sourcePoint" />
            <mxPoint x="-921" y="-364.01" as="targetPoint" />
          </mxGeometry>
        </mxCell>
        <mxCell id="P_S8tWhegUSo4uzERF2O-228" value="" style="endArrow=none;html=1;rounded=0;fontSize=12;curved=1;exitX=0;exitY=0.25;exitDx=0;exitDy=0;entryX=1;entryY=0.25;entryDx=0;entryDy=0;" parent="1" source="P_S8tWhegUSo4uzERF2O-218" target="P_S8tWhegUSo4uzERF2O-218" edge="1">
          <mxGeometry width="50" height="50" relative="1" as="geometry">
            <mxPoint x="-1060.9999999999995" y="-406.1200000000006" as="sourcePoint" />
            <mxPoint x="-940.9999999999995" y="-406.1200000000006" as="targetPoint" />
          </mxGeometry>
        </mxCell>
        <mxCell id="P_S8tWhegUSo4uzERF2O-229" value="" style="endArrow=none;html=1;rounded=0;fontSize=12;edgeStyle=orthogonalEdgeStyle;exitX=0;exitY=0.25;exitDx=0;exitDy=0;entryX=1;entryY=0.25;entryDx=0;entryDy=0;" parent="1" source="P_S8tWhegUSo4uzERF2O-214" target="P_S8tWhegUSo4uzERF2O-214" edge="1">
          <mxGeometry width="50" height="50" relative="1" as="geometry">
            <mxPoint x="-746.25" y="-277.89000000000055" as="sourcePoint" />
            <mxPoint x="-634.44" y="-281.78" as="targetPoint" />
            <Array as="points" />
          </mxGeometry>
        </mxCell>
        <mxCell id="P_S8tWhegUSo4uzERF2O-230" value="" style="endArrow=none;html=1;rounded=0;fontSize=12;curved=1;entryX=1.001;entryY=0.398;entryDx=0;entryDy=0;entryPerimeter=0;" parent="1" target="P_S8tWhegUSo4uzERF2O-220" edge="1">
          <mxGeometry width="50" height="50" relative="1" as="geometry">
            <mxPoint x="-1455.999999999999" y="-409.1200000000006" as="sourcePoint" />
            <mxPoint x="-1336" y="-409.1200000000001" as="targetPoint" />
          </mxGeometry>
        </mxCell>
        <mxCell id="P_S8tWhegUSo4uzERF2O-231" value="" style="endArrow=none;html=1;rounded=0;fontSize=12;entryX=1;entryY=0.5;entryDx=0;entryDy=0;edgeStyle=orthogonalEdgeStyle;" parent="1" target="P_S8tWhegUSo4uzERF2O-216" edge="1">
          <mxGeometry width="50" height="50" relative="1" as="geometry">
            <mxPoint x="-693.4199999999992" y="-405.8999999999994" as="sourcePoint" />
            <mxPoint x="-573.4200000000001" y="-405.89999999999975" as="targetPoint" />
            <Array as="points">
              <mxPoint x="-693.4200000000001" y="-400.01" />
            </Array>
          </mxGeometry>
        </mxCell>
        <mxCell id="P_S8tWhegUSo4uzERF2O-232" style="edgeStyle=orthogonalEdgeStyle;rounded=0;orthogonalLoop=1;jettySize=auto;html=1;exitX=0.75;exitY=0;exitDx=0;exitDy=0;entryX=0.25;entryY=0;entryDx=0;entryDy=0;curved=1;" parent="1" source="P_S8tWhegUSo4uzERF2O-214" target="P_S8tWhegUSo4uzERF2O-214" edge="1">
          <mxGeometry relative="1" as="geometry">
            <Array as="points">
              <mxPoint x="-217" y="-450" />
              <mxPoint x="-312" y="-450" />
            </Array>
          </mxGeometry>
        </mxCell>
        <mxCell id="P_S8tWhegUSo4uzERF2O-233" style="edgeStyle=orthogonalEdgeStyle;rounded=0;orthogonalLoop=1;jettySize=auto;html=1;exitX=0.75;exitY=0;exitDx=0;exitDy=0;entryX=0.25;entryY=0;entryDx=0;entryDy=0;curved=1;" parent="1" source="P_S8tWhegUSo4uzERF2O-218" target="P_S8tWhegUSo4uzERF2O-218" edge="1">
          <mxGeometry relative="1" as="geometry">
            <Array as="points">
              <mxPoint x="-913" y="-449" />
              <mxPoint x="-1012" y="-449" />
            </Array>
          </mxGeometry>
        </mxCell>
        <mxCell id="P_S8tWhegUSo4uzERF2O-234" value="Выберите тип&lt;br&gt;/[данный тип ставки не подходит для выбранного матча]&lt;br&gt;/[данный тип ставки заблокирован администратором]" style="text;html=1;align=center;verticalAlign=middle;resizable=0;points=[];autosize=1;strokeColor=none;fillColor=none;" parent="1" vertex="1">
          <mxGeometry x="-1137.21" y="-500.9099999999999" width="330" height="50" as="geometry" />
        </mxCell>
        <mxCell id="P_S8tWhegUSo4uzERF2O-235" value="Уйти с сайта" style="text;html=1;align=center;verticalAlign=middle;resizable=0;points=[];autosize=1;strokeColor=none;fillColor=none;" parent="1" vertex="1">
          <mxGeometry x="92.99999999999997" y="-575.1100000000001" width="90" height="20" as="geometry" />
        </mxCell>
        <mxCell id="P_S8tWhegUSo4uzERF2O-236" style="edgeStyle=orthogonalEdgeStyle;rounded=0;orthogonalLoop=1;jettySize=auto;html=1;exitX=0.75;exitY=0;exitDx=0;exitDy=0;entryX=0.25;entryY=0;entryDx=0;entryDy=0;curved=1;" parent="1" source="P_S8tWhegUSo4uzERF2O-238" target="P_S8tWhegUSo4uzERF2O-238" edge="1">
          <mxGeometry relative="1" as="geometry">
            <mxPoint x="341.64" y="539.21" as="targetPoint" />
            <Array as="points">
              <mxPoint x="517" y="486" />
              <mxPoint x="447" y="486" />
            </Array>
          </mxGeometry>
        </mxCell>
        <mxCell id="P_S8tWhegUSo4uzERF2O-237" value="" style="edgeStyle=orthogonalEdgeStyle;rounded=0;orthogonalLoop=1;jettySize=auto;html=1;" parent="1" source="P_S8tWhegUSo4uzERF2O-238" target="P_S8tWhegUSo4uzERF2O-240" edge="1">
          <mxGeometry relative="1" as="geometry" />
        </mxCell>
        <mxCell id="P_S8tWhegUSo4uzERF2O-238" value="&lt;span&gt;Закрыть ставку раньше&lt;br&gt;&lt;/span&gt;do/ Ввести пароль&lt;span&gt;&lt;br&gt;&lt;/span&gt;" style="rounded=1;whiteSpace=wrap;html=1;" parent="1" vertex="1">
          <mxGeometry x="411.64" y="506.21000000000004" width="140" height="60" as="geometry" />
        </mxCell>
        <mxCell id="P_S8tWhegUSo4uzERF2O-239" value="" style="edgeStyle=orthogonalEdgeStyle;rounded=0;orthogonalLoop=1;jettySize=auto;html=1;" parent="1" source="P_S8tWhegUSo4uzERF2O-240" target="P_S8tWhegUSo4uzERF2O-256" edge="1">
          <mxGeometry relative="1" as="geometry" />
        </mxCell>
        <mxCell id="P_S8tWhegUSo4uzERF2O-240" value="Вывести денежные средства с сайта&lt;span&gt;&lt;br&gt;&lt;/span&gt;&lt;br&gt;entry/открыть окно онлайн банка&lt;br&gt;do/ вывести ошибку&lt;span&gt;&lt;br&gt;&lt;/span&gt;" style="rounded=1;whiteSpace=wrap;html=1;" parent="1" vertex="1">
          <mxGeometry x="139.14" y="506.21000000000004" width="210" height="60" as="geometry" />
        </mxCell>
        <mxCell id="P_S8tWhegUSo4uzERF2O-241" style="edgeStyle=orthogonalEdgeStyle;rounded=0;orthogonalLoop=1;jettySize=auto;html=1;exitX=0;exitY=0.5;exitDx=0;exitDy=0;entryX=1;entryY=0.5;entryDx=0;entryDy=0;" parent="1" source="P_S8tWhegUSo4uzERF2O-242" target="P_S8tWhegUSo4uzERF2O-238" edge="1">
          <mxGeometry relative="1" as="geometry">
            <mxPoint x="571.64" y="539.21" as="targetPoint" />
            <Array as="points">
              <mxPoint x="711.64" y="539.19" />
              <mxPoint x="711.64" y="536.19" />
            </Array>
          </mxGeometry>
        </mxCell>
        <mxCell id="P_S8tWhegUSo4uzERF2O-242" value="&lt;span&gt;Получить бонусные средства&lt;br&gt;&lt;/span&gt;" style="rounded=1;whiteSpace=wrap;html=1;" parent="1" vertex="1">
          <mxGeometry x="666.64" y="509.21000000000004" width="120" height="60" as="geometry" />
        </mxCell>
        <mxCell id="P_S8tWhegUSo4uzERF2O-243" style="edgeStyle=orthogonalEdgeStyle;rounded=0;orthogonalLoop=1;jettySize=auto;html=1;exitX=0;exitY=0.5;exitDx=0;exitDy=0;entryX=1;entryY=0.5;entryDx=0;entryDy=0;" parent="1" source="P_S8tWhegUSo4uzERF2O-244" target="P_S8tWhegUSo4uzERF2O-242" edge="1">
          <mxGeometry relative="1" as="geometry" />
        </mxCell>
        <mxCell id="P_S8tWhegUSo4uzERF2O-244" value="Ввести промокод&lt;span&gt;&lt;br&gt;&lt;/span&gt;do/ ввести код&lt;span&gt;&lt;br&gt;&lt;/span&gt;" style="rounded=1;whiteSpace=wrap;html=1;" parent="1" vertex="1">
          <mxGeometry x="889.14" y="517.72" width="120" height="42.98" as="geometry" />
        </mxCell>
        <mxCell id="P_S8tWhegUSo4uzERF2O-245" style="rounded=0;orthogonalLoop=1;jettySize=auto;html=1;exitX=-0.003;exitY=0.335;exitDx=0;exitDy=0;entryX=1;entryY=0.5;entryDx=0;entryDy=0;exitPerimeter=0;" parent="1" source="P_S8tWhegUSo4uzERF2O-246" target="P_S8tWhegUSo4uzERF2O-244" edge="1">
          <mxGeometry relative="1" as="geometry" />
        </mxCell>
        <mxCell id="P_S8tWhegUSo4uzERF2O-246" value="Внести денежные средства на сайт&lt;br&gt;entry/ переход на онлайн банк&lt;br&gt;do/ ввести данные карты&lt;br&gt;exit/средства внесены" style="rounded=1;whiteSpace=wrap;html=1;" parent="1" vertex="1">
          <mxGeometry x="1103.8899999999999" y="506.21000000000004" width="177.75" height="92.98" as="geometry" />
        </mxCell>
        <mxCell id="P_S8tWhegUSo4uzERF2O-247" value="" style="rounded=0;orthogonalLoop=1;jettySize=auto;html=1;" parent="1" source="P_S8tWhegUSo4uzERF2O-248" target="P_S8tWhegUSo4uzERF2O-246" edge="1">
          <mxGeometry relative="1" as="geometry" />
        </mxCell>
        <mxCell id="P_S8tWhegUSo4uzERF2O-248" value="" style="points=[[0.145,0.145,0],[0.5,0,0],[0.855,0.145,0],[1,0.5,0],[0.855,0.855,0],[0.5,1,0],[0.145,0.855,0],[0,0.5,0]];shape=mxgraph.bpmn.event;html=1;verticalLabelPosition=bottom;labelBackgroundColor=#ffffff;verticalAlign=top;align=center;perimeter=ellipsePerimeter;outlineConnect=0;aspect=fixed;outline=standard;symbol=general;fillColor=#000000;" parent="1" vertex="1">
          <mxGeometry x="1311.6399999999999" y="526.3800000000001" width="50" height="50" as="geometry" />
        </mxCell>
        <mxCell id="P_S8tWhegUSo4uzERF2O-249" value="Вводим &lt;br&gt;промокод(n)" style="text;html=1;align=center;verticalAlign=middle;resizable=0;points=[];autosize=1;strokeColor=none;fillColor=none;" parent="1" vertex="1">
          <mxGeometry x="1009.14" y="506.21000000000004" width="80" height="30" as="geometry" />
        </mxCell>
        <mxCell id="P_S8tWhegUSo4uzERF2O-250" value="Закрываем ставку&lt;br&gt;раньше" style="text;html=1;align=center;verticalAlign=middle;resizable=0;points=[];autosize=1;strokeColor=none;fillColor=none;" parent="1" vertex="1">
          <mxGeometry x="551.64" y="505.5799999999999" width="120" height="30" as="geometry" />
        </mxCell>
        <mxCell id="P_S8tWhegUSo4uzERF2O-251" value="Ввод пароля (n) &lt;br&gt;[неверный пароль. Ставка не закрыта]" style="text;html=1;align=center;verticalAlign=middle;resizable=0;points=[];autosize=1;strokeColor=none;fillColor=none;" parent="1" vertex="1">
          <mxGeometry x="386.64" y="443.5799999999999" width="230" height="30" as="geometry" />
        </mxCell>
        <mxCell id="P_S8tWhegUSo4uzERF2O-252" value="" style="endArrow=none;html=1;rounded=0;fontSize=12;curved=1;entryX=1.003;entryY=0.412;entryDx=0;entryDy=0;entryPerimeter=0;" parent="1" target="P_S8tWhegUSo4uzERF2O-246" edge="1">
          <mxGeometry width="50" height="50" relative="1" as="geometry">
            <mxPoint x="1103.6399999999999" y="544.19" as="sourcePoint" />
            <mxPoint x="1248.8899999999999" y="545.21" as="targetPoint" />
          </mxGeometry>
        </mxCell>
        <mxCell id="P_S8tWhegUSo4uzERF2O-253" value="" style="endArrow=none;html=1;rounded=0;fontSize=12;curved=1;" parent="1" edge="1">
          <mxGeometry width="50" height="50" relative="1" as="geometry">
            <mxPoint x="889.14" y="540.4199999999998" as="sourcePoint" />
            <mxPoint x="1009.14" y="540.4199999999998" as="targetPoint" />
          </mxGeometry>
        </mxCell>
        <mxCell id="P_S8tWhegUSo4uzERF2O-254" value="" style="endArrow=none;html=1;rounded=0;fontSize=12;curved=1;entryX=1;entryY=0.5;entryDx=0;entryDy=0;exitX=0;exitY=0.5;exitDx=0;exitDy=0;" parent="1" source="P_S8tWhegUSo4uzERF2O-240" target="P_S8tWhegUSo4uzERF2O-240" edge="1">
          <mxGeometry width="50" height="50" relative="1" as="geometry">
            <mxPoint x="892.14" y="665.96" as="sourcePoint" />
            <mxPoint x="1012.14" y="665.96" as="targetPoint" />
          </mxGeometry>
        </mxCell>
        <mxCell id="P_S8tWhegUSo4uzERF2O-255" value="" style="endArrow=none;html=1;rounded=0;fontSize=12;curved=1;exitX=0;exitY=0.5;exitDx=0;exitDy=0;" parent="1" source="P_S8tWhegUSo4uzERF2O-238" edge="1">
          <mxGeometry width="50" height="50" relative="1" as="geometry">
            <mxPoint x="431.64" y="535.8700000000001" as="sourcePoint" />
            <mxPoint x="551.64" y="535.8700000000001" as="targetPoint" />
          </mxGeometry>
        </mxCell>
        <mxCell id="P_S8tWhegUSo4uzERF2O-256" value="" style="points=[[0.145,0.145,0],[0.5,0,0],[0.855,0.145,0],[1,0.5,0],[0.855,0.855,0],[0.5,1,0],[0.145,0.855,0],[0,0.5,0]];shape=mxgraph.bpmn.event;html=1;verticalLabelPosition=bottom;labelBackgroundColor=#ffffff;verticalAlign=top;align=center;perimeter=ellipsePerimeter;outlineConnect=0;aspect=fixed;outline=end;symbol=terminate2;" parent="1" vertex="1">
          <mxGeometry x="21.639999999999986" y="511.38" width="50" height="50" as="geometry" />
        </mxCell>
        <mxCell id="P_S8tWhegUSo4uzERF2O-257" value="Получаем &lt;br&gt;бонусные средства" style="text;html=1;align=center;verticalAlign=middle;resizable=0;points=[];autosize=1;strokeColor=none;fillColor=none;" parent="1" vertex="1">
          <mxGeometry x="776.64" y="494.21000000000004" width="120" height="30" as="geometry" />
        </mxCell>
        <mxCell id="P_S8tWhegUSo4uzERF2O-258" value="" style="endArrow=none;dashed=1;html=1;rounded=0;curved=1;exitX=0;exitY=0.75;exitDx=0;exitDy=0;entryX=1;entryY=0.75;entryDx=0;entryDy=0;" parent="1" source="P_S8tWhegUSo4uzERF2O-121" target="P_S8tWhegUSo4uzERF2O-121" edge="1">
          <mxGeometry width="50" height="50" relative="1" as="geometry">
            <mxPoint x="-9.999999999999886" y="149.6199999999999" as="sourcePoint" />
            <mxPoint x="1417.8499999999995" y="151.70500000000015" as="targetPoint" />
          </mxGeometry>
        </mxCell>
        <mxCell id="P_S8tWhegUSo4uzERF2O-259" value="Войти" style="text;html=1;align=center;verticalAlign=middle;resizable=0;points=[];autosize=1;strokeColor=none;fillColor=none;fontSize=12;" parent="1" vertex="1">
          <mxGeometry x="1237.93" y="160" width="50" height="20" as="geometry" />
        </mxCell>
        <mxCell id="P_S8tWhegUSo4uzERF2O-260" value="Внести и вывести средства" style="text;html=1;align=center;verticalAlign=middle;resizable=0;points=[];autosize=1;strokeColor=none;fillColor=none;fontSize=12;" parent="1" vertex="1">
          <mxGeometry x="1177.93" y="453.5799999999999" width="170" height="20" as="geometry" />
        </mxCell>
        <mxCell id="P_S8tWhegUSo4uzERF2O-261" value="Выберите сумму ставки&lt;br&gt;/[ставка ниже минимально возможной]&lt;br&gt;/[ставка выше минимально возможной]" style="text;html=1;align=center;verticalAlign=middle;resizable=0;points=[];autosize=1;strokeColor=none;fillColor=none;" parent="1" vertex="1">
          <mxGeometry x="-370" y="-513.3399999999999" width="230" height="50" as="geometry" />
        </mxCell>
        <mxCell id="P_S8tWhegUSo4uzERF2O-262" style="edgeStyle=orthogonalEdgeStyle;rounded=0;orthogonalLoop=1;jettySize=auto;html=1;entryX=0;entryY=0.75;entryDx=0;entryDy=0;curved=1;" parent="1" source="P_S8tWhegUSo4uzERF2O-263" target="P_S8tWhegUSo4uzERF2O-127" edge="1">
          <mxGeometry relative="1" as="geometry">
            <Array as="points">
              <mxPoint x="-110" y="-266" />
              <mxPoint x="-110" y="-325" />
            </Array>
          </mxGeometry>
        </mxCell>
        <mxCell id="P_S8tWhegUSo4uzERF2O-263" value="&lt;span&gt;Сделать ставку&lt;br&gt;&lt;/span&gt;" style="rounded=1;whiteSpace=wrap;html=1;" parent="1" vertex="1">
          <mxGeometry x="-360" y="-295.9" width="191.02" height="60" as="geometry" />
        </mxCell>
        <mxCell id="P_S8tWhegUSo4uzERF2O-264" value="Ставка успешно &lt;br&gt;сделана" style="text;html=1;align=center;verticalAlign=middle;resizable=0;points=[];autosize=1;strokeColor=none;fillColor=none;" parent="1" vertex="1">
          <mxGeometry x="-62" y="-275.9" width="110" height="40" as="geometry" />
        </mxCell>
        <mxCell id="P_S8tWhegUSo4uzERF2O-265" value="Сделать ставку&amp;nbsp;&lt;br&gt;[пользователь]" style="text;html=1;align=center;verticalAlign=middle;resizable=0;points=[];autosize=1;strokeColor=none;fillColor=none;" parent="1" vertex="1">
          <mxGeometry x="-62" y="-530.11" width="110" height="30" as="geometry" />
        </mxCell>
        <mxCell id="P_S8tWhegUSo4uzERF2O-266" value="Взаимодействия с аккаунтом проведены" style="text;html=1;align=center;verticalAlign=middle;resizable=0;points=[];autosize=1;strokeColor=none;fillColor=none;" parent="1" vertex="1">
          <mxGeometry x="195" y="-160" width="240" height="20" as="geometry" />
        </mxCell>
        <mxCell id="P_S8tWhegUSo4uzERF2O-267" value="Войти в аккаунт и внести средства" style="text;html=1;align=center;verticalAlign=middle;resizable=0;points=[];autosize=1;strokeColor=none;fillColor=none;" parent="1" vertex="1">
          <mxGeometry x="-75.94" y="-110" width="210" height="20" as="geometry" />
        </mxCell>
        <mxCell id="P_S8tWhegUSo4uzERF2O-268" style="edgeStyle=orthogonalEdgeStyle;rounded=0;orthogonalLoop=1;jettySize=auto;html=1;exitX=0.75;exitY=0;exitDx=0;exitDy=0;entryX=0.25;entryY=0;entryDx=0;entryDy=0;curved=1;" parent="1" source="P_S8tWhegUSo4uzERF2O-149" target="P_S8tWhegUSo4uzERF2O-149" edge="1">
          <mxGeometry relative="1" as="geometry">
            <Array as="points">
              <mxPoint x="812.92" y="-477.65999999999997" />
              <mxPoint x="717.92" y="-477.65999999999997" />
            </Array>
          </mxGeometry>
        </mxCell>
        <mxCell id="P_S8tWhegUSo4uzERF2O-269" value="" style="endArrow=none;html=1;rounded=0;fontSize=12;curved=1;exitX=-0.001;exitY=0.395;exitDx=0;exitDy=0;exitPerimeter=0;entryX=1.001;entryY=0.352;entryDx=0;entryDy=0;entryPerimeter=0;" parent="1" target="P_S8tWhegUSo4uzERF2O-147" edge="1">
          <mxGeometry width="50" height="50" relative="1" as="geometry">
            <mxPoint x="979.9230799999997" y="-437.67404999999985" as="sourcePoint" />
            <mxPoint x="1217.0800000000002" y="-437.2799999999995" as="targetPoint" />
          </mxGeometry>
        </mxCell>
        <mxCell id="P_S8tWhegUSo4uzERF2O-270" value="Добавить виды ставок&lt;br&gt;[Выбранные ставки не подходят типу матча]" style="text;html=1;align=center;verticalAlign=middle;resizable=0;points=[];autosize=1;strokeColor=none;fillColor=none;" parent="1" vertex="1">
          <mxGeometry x="1271.5600000000002" y="-513.3399999999999" width="260" height="30" as="geometry" />
        </mxCell>
        <mxCell id="P_S8tWhegUSo4uzERF2O-271" style="edgeStyle=orthogonalEdgeStyle;rounded=0;orthogonalLoop=1;jettySize=auto;html=1;exitX=0.75;exitY=0;exitDx=0;exitDy=0;entryX=0.25;entryY=0;entryDx=0;entryDy=0;curved=1;" parent="1" source="P_S8tWhegUSo4uzERF2O-164" target="P_S8tWhegUSo4uzERF2O-164" edge="1">
          <mxGeometry relative="1" as="geometry">
            <Array as="points">
              <mxPoint x="1470.92" y="-475.65999999999997" />
              <mxPoint x="1351.92" y="-475.65999999999997" />
            </Array>
          </mxGeometry>
        </mxCell>
        <mxCell id="P_S8tWhegUSo4uzERF2O-272" value="Настраиваем&lt;br&gt;трансляцию" style="text;html=1;align=center;verticalAlign=middle;resizable=0;points=[];autosize=1;strokeColor=none;fillColor=none;" parent="1" vertex="1">
          <mxGeometry x="2171.84" y="-468.80999999999995" width="90" height="30" as="geometry" />
        </mxCell>
        <mxCell id="P_S8tWhegUSo4uzERF2O-273" value="Настраиваем&lt;br&gt;транскрибацию" style="text;html=1;align=center;verticalAlign=middle;resizable=0;points=[];autosize=1;strokeColor=none;fillColor=none;" parent="1" vertex="1">
          <mxGeometry x="2359.92" y="-471.65999999999997" width="100" height="30" as="geometry" />
        </mxCell>
        <mxCell id="P_S8tWhegUSo4uzERF2O-274" value="Добавляем &lt;br&gt;матч" style="text;html=1;align=center;verticalAlign=middle;resizable=0;points=[];autosize=1;strokeColor=none;fillColor=none;" parent="1" vertex="1">
          <mxGeometry x="2569.92" y="-461.6600000000001" width="80" height="30" as="geometry" />
        </mxCell>
        <mxCell id="P_S8tWhegUSo4uzERF2O-275" value="Матч успешно добавлен в каталог" style="text;html=1;align=center;verticalAlign=middle;resizable=0;points=[];autosize=1;strokeColor=none;fillColor=none;" parent="1" vertex="1">
          <mxGeometry x="1260" y="-199.99999999999997" width="210" height="20" as="geometry" />
        </mxCell>
        <mxCell id="P_S8tWhegUSo4uzERF2O-276" value="Добавить матч в каталог&lt;br&gt;[администратор]" style="text;html=1;align=center;verticalAlign=middle;resizable=0;points=[];autosize=1;strokeColor=none;fillColor=none;" parent="1" vertex="1">
          <mxGeometry x="240" y="-540.11" width="150" height="30" as="geometry" />
        </mxCell>
      </root>
    </mxGraphModel>
  </diagram>
</mxfile>
